font.ufo
<glyph name="exclam" format="1">
	<unicode hex="0021"/>
	<advance width="600"/>
	<outline>
		<contour>
			<point x="267" y="219" type="line"/>
			<point x="299" y="219" type="line"/>
			<point x="381" y="599" type="line"/>
			<point x="395" y="672" type="line"/>
			<point x="350" y="672" type="line"/>
			<point x="336" y="599" type="line"/>
		</contour>
		<contour>
			<point x="239" y="-12" type="curve" smooth="yes"/>
			<point x="275" y="-12"/>
			<point x="307" y="24"/>
			<point x="307" y="61" type="curve" smooth="yes"/>
			<point x="307" y="92"/>
			<point x="289" y="112"/>
			<point x="260" y="112" type="curve" smooth="yes"/>
			<point x="224" y="112"/>
			<point x="193" y="76"/>
			<point x="193" y="38" type="curve" smooth="yes"/>
			<point x="193" y="8"/>
			<point x="211" y="-12"/>
		</contour>
	</outline>
</glyph>
<glyph name="numbersign" format="1">
  <advance width="600"/>
  <unicode hex="0023"/>
  <outline>
    <contour>
      <point x="90" y="0" type="line"/>
      <point x="123" y="0" type="line"/>
      <point x="321" y="650" type="line"/>
      <point x="288" y="650" type="line"/>
    </contour>
    <contour>
      <point x="290" y="0" type="line"/>
      <point x="323" y="0" type="line"/>
      <point x="508" y="650" type="line"/>
      <point x="475" y="650" type="line"/>
    </contour>
    <contour>
      <point x="137" y="424" type="line"/>
      <point x="528" y="424" type="line"/>
      <point x="535" y="455" type="line"/>
      <point x="144" y="455" type="line"/>
    </contour>
    <contour>
      <point x="76" y="218" type="line"/>
      <point x="467" y="218" type="line"/>
      <point x="474" y="248" type="line"/>
      <point x="83" y="248" type="line"/>
    </contour>
  </outline>
</glyph>
<glyph name="dollar" format="1">
  <advance width="600"/>
  <unicode hex="0024"/>
  <outline>
    <contour>
      <point x="265" y="34" type="curve" smooth="yes"/>
      <point x="375" y="34"/>
      <point x="475" y="77"/>
      <point x="475" y="189" type="curve" smooth="yes"/>
      <point x="475" y="274"/>
      <point x="402" y="311"/>
      <point x="317" y="353" type="curve" smooth="yes"/>
      <point x="231" y="396"/>
      <point x="195" y="430"/>
      <point x="195" y="485" type="curve" smooth="yes"/>
      <point x="195" y="550"/>
      <point x="256" y="582"/>
      <point x="328" y="582" type="curve" smooth="yes"/>
      <point x="401" y="582"/>
      <point x="454" y="542"/>
      <point x="487" y="499" type="curve"/>
      <point x="516" y="523" type="line"/>
      <point x="487" y="562"/>
      <point x="419" y="618"/>
      <point x="334" y="618" type="curve" smooth="yes"/>
      <point x="239" y="618"/>
      <point x="152" y="577"/>
      <point x="152" y="483" type="curve" smooth="yes"/>
      <point x="152" y="403"/>
      <point x="205" y="363"/>
      <point x="293" y="318" type="curve" smooth="yes"/>
      <point x="375" y="277"/>
      <point x="432" y="249"/>
      <point x="432" y="183" type="curve" smooth="yes"/>
      <point x="432" y="109"/>
      <point x="365" y="71"/>
      <point x="268" y="71" type="curve" smooth="yes"/>
      <point x="181" y="71"/>
      <point x="125" y="122"/>
      <point x="93" y="160" type="curve"/>
      <point x="63" y="133" type="line"/>
      <point x="101" y="89"/>
      <point x="170" y="34"/>
    </contour>
    <contour>
      <point x="332" y="598" type="line"/>
      <point x="367" y="598" type="line"/>
      <point x="399" y="750" type="line"/>
      <point x="363" y="750" type="line"/>
    </contour>
    <contour>
      <point x="198" y="-110" type="line"/>
      <point x="234" y="-110" type="line"/>
      <point x="264" y="43" type="line"/>
      <point x="229" y="43" type="line"/>
    </contour>
  </outline>
</glyph>
<glyph name="ampersand" format="1">
  <advance width="600"/>
  <unicode hex="0026"/>
  <outline>
    <contour>
      <point x="180" y="-12" type="curve" smooth="yes"/>
      <point x="257" y="-12"/>
      <point x="334" y="26"/>
      <point x="393" y="85" type="curve" smooth="yes"/>
      <point x="461" y="154"/>
      <point x="521" y="244"/>
      <point x="567" y="343" type="curve"/>
      <point x="526" y="343" type="line"/>
      <point x="485" y="252"/>
      <point x="433" y="172"/>
      <point x="367" y="109" type="curve" smooth="yes"/>
      <point x="316" y="60"/>
      <point x="247" y="24"/>
      <point x="187" y="24" type="curve" smooth="yes"/>
      <point x="118" y="24"/>
      <point x="69" y="66"/>
      <point x="69" y="139" type="curve" smooth="yes"/>
      <point x="69" y="332"/>
      <point x="437" y="373"/>
      <point x="437" y="578" type="curve" smooth="yes"/>
      <point x="437" y="628"/>
      <point x="407" y="671"/>
      <point x="344" y="671" type="curve" smooth="yes"/>
      <point x="261" y="671"/>
      <point x="185" y="595"/>
      <point x="185" y="480" type="curve" smooth="yes"/>
      <point x="185" y="347"/>
      <point x="271" y="182"/>
      <point x="363" y="83" type="curve" smooth="yes"/>
      <point x="407" y="35"/>
      <point x="458" y="4"/>
      <point x="495" y="-12" type="curve"/>
      <point x="514" y="22" type="line"/>
      <point x="480" y="37"/>
      <point x="432" y="66"/>
      <point x="392" y="109" type="curve" smooth="yes"/>
      <point x="298" y="210"/>
      <point x="223" y="359"/>
      <point x="223" y="484" type="curve" smooth="yes"/>
      <point x="223" y="572"/>
      <point x="275" y="637"/>
      <point x="343" y="637" type="curve" smooth="yes"/>
      <point x="383" y="637"/>
      <point x="400" y="605"/>
      <point x="400" y="572" type="curve" smooth="yes"/>
      <point x="400" y="393"/>
      <point x="27" y="358"/>
      <point x="27" y="132" type="curve" smooth="yes"/>
      <point x="27" y="42"/>
      <point x="92" y="-12"/>
    </contour>
  </outline>
</glyph>
<glyph name="parenleft" format="1">
  <advance width="600"/>
  <unicode hex="0028"/>
  <outline>
    <contour>
      <point x="365" y="-175" type="curve"/>
      <point x="394" y="-146" type="line"/>
      <point x="297" y="-61"/>
      <point x="252" y="52"/>
      <point x="252" y="184" type="curve" smooth="yes"/>
      <point x="252" y="389"/>
      <point x="349" y="568"/>
      <point x="564" y="700" type="curve"/>
      <point x="545" y="730" type="line"/>
      <point x="338" y="610"/>
      <point x="210" y="419"/>
      <point x="210" y="182" type="curve" smooth="yes"/>
      <point x="210" y="35"/>
      <point x="267" y="-93"/>
    </contour>
  </outline>
</glyph>
<glyph name="parenright" format="1">
  <advance width="600"/>
  <unicode hex="0029"/>
  <outline>
    <contour>
      <point x="56" y="-184" type="line"/>
      <point x="263" y="-64"/>
      <point x="387" y="127"/>
      <point x="387" y="364" type="curve" smooth="yes"/>
      <point x="387" y="511"/>
      <point x="329" y="639"/>
      <point x="231" y="720" type="curve"/>
      <point x="204" y="694" type="line"/>
      <point x="302" y="606"/>
      <point x="345" y="498"/>
      <point x="345" y="362" type="curve" smooth="yes"/>
      <point x="345" y="157"/>
      <point x="254" y="-20"/>
      <point x="36" y="-154" type="curve"/>
    </contour>
  </outline>
</glyph>
<glyph name="asterisk" format="1">
  <advance width="600"/>
  <unicode hex="002A"/>
  <outline>
    <contour>
      <point x="144" y="131" type="line"/>
      <point x="297" y="287" type="line"/>
      <point x="393" y="123" type="line"/>
      <point x="422" y="140" type="line"/>
      <point x="339" y="312" type="line"/>
      <point x="518" y="388" type="line"/>
      <point x="509" y="415" type="line"/>
      <point x="332" y="355" type="line"/>
      <point x="360" y="547" type="line"/>
      <point x="329" y="547" type="line"/>
      <point x="284" y="358" type="line"/>
      <point x="128" y="415" type="line"/>
      <point x="113" y="388" type="line"/>
      <point x="259" y="317" type="line"/>
      <point x="120" y="150" type="line"/>
    </contour>
  </outline>
</glyph>
<glyph name="plus" format="1">
  <advance width="600"/>
  <unicode hex="002B"/>
  <outline>
    <contour>
      <point x="286" y="108" type="line"/>
      <point x="321" y="108" type="line"/>
      <point x="321" y="314" type="line"/>
      <point x="502" y="314" type="line"/>
      <point x="502" y="348" type="line"/>
      <point x="321" y="348" type="line"/>
      <point x="321" y="548" type="line"/>
      <point x="286" y="548" type="line"/>
      <point x="286" y="348" type="line"/>
      <point x="105" y="348" type="line"/>
      <point x="105" y="314" type="line"/>
      <point x="286" y="314" type="line"/>
    </contour>
  </outline>
</glyph>
<glyph name="comma" format="1">
  <advance width="600"/>
  <unicode hex="002C"/>
  <outline>
    <contour>
      <point x="105" y="-202" type="line"/>
      <point x="230" y="-168"/>
      <point x="322" y="-75"/>
      <point x="322" y="45" type="curve" smooth="yes"/>
      <point x="322" y="92"/>
      <point x="303" y="118"/>
      <point x="269" y="118" type="curve" smooth="yes"/>
      <point x="231" y="118"/>
      <point x="200" y="86"/>
      <point x="200" y="47" type="curve" smooth="yes"/>
      <point x="200" y="16"/>
      <point x="219" y="-4"/>
      <point x="248" y="-4" type="curve" smooth="yes"/>
      <point x="263" y="-4"/>
      <point x="284" y="2"/>
      <point x="294" y="15" type="curve"/>
      <point x="271" y="33" type="line"/>
      <point x="266" y="3" type="line"/>
      <point x="256" y="-75"/>
      <point x="194" y="-143"/>
      <point x="97" y="-171" type="curve"/>
    </contour>
  </outline>
</glyph>
<glyph name="period" format="1">
  <advance width="600"/>
  <unicode hex="002E"/>
  <outline>
    <contour>
      <point x="238" y="-12" type="curve" smooth="yes"/>
      <point x="275" y="-12"/>
      <point x="308" y="25"/>
      <point x="308" y="63" type="curve" smooth="yes"/>
      <point x="308" y="94"/>
      <point x="290" y="115"/>
      <point x="260" y="115" type="curve" smooth="yes"/>
      <point x="223" y="115"/>
      <point x="191" y="78"/>
      <point x="191" y="40" type="curve" smooth="yes"/>
      <point x="191" y="9"/>
      <point x="209" y="-12"/>
    </contour>
  </outline>
</glyph>
<glyph name="one" format="1">
  <advance width="600"/>
  <unicode hex="0031"/>
  <outline>
    <contour>
      <point x="50" y="0" type="line"/>
      <point x="465" y="0" type="line"/>
      <point x="471" y="36" type="line"/>
      <point x="288" y="36" type="line"/>
      <point x="410" y="639" type="line"/>
      <point x="377" y="639" type="line"/>
      <point x="341" y="620"/>
      <point x="283" y="606"/>
      <point x="223" y="599" type="curve"/>
      <point x="218" y="571" type="line"/>
      <point x="355" y="571" type="line"/>
      <point x="247" y="36" type="line"/>
      <point x="58" y="36" type="line"/>
    </contour>
  </outline>
</glyph>
<glyph name="two" format="1">
  <advance width="600"/>
  <unicode hex="0032"/>
  <outline>
    <contour>
      <point x="48" y="0" type="line"/>
      <point x="483" y="0" type="line"/>
      <point x="489" y="37" type="line"/>
      <point x="232" y="37" type="line"/>
      <point x="191" y="37"/>
      <point x="159" y="37"/>
      <point x="117" y="36" type="curve"/>
      <point x="363" y="245"/>
      <point x="494" y="357"/>
      <point x="494" y="501" type="curve" smooth="yes"/>
      <point x="494" y="592"/>
      <point x="438" y="651"/>
      <point x="339" y="651" type="curve" smooth="yes"/>
      <point x="250" y="651"/>
      <point x="178" y="606"/>
      <point x="124" y="549" type="curve"/>
      <point x="149" y="522" type="line"/>
      <point x="198" y="575"/>
      <point x="261" y="615"/>
      <point x="330" y="615" type="curve" smooth="yes"/>
      <point x="417" y="615"/>
      <point x="453" y="570"/>
      <point x="453" y="497" type="curve" smooth="yes"/>
      <point x="453" y="370"/>
      <point x="331" y="264"/>
      <point x="51" y="27" type="curve"/>
    </contour>
  </outline>
</glyph>
<glyph name="three" format="1">
  <advance width="600"/>
  <unicode hex="0033"/>
  <outline>
    <contour>
      <point x="249" y="-12" type="curve" smooth="yes"/>
      <point x="379" y="-12"/>
      <point x="478" y="56"/>
      <point x="478" y="182" type="curve" smooth="yes"/>
      <point x="478" y="262"/>
      <point x="427" y="313"/>
      <point x="332" y="331" type="curve"/>
      <point x="332" y="334" type="line"/>
      <point x="452" y="356"/>
      <point x="509" y="424"/>
      <point x="509" y="515" type="curve" smooth="yes"/>
      <point x="509" y="604"/>
      <point x="439" y="651"/>
      <point x="344" y="651" type="curve" smooth="yes"/>
      <point x="260" y="651"/>
      <point x="189" y="614"/>
      <point x="141" y="571" type="curve"/>
      <point x="164" y="543" type="line"/>
      <point x="209" y="584"/>
      <point x="266" y="615"/>
      <point x="339" y="615" type="curve" smooth="yes"/>
      <point x="414" y="615"/>
      <point x="467" y="577"/>
      <point x="467" y="507" type="curve" smooth="yes"/>
      <point x="467" y="420"/>
      <point x="394" y="351"/>
      <point x="222" y="351" type="curve"/>
      <point x="216" y="316" type="line"/>
      <point x="375" y="313"/>
      <point x="437" y="260"/>
      <point x="437" y="177" type="curve" smooth="yes"/>
      <point x="437" y="79"/>
      <point x="352" y="24"/>
      <point x="251" y="24" type="curve" smooth="yes"/>
      <point x="155" y="24"/>
      <point x="98" y="73"/>
      <point x="67" y="116" type="curve"/>
      <point x="37" y="93" type="line"/>
      <point x="76" y="43"/>
      <point x="139" y="-12"/>
    </contour>
  </outline>
</glyph>
<glyph name="five" format="1">
  <advance width="600"/>
  <unicode hex="0035"/>
  <outline>
    <contour>
      <point x="249" y="-12" type="curve" smooth="yes"/>
      <point x="381" y="-12"/>
      <point x="495" y="75"/>
      <point x="495" y="229" type="curve" smooth="yes"/>
      <point x="495" y="350"/>
      <point x="422" y="399"/>
      <point x="322" y="399" type="curve" smooth="yes"/>
      <point x="258" y="399"/>
      <point x="215" y="380"/>
      <point x="170" y="360" type="curve"/>
      <point x="229" y="603" type="line"/>
      <point x="529" y="603" type="line"/>
      <point x="535" y="639" type="line"/>
      <point x="198" y="639" type="line"/>
      <point x="124" y="335" type="line"/>
      <point x="149" y="316" type="line"/>
      <point x="201" y="342"/>
      <point x="247" y="364"/>
      <point x="313" y="364" type="curve" smooth="yes"/>
      <point x="402" y="364"/>
      <point x="454" y="316"/>
      <point x="454" y="221" type="curve" smooth="yes"/>
      <point x="454" y="93"/>
      <point x="353" y="24"/>
      <point x="250" y="24" type="curve" smooth="yes"/>
      <point x="157" y="24"/>
      <point x="96" y="71"/>
      <point x="62" y="118" type="curve"/>
      <point x="32" y="93" type="line"/>
      <point x="71" y="43"/>
      <point x="141" y="-12"/>
    </contour>
  </outline>
</glyph>
<glyph name="six" format="1">
	<unicode hex="0036"/>
	<advance width="600"/>
	<outline>
		<contour>
			<point x="272" y="-12" type="curve" smooth="yes"/>
			<point x="402" y="-12"/>
			<point x="501" y="90"/>
			<point x="501" y="225" type="curve" smooth="yes"/>
			<point x="501" y="346"/>
			<point x="420" y="395"/>
			<point x="334" y="395" type="curve" smooth="yes"/>
			<point x="236" y="395"/>
			<point x="154" y="339"/>
			<point x="105" y="272" type="curve"/>
			<point x="107" y="233" type="line"/>
			<point x="169" y="314"/>
			<point x="243" y="360"/>
			<point x="327" y="360" type="curve" smooth="yes"/>
			<point x="395" y="360"/>
			<point x="461" y="319"/>
			<point x="461" y="218" type="curve" smooth="yes"/>
			<point x="461" y="115"/>
			<point x="383" y="23"/>
			<point x="275" y="23" type="curve" smooth="yes"/>
			<point x="182" y="23"/>
			<point x="112" y="95"/>
			<point x="112" y="224" type="curve" smooth="yes"/>
			<point x="112" y="494"/>
			<point x="257" y="615"/>
			<point x="384" y="615" type="curve" smooth="yes"/>
			<point x="437" y="615"/>
			<point x="481" y="597"/>
			<point x="518" y="546" type="curve"/>
			<point x="548" y="569" type="line"/>
			<point x="514" y="621"/>
			<point x="456" y="651"/>
			<point x="387" y="651" type="curve" smooth="yes"/>
			<point x="232" y="651"/>
			<point x="72" y="514"/>
			<point x="72" y="220" type="curve" smooth="yes"/>
			<point x="72" y="77"/>
			<point x="156" y="-12"/>
		</contour>
	</outline>
</glyph>
<glyph name="eight" format="1">
  <advance width="600"/>
  <unicode hex="0038"/>
  <outline>
    <contour>
      <point x="270" y="-12" type="curve" smooth="yes"/>
      <point x="395" y="-12"/>
      <point x="489" y="54"/>
      <point x="489" y="168" type="curve" smooth="yes"/>
      <point x="489" y="244"/>
      <point x="426" y="288"/>
      <point x="393" y="310" type="curve"/>
      <point x="393" y="314" type="line"/>
      <point x="476" y="357"/>
      <point x="527" y="417"/>
      <point x="527" y="506" type="curve" smooth="yes"/>
      <point x="527" y="602"/>
      <point x="452" y="651"/>
      <point x="362" y="651" type="curve" smooth="yes"/>
      <point x="258" y="651"/>
      <point x="171" y="594"/>
      <point x="171" y="489" type="curve" smooth="yes"/>
      <point x="171" y="435"/>
      <point x="196" y="398"/>
      <point x="239" y="357" type="curve"/>
      <point x="239" y="353" type="line"/>
      <point x="148" y="314"/>
      <point x="74" y="254"/>
      <point x="74" y="153" type="curve" smooth="yes"/>
      <point x="74" y="44"/>
      <point x="164" y="-12"/>
    </contour>
    <contour>
      <point x="364" y="329" type="curve"/>
      <point x="285" y="366"/>
      <point x="211" y="414"/>
      <point x="211" y="492" type="curve" smooth="yes"/>
      <point x="211" y="573"/>
      <point x="281" y="617"/>
      <point x="359" y="617" type="curve" smooth="yes"/>
      <point x="428" y="617"/>
      <point x="488" y="577"/>
      <point x="488" y="501" type="curve" smooth="yes"/>
      <point x="488" y="425"/>
      <point x="435" y="364"/>
    </contour>
    <contour>
      <point x="271" y="23" type="curve" smooth="yes"/>
      <point x="189" y="23"/>
      <point x="113" y="68"/>
      <point x="113" y="158" type="curve" smooth="yes"/>
      <point x="113" y="242"/>
      <point x="173" y="293"/>
      <point x="266" y="337" type="curve"/>
      <point x="350" y="292"/>
      <point x="450" y="248"/>
      <point x="450" y="161" type="curve" smooth="yes"/>
      <point x="450" y="70"/>
      <point x="366" y="23"/>
    </contour>
  </outline>
</glyph>
<glyph name="nine" format="1">
  <advance width="600"/>
  <unicode hex="0039"/>
  <outline>
    <contour>
      <point x="215" y="-12" type="curve" smooth="yes"/>
      <point x="370" y="-12"/>
      <point x="530" y="125"/>
      <point x="530" y="420" type="curve" smooth="yes"/>
      <point x="530" y="563"/>
      <point x="446" y="651"/>
      <point x="329" y="651" type="curve" smooth="yes"/>
      <point x="200" y="651"/>
      <point x="101" y="549"/>
      <point x="101" y="414" type="curve" smooth="yes"/>
      <point x="101" y="294"/>
      <point x="182" y="245"/>
      <point x="268" y="245" type="curve" smooth="yes"/>
      <point x="366" y="245"/>
      <point x="448" y="301"/>
      <point x="497" y="368" type="curve"/>
      <point x="495" y="406" type="line"/>
      <point x="433" y="325"/>
      <point x="359" y="279"/>
      <point x="274" y="279" type="curve" smooth="yes"/>
      <point x="207" y="279"/>
      <point x="141" y="320"/>
      <point x="141" y="421" type="curve" smooth="yes"/>
      <point x="141" y="525"/>
      <point x="219" y="616"/>
      <point x="327" y="616" type="curve" smooth="yes"/>
      <point x="420" y="616"/>
      <point x="490" y="545"/>
      <point x="490" y="416" type="curve" smooth="yes"/>
      <point x="490" y="145"/>
      <point x="345" y="24"/>
      <point x="218" y="24" type="curve" smooth="yes"/>
      <point x="165" y="24"/>
      <point x="120" y="42"/>
      <point x="84" y="94" type="curve"/>
      <point x="54" y="71" type="line"/>
      <point x="88" y="18"/>
      <point x="146" y="-12"/>
    </contour>
  </outline>
</glyph>
<glyph name="less" format="1">
  <advance width="600"/>
  <unicode hex="003C"/>
  <outline>
    <contour>
      <point x="430" y="60" type="line"/>
      <point x="430" y="103" type="line"/>
      <point x="106" y="330" type="line"/>
      <point x="106" y="334" type="line"/>
      <point x="430" y="561" type="line"/>
      <point x="430" y="605" type="line"/>
      <point x="66" y="351" type="line"/>
      <point x="66" y="313" type="line"/>
    </contour>
  </outline>
</glyph>
<glyph name="greater" format="1">
  <advance width="600"/>
  <unicode hex="003E"/>
  <outline>
    <contour>
      <point x="64" y="60" type="line"/>
      <point x="428" y="313" type="line"/>
      <point x="428" y="351" type="line"/>
      <point x="64" y="605" type="line"/>
      <point x="64" y="561" type="line"/>
      <point x="389" y="334" type="line"/>
      <point x="389" y="330" type="line"/>
      <point x="64" y="103" type="line"/>
    </contour>
  </outline>
</glyph>
<glyph name="at" format="1">
  <advance width="600"/>
  <unicode hex="0040"/>
  <outline>
    <contour>
      <point x="245" y="-143" type="curve" smooth="yes"/>
      <point x="316" y="-143"/>
      <point x="377" y="-124"/>
      <point x="433" y="-85" type="curve"/>
      <point x="416" y="-56" type="line"/>
      <point x="369" y="-88"/>
      <point x="318" y="-109"/>
      <point x="252" y="-109" type="curve" smooth="yes"/>
      <point x="137" y="-109"/>
      <point x="72" y="-9"/>
      <point x="72" y="149" type="curve" smooth="yes"/>
      <point x="72" y="420"/>
      <point x="243" y="596"/>
      <point x="412" y="596" type="curve" smooth="yes"/>
      <point x="523" y="596"/>
      <point x="545" y="517"/>
      <point x="522" y="399" type="curve" smooth="yes"/>
      <point x="519" y="381" type="line"/>
      <point x="309" y="358"/>
      <point x="210" y="300"/>
      <point x="210" y="188" type="curve" smooth="yes"/>
      <point x="210" y="121"/>
      <point x="250" y="88"/>
      <point x="310" y="88" type="curve" smooth="yes"/>
      <point x="371" y="88"/>
      <point x="435" y="123"/>
      <point x="475" y="163" type="curve"/>
      <point x="477" y="163" type="line"/>
      <point x="470" y="100" type="line"/>
      <point x="499" y="100" type="line"/>
      <point x="558" y="400" type="line" smooth="yes"/>
      <point x="586" y="543"/>
      <point x="546" y="630"/>
      <point x="419" y="630" type="curve" smooth="yes"/>
      <point x="215" y="630"/>
      <point x="33" y="435"/>
      <point x="33" y="148" type="curve" smooth="yes"/>
      <point x="33" y="-36"/>
      <point x="111" y="-143"/>
    </contour>
    <contour>
      <point x="324" y="121" type="curve" smooth="yes"/>
      <point x="277" y="121"/>
      <point x="250" y="145"/>
      <point x="250" y="195" type="curve" smooth="yes"/>
      <point x="250" y="277"/>
      <point x="331" y="326"/>
      <point x="512" y="352" type="curve"/>
      <point x="482" y="202" type="line"/>
      <point x="427" y="149"/>
      <point x="375" y="121"/>
    </contour>
  </outline>
</glyph>
<glyph name="A" format="1">
  <advance width="600"/>
  <unicode hex="0041"/>
  <outline>
    <contour>
      <point x="372" y="681" type="move" name="aboveUC"/>
    </contour>
    <contour>
      <point x="436" y="0" type="move" name="ogonekUC"/>
    </contour>
    <contour>
      <point x="250" y="-22" type="move" name="belowLC"/>
    </contour>
    <contour>
      <point x="-12" y="0" type="line"/>
      <point x="34" y="0" type="line"/>
      <point x="250" y="394" type="line" smooth="yes"/>
      <point x="291" y="471"/>
      <point x="327" y="540"/>
      <point x="369" y="617" type="curve"/>
      <point x="374" y="617" type="line"/>
      <point x="383" y="544"/>
      <point x="391" y="465"/>
      <point x="401" y="391" type="curve" smooth="yes"/>
      <point x="448" y="0" type="line"/>
      <point x="492" y="0" type="line"/>
      <point x="403" y="659" type="line"/>
      <point x="357" y="659" type="line"/>
    </contour>
    <contour>
      <point x="146" y="229" type="line"/>
      <point x="435" y="229" type="line"/>
      <point x="439" y="264" type="line"/>
      <point x="156" y="264" type="line"/>
    </contour>
  </outline>
</glyph>
<glyph name="B" format="1">
  <advance width="600"/>
  <unicode hex="0042"/>
  <outline>
    <contour>
      <point x="374" y="681" type="move" name="aboveUC"/>
    </contour>
    <contour>
      <point x="250" y="-22" type="move" name="belowLC"/>
    </contour>
    <contour>
      <point x="51" y="0" type="line"/>
      <point x="245" y="0" type="line" smooth="yes"/>
      <point x="402" y="0"/>
      <point x="511" y="65"/>
      <point x="511" y="207" type="curve" smooth="yes"/>
      <point x="511" y="289"/>
      <point x="452" y="332"/>
      <point x="387" y="347" type="curve"/>
      <point x="387" y="351" type="line"/>
      <point x="452" y="362"/>
      <point x="536" y="419"/>
      <point x="536" y="516" type="curve" smooth="yes"/>
      <point x="536" y="606"/>
      <point x="473" y="659"/>
      <point x="342" y="659" type="curve" smooth="yes"/>
      <point x="182" y="659" type="line"/>
    </contour>
    <contour>
      <point x="166" y="367" type="line"/>
      <point x="218" y="623" type="line"/>
      <point x="325" y="623" type="line" smooth="yes"/>
      <point x="448" y="623"/>
      <point x="493" y="582"/>
      <point x="493" y="512" type="curve" smooth="yes"/>
      <point x="493" y="427"/>
      <point x="421" y="367"/>
      <point x="277" y="367" type="curve" smooth="yes"/>
    </contour>
    <contour>
      <point x="100" y="36" type="line"/>
      <point x="160" y="332" type="line"/>
      <point x="293" y="332" type="line" smooth="yes"/>
      <point x="405" y="332"/>
      <point x="469" y="278"/>
      <point x="469" y="204" type="curve" smooth="yes"/>
      <point x="469" y="82"/>
      <point x="373" y="36"/>
      <point x="230" y="36" type="curve" smooth="yes"/>
    </contour>
  </outline>
</glyph>
<glyph name="C" format="1">
  <advance width="600"/>
  <unicode hex="0043"/>
  <outline>
    <contour>
      <point x="306" y="-12" type="curve" smooth="yes"/>
      <point x="380" y="-12"/>
      <point x="435" y="16"/>
      <point x="489" y="61" type="curve"/>
      <point x="467" y="89" type="line"/>
      <point x="419" y="49"/>
      <point x="370" y="25"/>
      <point x="311" y="25" type="curve" smooth="yes"/>
      <point x="181" y="25"/>
      <point x="126" y="124"/>
      <point x="126" y="254" type="curve" smooth="yes"/>
      <point x="126" y="421"/>
      <point x="231" y="634"/>
      <point x="413" y="634" type="curve" smooth="yes"/>
      <point x="472" y="634"/>
      <point x="512" y="602"/>
      <point x="538" y="555" type="curve"/>
      <point x="571" y="578" type="line"/>
      <point x="540" y="629"/>
      <point x="490" y="671"/>
      <point x="416" y="671" type="curve" smooth="yes"/>
      <point x="208" y="671"/>
      <point x="82" y="444"/>
      <point x="82" y="248" type="curve" smooth="yes"/>
      <point x="82" y="99"/>
      <point x="157" y="-12"/>
    </contour>
    <contour>
      <point x="402" y="679" type="move" name="aboveUC"/>
    </contour>
    <contour>
      <point x="291" y="0" type="move" name="baseLC"/>
    </contour>
    <contour>
      <point x="290" y="-20" type="move" name="belowLC"/>
    </contour>
  </outline>
</glyph>
<glyph name="D" format="1">
  <advance width="600"/>
  <unicode hex="0044"/>
  <outline>
    <contour>
      <point x="363" y="681" type="move" name="aboveUC"/>
    </contour>
    <contour>
      <point x="223" y="-22" type="move" name="belowLC"/>
    </contour>
    <contour>
      <point x="28" y="0" type="line"/>
      <point x="190" y="0" type="line" smooth="yes"/>
      <point x="427" y="0"/>
      <point x="552" y="175"/>
      <point x="552" y="403" type="curve" smooth="yes"/>
      <point x="552" y="560"/>
      <point x="462" y="659"/>
      <point x="281" y="659" type="curve" smooth="yes"/>
      <point x="160" y="659" type="line"/>
    </contour>
    <contour>
      <point x="77" y="36" type="line"/>
      <point x="195" y="623" type="line"/>
      <point x="279" y="623" type="line" smooth="yes"/>
      <point x="433" y="623"/>
      <point x="508" y="536"/>
      <point x="508" y="400" type="curve" smooth="yes"/>
      <point x="508" y="192"/>
      <point x="395" y="36"/>
      <point x="191" y="36" type="curve" smooth="yes"/>
    </contour>
  </outline>
</glyph>
<glyph name="E" format="1">
  <advance width="600"/>
  <unicode hex="0045"/>
  <outline>
    <contour>
      <point x="415" y="681" type="move" name="aboveUC"/>
    </contour>
    <contour>
      <point x="368" y="0" type="move" name="ogonekUC"/>
    </contour>
    <contour>
      <point x="287" y="-22" type="move" name="belowLC"/>
    </contour>
    <contour>
      <point x="73" y="0" type="line"/>
      <point x="472" y="0" type="line"/>
      <point x="480" y="37" type="line"/>
      <point x="122" y="37" type="line"/>
      <point x="183" y="331" type="line"/>
      <point x="472" y="331" type="line"/>
      <point x="480" y="368" type="line"/>
      <point x="189" y="368" type="line"/>
      <point x="240" y="622" type="line"/>
      <point x="588" y="622" type="line"/>
      <point x="596" y="659" type="line"/>
      <point x="205" y="659" type="line"/>
    </contour>
  </outline>
</glyph>
<glyph name="F" format="1">
  <advance width="600"/>
  <unicode hex="0046"/>
  <outline>
    <contour>
      <point x="93" y="0" type="line"/>
      <point x="136" y="0" type="line"/>
      <point x="200" y="318" type="line"/>
      <point x="484" y="318" type="line"/>
      <point x="492" y="355" type="line"/>
      <point x="206" y="355" type="line"/>
      <point x="259" y="622" type="line"/>
      <point x="602" y="622" type="line"/>
      <point x="610" y="659" type="line"/>
      <point x="225" y="659" type="line"/>
    </contour>
    <contour>
      <point x="427" y="679" type="move" name="aboveUC"/>
    </contour>
    <contour>
      <point x="116" y="0" type="move" name="baseLC"/>
    </contour>
    <contour>
      <point x="121" y="-20" type="move" name="belowLC"/>
    </contour>
  </outline>
</glyph>
<glyph name="G" format="1">
  <advance width="600"/>
  <unicode hex="0047"/>
  <outline>
    <contour>
      <point x="399" y="681" type="move" name="aboveUC"/>
    </contour>
    <contour>
      <point x="299" y="-22" type="move" name="belowLC"/>
    </contour>
    <contour>
      <point x="303" y="-12" type="curve" smooth="yes"/>
      <point x="374" y="-12"/>
      <point x="432" y="14"/>
      <point x="479" y="54" type="curve"/>
      <point x="533" y="322" type="line"/>
      <point x="341" y="322" type="line"/>
      <point x="333" y="286" type="line"/>
      <point x="485" y="286" type="line"/>
      <point x="443" y="75" type="line"/>
      <point x="412" y="47"/>
      <point x="367" y="25"/>
      <point x="307" y="25" type="curve" smooth="yes"/>
      <point x="168" y="25"/>
      <point x="114" y="128"/>
      <point x="114" y="254" type="curve" smooth="yes"/>
      <point x="114" y="421"/>
      <point x="221" y="634"/>
      <point x="411" y="634" type="curve" smooth="yes"/>
      <point x="470" y="634"/>
      <point x="511" y="600"/>
      <point x="536" y="555" type="curve"/>
      <point x="569" y="578" type="line"/>
      <point x="538" y="628"/>
      <point x="488" y="671"/>
      <point x="413" y="671" type="curve" smooth="yes"/>
      <point x="194" y="671"/>
      <point x="71" y="447"/>
      <point x="71" y="248" type="curve" smooth="yes"/>
      <point x="71" y="95"/>
      <point x="147" y="-12"/>
    </contour>
  </outline>
</glyph>
<glyph name="H" format="1">
  <advance width="600"/>
  <unicode hex="0048"/>
  <outline>
    <contour>
      <point x="27" y="0" type="line"/>
      <point x="70" y="0" type="line"/>
      <point x="136" y="331" type="line"/>
      <point x="473" y="331" type="line"/>
      <point x="406" y="0" type="line"/>
      <point x="449" y="0" type="line"/>
      <point x="581" y="659" type="line"/>
      <point x="538" y="659" type="line"/>
      <point x="479" y="368" type="line"/>
      <point x="143" y="368" type="line"/>
      <point x="202" y="659" type="line"/>
      <point x="159" y="659" type="line"/>
    </contour>
    <contour>
      <point x="374" y="679" type="move" name="aboveUC"/>
    </contour>
    <contour>
      <point x="50" y="0" type="move" name="baseLC"/>
    </contour>
    <contour>
      <point x="234" y="-20" type="move" name="belowLC"/>
    </contour>
  </outline>
</glyph>
<glyph name="I" format="1">
  <advance width="600"/>
  <unicode hex="0049"/>
  <outline>
    <contour>
      <point x="374" y="681" type="move" name="aboveUC"/>
    </contour>
    <contour>
      <point x="215" y="0" type="move" name="ogonekUC"/>
    </contour>
    <contour>
      <point x="234" y="-22" type="move" name="belowLC"/>
    </contour>
    <contour>
      <point x="46" y="0" type="line"/>
      <point x="428" y="0" type="line"/>
      <point x="436" y="37" type="line"/>
      <point x="265" y="37" type="line"/>
      <point x="382" y="622" type="line"/>
      <point x="554" y="622" type="line"/>
      <point x="562" y="659" type="line"/>
      <point x="178" y="659" type="line"/>
      <point x="170" y="622" type="line"/>
      <point x="339" y="622" type="line"/>
      <point x="222" y="37" type="line"/>
      <point x="54" y="37" type="line"/>
    </contour>
  </outline>
</glyph>
<glyph name="J" format="1">
  <advance width="600"/>
  <unicode hex="004A"/>
  <outline>
    <contour>
      <point x="201" y="-12" type="curve" smooth="yes"/>
      <point x="334" y="-12"/>
      <point x="403" y="64"/>
      <point x="433" y="211" type="curve" smooth="yes"/>
      <point x="523" y="659" type="line"/>
      <point x="194" y="659" type="line"/>
      <point x="186" y="622" type="line"/>
      <point x="472" y="622" type="line"/>
      <point x="391" y="217" type="line" smooth="yes"/>
      <point x="366" y="90"/>
      <point x="309" y="25"/>
      <point x="205" y="25" type="curve" smooth="yes"/>
      <point x="139" y="25"/>
      <point x="94" y="56"/>
      <point x="63" y="108" type="curve"/>
      <point x="33" y="84" type="line"/>
      <point x="62" y="33"/>
      <point x="121" y="-12"/>
    </contour>
    <contour>
      <point x="363" y="679" type="move" name="aboveUC"/>
    </contour>
    <contour>
      <point x="222" y="-20" type="move" name="belowLC"/>
    </contour>
  </outline>
</glyph>
<glyph name="L" format="1">
  <advance width="600"/>
  <unicode hex="004C"/>
  <outline>
    <contour>
      <point x="119" y="0" type="line"/>
      <point x="506" y="0" type="line"/>
      <point x="514" y="37" type="line"/>
      <point x="170" y="37" type="line"/>
      <point x="293" y="659" type="line"/>
      <point x="250" y="659" type="line"/>
    </contour>
    <contour>
      <point x="279" y="679" type="move" name="aboveUC"/>
    </contour>
    <contour>
      <point x="207" y="332" type="move" name="center"/>
    </contour>
    <contour>
      <point x="326" y="0" type="move" name="baseLC"/>
    </contour>
    <contour>
      <point x="316" y="-20" type="move" name="belowLC"/>
    </contour>
  </outline>
</glyph>
<glyph name="M" format="1">
  <advance width="600"/>
  <unicode hex="004D"/>
  <outline>
    <contour>
      <point x="26" y="0" type="line"/>
      <point x="67" y="0" type="line"/>
      <point x="162" y="473" type="line" smooth="yes"/>
      <point x="170" y="512"/>
      <point x="177" y="565"/>
      <point x="184" y="610" type="curve"/>
      <point x="188" y="610" type="line"/>
      <point x="192" y="578"/>
      <point x="200" y="525"/>
      <point x="205" y="495" type="curve"/>
      <point x="254" y="180" type="line"/>
      <point x="293" y="180" type="line"/>
      <point x="473" y="496" type="line" smooth="yes"/>
      <point x="496" y="536"/>
      <point x="518" y="579"/>
      <point x="533" y="610" type="curve"/>
      <point x="537" y="610" type="line"/>
      <point x="525" y="566"/>
      <point x="511" y="513"/>
      <point x="503" y="470" type="curve"/>
      <point x="408" y="0" type="line"/>
      <point x="450" y="0" type="line"/>
      <point x="581" y="659" type="line"/>
      <point x="524" y="659" type="line"/>
      <point x="333" y="326" type="line"/>
      <point x="284" y="231" type="line"/>
      <point x="280" y="231" type="line"/>
      <point x="269" y="326" type="line"/>
      <point x="215" y="659" type="line"/>
      <point x="158" y="659" type="line"/>
    </contour>
    <contour>
      <point x="374" y="679" type="move" name="aboveUC"/>
    </contour>
    <contour>
      <point x="429" y="0" type="move" name="baseLC"/>
    </contour>
    <contour>
      <point x="234" y="-20" type="move" name="belowLC"/>
    </contour>
  </outline>
</glyph>
<glyph name="N" format="1">
  <advance width="600"/>
  <unicode hex="004E"/>
  <outline>
    <contour>
      <point x="33" y="0" type="line"/>
      <point x="75" y="0" type="line"/>
      <point x="156" y="414" type="line" smooth="yes"/>
      <point x="168" y="477"/>
      <point x="178" y="539"/>
      <point x="188" y="602" type="curve"/>
      <point x="192" y="602" type="line"/>
      <point x="236" y="470" type="line"/>
      <point x="402" y="0" type="line"/>
      <point x="446" y="0" type="line"/>
      <point x="578" y="659" type="line"/>
      <point x="536" y="659" type="line"/>
      <point x="455" y="244" type="line" smooth="yes"/>
      <point x="443" y="185"/>
      <point x="433" y="120"/>
      <point x="423" y="57" type="curve"/>
      <point x="419" y="57" type="line"/>
      <point x="376" y="189" type="line"/>
      <point x="210" y="659" type="line"/>
      <point x="165" y="659" type="line"/>
    </contour>
    <contour>
      <point x="378" y="679" type="move" name="aboveUC"/>
    </contour>
    <contour>
      <point x="426" y="0" type="move" name="baseLC"/>
    </contour>
    <contour>
      <point x="250" y="-20" type="move" name="belowLC"/>
    </contour>
  </outline>
</glyph>
<glyph name="O" format="1">
  <advance width="600"/>
  <unicode hex="004F"/>
  <outline>
    <contour>
      <point x="255" y="-12" type="curve" smooth="yes"/>
      <point x="451" y="-12"/>
      <point x="562" y="216"/>
      <point x="562" y="416" type="curve" smooth="yes"/>
      <point x="562" y="566"/>
      <point x="487" y="671"/>
      <point x="354" y="671" type="curve" smooth="yes"/>
      <point x="159" y="671"/>
      <point x="48" y="443"/>
      <point x="48" y="243" type="curve" smooth="yes"/>
      <point x="48" y="93"/>
      <point x="123" y="-12"/>
    </contour>
    <contour>
      <point x="259" y="25" type="curve" smooth="yes"/>
      <point x="146" y="25"/>
      <point x="91" y="115"/>
      <point x="91" y="245" type="curve" smooth="yes"/>
      <point x="91" y="418"/>
      <point x="184" y="634"/>
      <point x="351" y="634" type="curve" smooth="yes"/>
      <point x="464" y="634"/>
      <point x="519" y="544"/>
      <point x="519" y="414" type="curve" smooth="yes"/>
      <point x="519" y="241"/>
      <point x="426" y="25"/>
    </contour>
    <contour>
      <point x="374" y="679" type="move" name="aboveUC"/>
    </contour>
    <contour>
      <point x="366" y="649" type="move" name="hornLC"/>
    </contour>
    <contour>
      <point x="238" y="0" type="move" name="ogonekUC"/>
    </contour>
    <contour>
      <point x="238" y="0" type="move" name="baseLC"/>
    </contour>
    <contour>
      <point x="234" y="-20" type="move" name="belowLC"/>
    </contour>
  </outline>
</glyph>
<glyph name="P" format="1">
  <advance width="600"/>
  <unicode hex="0050"/>
  <outline>
    <contour>
      <point x="381" y="681" type="move" name="aboveUC"/>
    </contour>
    <contour>
      <point x="92" y="-22" type="move" name="belowLC"/>
    </contour>
    <contour>
      <point x="65" y="0" type="line"/>
      <point x="108" y="0" type="line"/>
      <point x="165" y="286" type="line"/>
      <point x="286" y="286" type="line" smooth="yes"/>
      <point x="455" y="286"/>
      <point x="565" y="358"/>
      <point x="565" y="506" type="curve" smooth="yes"/>
      <point x="565" y="613"/>
      <point x="490" y="659"/>
      <point x="369" y="659" type="curve" smooth="yes"/>
      <point x="197" y="659" type="line"/>
    </contour>
    <contour>
      <point x="172" y="322" type="line"/>
      <point x="232" y="623" type="line"/>
      <point x="350" y="623" type="line" smooth="yes"/>
      <point x="463" y="623"/>
      <point x="522" y="588"/>
      <point x="522" y="502" type="curve" smooth="yes"/>
      <point x="522" y="383"/>
      <point x="440" y="322"/>
      <point x="282" y="322" type="curve" smooth="yes"/>
    </contour>
  </outline>
</glyph>
<glyph name="Q" format="1">
  <advance width="600"/>
  <unicode hex="0051"/>
  <outline>
    <contour>
      <point x="255" y="-12" type="curve" smooth="yes"/>
      <point x="451" y="-12"/>
      <point x="562" y="216"/>
      <point x="562" y="416" type="curve" smooth="yes"/>
      <point x="562" y="566"/>
      <point x="487" y="671"/>
      <point x="354" y="671" type="curve" smooth="yes"/>
      <point x="159" y="671"/>
      <point x="48" y="443"/>
      <point x="48" y="243" type="curve" smooth="yes"/>
      <point x="48" y="93"/>
      <point x="123" y="-12"/>
    </contour>
    <contour>
      <point x="259" y="24" type="curve" smooth="yes"/>
      <point x="146" y="24"/>
      <point x="91" y="114"/>
      <point x="91" y="245" type="curve" smooth="yes"/>
      <point x="91" y="418"/>
      <point x="184" y="634"/>
      <point x="351" y="634" type="curve" smooth="yes"/>
      <point x="464" y="634"/>
      <point x="519" y="544"/>
      <point x="519" y="414" type="curve" smooth="yes"/>
      <point x="519" y="240"/>
      <point x="426" y="24"/>
    </contour>
    <contour>
      <point x="393" y="-154" type="curve" smooth="yes"/>
      <point x="428" y="-154"/>
      <point x="461" y="-147"/>
      <point x="487" y="-137" type="curve"/>
      <point x="477" y="-100" type="line"/>
      <point x="456" y="-110"/>
      <point x="430" y="-116"/>
      <point x="397" y="-116" type="curve" smooth="yes"/>
      <point x="320" y="-116"/>
      <point x="264" y="-73"/>
      <point x="252" y="3" type="curve"/>
      <point x="209" y="9" type="line"/>
      <point x="225" y="-104"/>
      <point x="301" y="-154"/>
    </contour>
    <contour>
      <point x="374" y="679" type="move" name="aboveUC"/>
    </contour>
  </outline>
</glyph>
<glyph name="S" format="1">
  <advance width="600"/>
  <unicode hex="0053"/>
  <outline>
    <contour>
      <point x="257" y="-12" type="curve" smooth="yes"/>
      <point x="379" y="-12"/>
      <point x="472" y="63"/>
      <point x="472" y="181" type="curve"/>
      <point x="472" y="255"/>
      <point x="430" y="301"/>
      <point x="367" y="337" type="curve" smooth="yes"/>
      <point x="283" y="387" type="line" smooth="yes"/>
      <point x="239" y="412"/>
      <point x="199" y="447"/>
      <point x="199" y="507" type="curve" smooth="yes"/>
      <point x="199" y="570"/>
      <point x="254" y="634"/>
      <point x="338" y="634" type="curve" smooth="yes"/>
      <point x="408" y="634"/>
      <point x="461" y="599"/>
      <point x="495" y="556" type="curve"/>
      <point x="525" y="581" type="line"/>
      <point x="489" y="630"/>
      <point x="425" y="671"/>
      <point x="344" y="671" type="curve" smooth="yes"/>
      <point x="232" y="671"/>
      <point x="155" y="593"/>
      <point x="155" y="502" type="curve" smooth="yes"/>
      <point x="155" y="430"/>
      <point x="205" y="383"/>
      <point x="260" y="351" type="curve" smooth="yes"/>
      <point x="344" y="301" type="line" smooth="yes"/>
      <point x="396" y="271"/>
      <point x="429" y="234"/>
      <point x="429" y="176" type="curve" smooth="yes"/>
      <point x="429" y="85"/>
      <point x="356" y="25"/>
      <point x="260" y="25" type="curve" smooth="yes"/>
      <point x="177" y="25"/>
      <point x="118" y="61"/>
      <point x="77" y="124" type="curve"/>
      <point x="45" y="100" type="line"/>
      <point x="89" y="30"/>
      <point x="161" y="-12"/>
    </contour>
    <contour>
      <point x="359" y="679" type="move" name="aboveUC"/>
    </contour>
    <contour>
      <point x="260" y="0" type="move" name="baseLC"/>
    </contour>
    <contour>
      <point x="260" y="-20" type="move" name="belowLC"/>
    </contour>
  </outline>
</glyph>
<glyph name="T" format="1">
	<unicode hex="0054"/>
	<advance width="600"/>
	<outline>
		<contour>
			<point x="216" y="0" type="line"/>
			<point x="259" y="0" type="line"/>
			<point x="382" y="620" type="line"/>
			<point x="612" y="620" type="line"/>
			<point x="620" y="659" type="line"/>
			<point x="118" y="659" type="line"/>
			<point x="110" y="620" type="line"/>
			<point x="339" y="620" type="line"/>
		</contour>
		<contour>
			<point name="aboveUC" x="374" y="679" type="move"/>
		</contour>
		<contour>
			<point name="baseLC" x="238" y="0" type="move"/>
		</contour>
		<contour>
			<point name="belowLC" x="234" y="-20" type="move"/>
		</contour>
	</outline>
</glyph>
<glyph name="U" format="1">
  <advance width="600"/>
  <unicode hex="0055"/>
  <outline>
    <contour>
      <point x="374" y="681" type="move" name="aboveUC"/>
    </contour>
    <contour>
      <point x="454" y="669" type="move" name="hornLC"/>
    </contour>
    <contour>
      <point x="240" y="0" type="move" name="ogonekUC"/>
    </contour>
    <contour>
      <point x="234" y="-22" type="move" name="belowLC"/>
    </contour>
    <contour>
      <point x="259" y="-12" type="curve" smooth="yes"/>
      <point x="364" y="-12"/>
      <point x="460" y="51"/>
      <point x="496" y="234" type="curve" smooth="yes"/>
      <point x="581" y="659" type="line"/>
      <point x="539" y="659" type="line"/>
      <point x="456" y="242" type="line" smooth="yes"/>
      <point x="425" y="84"/>
      <point x="347" y="25"/>
      <point x="264" y="25" type="curve" smooth="yes"/>
      <point x="164" y="25"/>
      <point x="114" y="86"/>
      <point x="114" y="191" type="curve" smooth="yes"/>
      <point x="114" y="215"/>
      <point x="116" y="240"/>
      <point x="124" y="272" type="curve" smooth="yes"/>
      <point x="201" y="659" type="line"/>
      <point x="158" y="659" type="line"/>
      <point x="79" y="267" type="line" smooth="yes"/>
      <point x="73" y="234"/>
      <point x="71" y="209"/>
      <point x="71" y="183" type="curve" smooth="yes"/>
      <point x="71" y="60"/>
      <point x="140" y="-12"/>
    </contour>
  </outline>
</glyph>
<glyph name="V" format="1">
  <advance width="600"/>
  <unicode hex="0056"/>
  <outline>
    <contour>
      <point x="373" y="681" type="move" name="aboveUC"/>
    </contour>
    <contour>
      <point x="234" y="-22" type="move" name="belowLC"/>
    </contour>
    <contour>
      <point x="213" y="0" type="line"/>
      <point x="263" y="0" type="line"/>
      <point x="621" y="659" type="line"/>
      <point x="576" y="659" type="line"/>
      <point x="366" y="269" type="line" smooth="yes"/>
      <point x="330" y="201"/>
      <point x="286" y="119"/>
      <point x="250" y="48" type="curve"/>
      <point x="246" y="48" type="line"/>
      <point x="238" y="122"/>
      <point x="231" y="197"/>
      <point x="224" y="270" type="curve" smooth="yes"/>
      <point x="185" y="659" type="line"/>
      <point x="143" y="659" type="line"/>
    </contour>
  </outline>
</glyph>
<glyph name="W" format="1">
  <advance width="600"/>
  <unicode hex="0057"/>
  <outline>
    <contour>
      <point x="373" y="681" type="move" name="aboveUC"/>
    </contour>
    <contour>
      <point x="235" y="-22" type="move" name="belowLC"/>
    </contour>
    <contour>
      <point x="71" y="0" type="line"/>
      <point x="130" y="0" type="line"/>
      <point x="270" y="303" type="line" smooth="yes"/>
      <point x="288" y="342"/>
      <point x="309" y="393"/>
      <point x="319" y="422" type="curve"/>
      <point x="324" y="422" type="line"/>
      <point x="326" y="394"/>
      <point x="330" y="342"/>
      <point x="335" y="304" type="curve" smooth="yes"/>
      <point x="369" y="0" type="line"/>
      <point x="427" y="0" type="line"/>
      <point x="632" y="659" type="line"/>
      <point x="592" y="659" type="line"/>
      <point x="439" y="164" type="line" smooth="yes"/>
      <point x="438" y="159"/>
      <point x="407" y="43"/>
      <point x="405" y="38" type="curve"/>
      <point x="400" y="38" type="line"/>
      <point x="397" y="78"/>
      <point x="387" y="170"/>
      <point x="381" y="221" type="curve" smooth="yes"/>
      <point x="350" y="469" type="line"/>
      <point x="309" y="469" type="line"/>
      <point x="165" y="159" type="line" smooth="yes"/>
      <point x="163" y="154"/>
      <point x="114" y="38"/>
      <point x="112" y="33" type="curve"/>
      <point x="108" y="33" type="line"/>
      <point x="109" y="38"/>
      <point x="114" y="89"/>
      <point x="117" y="158" type="curve" smooth="yes"/>
      <point x="145" y="659" type="line"/>
      <point x="104" y="659" type="line"/>
    </contour>
  </outline>
</glyph>
<glyph name="X" format="1">
  <advance width="600"/>
  <unicode hex="0058"/>
  <outline>
    <contour>
      <point x="373" y="681" type="move" name="aboveUC"/>
    </contour>
    <contour>
      <point x="236" y="-22" type="move" name="belowLC"/>
    </contour>
    <contour>
      <point x="221" y="205" type="line"/>
      <point x="243" y="235"/>
      <point x="269" y="270"/>
      <point x="295" y="307" type="curve"/>
      <point x="299" y="307" type="line"/>
      <point x="310" y="280"/>
      <point x="329" y="228"/>
      <point x="339" y="205" type="curve" smooth="yes"/>
      <point x="425" y="0" type="line"/>
      <point x="469" y="0" type="line"/>
      <point x="330" y="337" type="line"/>
      <point x="586" y="659" type="line"/>
      <point x="537" y="659" type="line"/>
      <point x="380" y="461" type="line" smooth="yes"/>
      <point x="366" y="444"/>
      <point x="333" y="399"/>
      <point x="312" y="369" type="curve"/>
      <point x="308" y="369" type="line"/>
      <point x="300" y="394"/>
      <point x="286" y="433"/>
      <point x="274" y="462" type="curve" smooth="yes"/>
      <point x="193" y="659" type="line"/>
      <point x="147" y="659" type="line"/>
      <point x="278" y="345" type="line"/>
      <point x="12" y="0" type="line"/>
      <point x="60" y="0" type="line"/>
    </contour>
  </outline>
</glyph>
<glyph name="Z" format="1">
  <advance width="600"/>
  <unicode hex="005A"/>
  <outline>
    <contour>
      <point x="76" y="22" type="line"/>
      <point x="573" y="633" type="line"/>
      <point x="579" y="659" type="line"/>
      <point x="143" y="659" type="line"/>
      <point x="135" y="623" type="line"/>
      <point x="543" y="623" type="line"/>
      <point x="528" y="642" type="line"/>
      <point x="28" y="25" type="line"/>
      <point x="22" y="0" type="line"/>
      <point x="481" y="0" type="line"/>
      <point x="489" y="37" type="line"/>
      <point x="63" y="37" type="line"/>
    </contour>
    <contour>
      <point x="360" y="679" type="move" name="aboveUC"/>
    </contour>
    <contour>
      <point x="269" y="-20" type="move" name="belowLC"/>
    </contour>
  </outline>
</glyph>
<glyph name="bracketleft" format="1">
	<unicode hex="005B"/>
	<advance width="600"/>
	<outline>
		<contour>
			<point x="138" y="-152" type="line"/>
			<point x="400" y="-152" type="line"/>
			<point x="405" y="-124" type="line"/>
			<point x="179" y="-124" type="line"/>
			<point x="338" y="680" type="line"/>
			<point x="565" y="680" type="line"/>
			<point x="570" y="708" type="line"/>
			<point x="310" y="708" type="line"/>
		</contour>
	</outline>
</glyph>
<glyph name="backslash" format="1">
	<unicode hex="005C"/>
	<advance width="600"/>
	<outline>
		<contour>
			<point x="356" y="-160" type="line"/>
			<point x="393" y="-160" type="line"/>
			<point x="241" y="710" type="line"/>
			<point x="204" y="710" type="line"/>
		</contour>
	</outline>
</glyph>
<glyph name="asciicircum" format="1">
  <advance width="600"/>
  <unicode hex="005E"/>
  <outline>
    <contour>
      <point x="69" y="290" type="line"/>
      <point x="109" y="290" type="line"/>
      <point x="188" y="497" type="line"/>
      <point x="239" y="629" type="line"/>
      <point x="243" y="629" type="line"/>
      <point x="294" y="497" type="line"/>
      <point x="373" y="290" type="line"/>
      <point x="413" y="290" type="line"/>
      <point x="263" y="670" type="line"/>
      <point x="219" y="670" type="line"/>
    </contour>
  </outline>
</glyph>
<glyph name="underscore" format="1">
  <advance width="600"/>
  <unicode hex="005F"/>
  <outline>
    <contour>
      <point x="-26" y="-124" type="line"/>
      <point x="454" y="-124" type="line"/>
      <point x="463" y="-80" type="line"/>
      <point x="-17" y="-80" type="line"/>
    </contour>
  </outline>
</glyph>
<glyph name="a" format="1">
  <advance width="600"/>
  <unicode hex="0061"/>
  <outline>
    <contour>
      <point x="231" y="-12" type="curve" smooth="yes"/>
      <point x="298" y="-12"/>
      <point x="365" y="25"/>
      <point x="418" y="77" type="curve"/>
      <point x="422" y="77" type="line"/>
      <point x="411" y="0" type="line"/>
      <point x="446" y="0" type="line"/>
      <point x="542" y="480" type="line"/>
      <point x="508" y="480" type="line"/>
      <point x="489" y="414" type="line"/>
      <point x="485" y="414" type="line"/>
      <point x="456" y="461"/>
      <point x="401" y="492"/>
      <point x="330" y="492" type="curve" smooth="yes"/>
      <point x="178" y="492"/>
      <point x="62" y="341"/>
      <point x="62" y="171" type="curve" smooth="yes"/>
      <point x="62" y="51"/>
      <point x="130" y="-12"/>
    </contour>
    <contour>
      <point x="239" y="24" type="curve" smooth="yes"/>
      <point x="157" y="24"/>
      <point x="104" y="74"/>
      <point x="104" y="179" type="curve" smooth="yes"/>
      <point x="104" y="319"/>
      <point x="202" y="456"/>
      <point x="331" y="456" type="curve" smooth="yes"/>
      <point x="387" y="456"/>
      <point x="439" y="431"/>
      <point x="480" y="369" type="curve"/>
      <point x="430" y="129" type="line"/>
      <point x="369" y="62"/>
      <point x="300" y="24"/>
    </contour>
    <contour>
      <point x="407" y="0" type="move" name="ogonekLC"/>
    </contour>
    <contour>
      <point x="357" y="502" type="move" name="aboveLC"/>
    </contour>
    <contour>
      <point x="427" y="0" type="move" name="baseLC"/>
    </contour>
    <contour>
      <point x="248" y="-20" type="move" name="belowLC"/>
    </contour>
  </outline>
</glyph>
<glyph name="b" format="1">
  <advance width="600"/>
  <unicode hex="0062"/>
  <outline>
    <contour>
      <point x="260" y="-12" type="curve" smooth="yes"/>
      <point x="418" y="-12"/>
      <point x="528" y="127"/>
      <point x="528" y="300" type="curve" smooth="yes"/>
      <point x="528" y="424"/>
      <point x="461" y="492"/>
      <point x="358" y="492" type="curve" smooth="yes"/>
      <point x="289" y="492"/>
      <point x="222" y="448"/>
      <point x="171" y="403" type="curve"/>
      <point x="167" y="403" type="line"/>
      <point x="190" y="510" type="line"/>
      <point x="232" y="719" type="line"/>
      <point x="191" y="719" type="line"/>
      <point x="48" y="0" type="line"/>
      <point x="82" y="0" type="line"/>
      <point x="99" y="66" type="line"/>
      <point x="103" y="66" type="line"/>
      <point x="136" y="21"/>
      <point x="191" y="-12"/>
    </contour>
    <contour>
      <point x="259" y="24" type="curve" smooth="yes"/>
      <point x="204" y="24"/>
      <point x="153" y="45"/>
      <point x="110" y="107" type="curve"/>
      <point x="160" y="355" type="line"/>
      <point x="219" y="414"/>
      <point x="293" y="456"/>
      <point x="350" y="456" type="curve" smooth="yes"/>
      <point x="433" y="456"/>
      <point x="486" y="401"/>
      <point x="486" y="293" type="curve" smooth="yes"/>
      <point x="486" y="151"/>
      <point x="392" y="24"/>
    </contour>
    <contour>
      <point x="211" y="739" type="move" name="aboveUC"/>
    </contour>
    <contour>
      <point x="258" y="-20" type="move" name="belowLC"/>
    </contour>
  </outline>
</glyph>
<glyph name="c" format="1">
  <advance width="600"/>
  <unicode hex="0063"/>
  <outline>
    <contour>
      <point x="287" y="-12" type="curve" smooth="yes"/>
      <point x="357" y="-12"/>
      <point x="433" y="21"/>
      <point x="485" y="69" type="curve"/>
      <point x="463" y="98" type="line"/>
      <point x="415" y="54"/>
      <point x="352" y="24"/>
      <point x="292" y="24" type="curve" smooth="yes"/>
      <point x="185" y="24"/>
      <point x="112" y="85"/>
      <point x="112" y="207" type="curve" smooth="yes"/>
      <point x="112" y="346"/>
      <point x="234" y="456"/>
      <point x="349" y="456" type="curve" smooth="yes"/>
      <point x="423" y="456"/>
      <point x="470" y="431"/>
      <point x="507" y="382" type="curve"/>
      <point x="536" y="407" type="line"/>
      <point x="502" y="453"/>
      <point x="441" y="492"/>
      <point x="359" y="492" type="curve" smooth="yes"/>
      <point x="211" y="492"/>
      <point x="71" y="374"/>
      <point x="71" y="201" type="curve" smooth="yes"/>
      <point x="71" y="60"/>
      <point x="161" y="-12"/>
    </contour>
    <contour>
      <point x="357" y="502" type="move" name="aboveLC"/>
    </contour>
    <contour>
      <point x="271" y="0" type="move" name="baseLC"/>
    </contour>
    <contour>
      <point x="267" y="-20" type="move" name="belowLC"/>
    </contour>
  </outline>
</glyph>
<glyph name="d" format="1">
  <advance width="600"/>
  <unicode hex="0064"/>
  <outline>
    <contour>
      <point x="231" y="-12" type="curve" smooth="yes"/>
      <point x="298" y="-12"/>
      <point x="365" y="25"/>
      <point x="418" y="77" type="curve"/>
      <point x="422" y="77" type="line"/>
      <point x="411" y="0" type="line"/>
      <point x="446" y="0" type="line"/>
      <point x="591" y="719" type="line"/>
      <point x="550" y="719" type="line"/>
      <point x="508" y="510" type="line"/>
      <point x="489" y="415" type="line"/>
      <point x="485" y="415" type="line"/>
      <point x="455" y="461"/>
      <point x="401" y="492"/>
      <point x="330" y="492" type="curve" smooth="yes"/>
      <point x="178" y="492"/>
      <point x="62" y="341"/>
      <point x="62" y="171" type="curve" smooth="yes"/>
      <point x="62" y="51"/>
      <point x="130" y="-12"/>
    </contour>
    <contour>
      <point x="239" y="24" type="curve" smooth="yes"/>
      <point x="157" y="24"/>
      <point x="104" y="74"/>
      <point x="104" y="179" type="curve" smooth="yes"/>
      <point x="104" y="319"/>
      <point x="202" y="456"/>
      <point x="331" y="456" type="curve" smooth="yes"/>
      <point x="387" y="456"/>
      <point x="439" y="431"/>
      <point x="480" y="369" type="curve"/>
      <point x="430" y="129" type="line"/>
      <point x="369" y="62"/>
      <point x="300" y="24"/>
    </contour>
    <contour>
      <point x="567" y="739" type="move" name="aboveUC"/>
    </contour>
    <contour>
      <point x="248" y="-20" type="move" name="belowLC"/>
    </contour>
  </outline>
</glyph>
<glyph name="e" format="1">
  <advance width="600"/>
  <unicode hex="0065"/>
  <outline>
    <contour>
      <point x="346" y="0" type="move" name="ogonekLC"/>
    </contour>
    <contour>
      <point x="349" y="502" type="move" name="aboveLC"/>
    </contour>
    <contour>
      <point x="256" y="-22" type="move" name="belowLC"/>
    </contour>
    <contour>
      <point x="271" y="-12" type="curve" smooth="yes"/>
      <point x="355" y="-12"/>
      <point x="429" y="25"/>
      <point x="473" y="63" type="curve"/>
      <point x="453" y="93" type="line"/>
      <point x="408" y="54"/>
      <point x="345" y="24"/>
      <point x="277" y="24" type="curve" smooth="yes"/>
      <point x="174" y="24"/>
      <point x="114" y="92"/>
      <point x="114" y="195" type="curve" smooth="yes"/>
      <point x="114" y="345"/>
      <point x="227" y="457"/>
      <point x="339" y="457" type="curve" smooth="yes"/>
      <point x="426" y="457"/>
      <point x="479" y="400"/>
      <point x="479" y="313" type="curve" smooth="yes"/>
      <point x="479" y="297"/>
      <point x="477" y="279"/>
      <point x="473" y="264" type="curve"/>
      <point x="500" y="272" type="line"/>
      <point x="113" y="272" type="line"/>
      <point x="106" y="238" type="line"/>
      <point x="508" y="238" type="line"/>
      <point x="512" y="249"/>
      <point x="518" y="279"/>
      <point x="518" y="310" type="curve" smooth="yes"/>
      <point x="518" y="414"/>
      <point x="457" y="492"/>
      <point x="343" y="492" type="curve" smooth="yes"/>
      <point x="200" y="492"/>
      <point x="72" y="365"/>
      <point x="72" y="192" type="curve" smooth="yes"/>
      <point x="72" y="64"/>
      <point x="147" y="-12"/>
    </contour>
  </outline>
</glyph>
<glyph name="f" format="1">
  <advance width="600"/>
  <unicode hex="0066"/>
  <outline>
    <contour>
      <point x="184" y="0" type="line"/>
      <point x="226" y="0" type="line"/>
      <point x="336" y="549" type="line" smooth="yes"/>
      <point x="357" y="654"/>
      <point x="415" y="695"/>
      <point x="493" y="695" type="curve" smooth="yes"/>
      <point x="535" y="695"/>
      <point x="570" y="680"/>
      <point x="601" y="655" type="curve"/>
      <point x="624" y="683" type="line"/>
      <point x="590" y="712"/>
      <point x="544" y="731"/>
      <point x="494" y="731" type="curve" smooth="yes"/>
      <point x="395" y="731"/>
      <point x="321" y="682"/>
      <point x="295" y="553" type="curve" smooth="yes"/>
    </contour>
    <contour>
      <point x="130" y="444" type="line"/>
      <point x="537" y="444" type="line"/>
      <point x="545" y="480" type="line"/>
      <point x="281" y="480" type="line"/>
      <point x="136" y="476" type="line"/>
    </contour>
    <contour>
      <point x="475" y="739" type="move" name="aboveUC"/>
    </contour>
    <contour>
      <point x="202" y="0" type="move" name="baseLC"/>
    </contour>
    <contour>
      <point x="210" y="-20" type="move" name="belowLC"/>
    </contour>
  </outline>
</glyph>
<glyph name="g" format="1">
  <advance width="600"/>
  <unicode hex="0067"/>
  <outline>
    <contour>
      <point x="197" y="-229" type="curve" smooth="yes"/>
      <point x="318" y="-229"/>
      <point x="412" y="-170"/>
      <point x="437" y="-45" type="curve" smooth="yes"/>
      <point x="542" y="480" type="line"/>
      <point x="508" y="480" type="line"/>
      <point x="489" y="414" type="line"/>
      <point x="485" y="414" type="line"/>
      <point x="456" y="461"/>
      <point x="401" y="492"/>
      <point x="330" y="492" type="curve" smooth="yes"/>
      <point x="178" y="492"/>
      <point x="63" y="345"/>
      <point x="63" y="177" type="curve" smooth="yes"/>
      <point x="63" y="60"/>
      <point x="131" y="-3"/>
      <point x="233" y="-3" type="curve" smooth="yes"/>
      <point x="299" y="-3"/>
      <point x="366" y="33"/>
      <point x="418" y="83" type="curve"/>
      <point x="422" y="83" type="line"/>
      <point x="399" y="-36" type="line" smooth="yes"/>
      <point x="378" y="-140"/>
      <point x="303" y="-193"/>
      <point x="201" y="-193" type="curve" smooth="yes"/>
      <point x="145" y="-193"/>
      <point x="86" y="-175"/>
      <point x="46" y="-141" type="curve"/>
      <point x="23" y="-172" type="line"/>
      <point x="64" y="-205"/>
      <point x="123" y="-229"/>
    </contour>
    <contour>
      <point x="240" y="33" type="curve" smooth="yes"/>
      <point x="157" y="33"/>
      <point x="105" y="82"/>
      <point x="105" y="185" type="curve" smooth="yes"/>
      <point x="105" y="323"/>
      <point x="203" y="456"/>
      <point x="331" y="456" type="curve" smooth="yes"/>
      <point x="388" y="456"/>
      <point x="439" y="431"/>
      <point x="480" y="369" type="curve"/>
      <point x="430" y="135" type="line"/>
      <point x="370" y="71"/>
      <point x="301" y="33"/>
    </contour>
    <contour>
      <point x="357" y="502" type="move" name="aboveLC"/>
    </contour>
    <contour>
      <point x="220" y="-227" type="move" name="belowLC"/>
    </contour>
  </outline>
</glyph>
<glyph name="h" format="1">
  <advance width="600"/>
  <unicode hex="0068"/>
  <outline>
    <contour>
      <point x="48" y="0" type="line"/>
      <point x="89" y="0" type="line"/>
      <point x="154" y="321" type="line"/>
      <point x="232" y="404"/>
      <point x="308" y="455"/>
      <point x="387" y="455" type="curve" smooth="yes"/>
      <point x="447" y="455"/>
      <point x="480" y="423"/>
      <point x="480" y="367" type="curve" smooth="yes"/>
      <point x="480" y="340"/>
      <point x="476" y="317"/>
      <point x="470" y="288" type="curve" smooth="yes"/>
      <point x="412" y="0" type="line"/>
      <point x="453" y="0" type="line"/>
      <point x="511" y="292" type="line" smooth="yes"/>
      <point x="517" y="320"/>
      <point x="521" y="344"/>
      <point x="521" y="375" type="curve" smooth="yes"/>
      <point x="521" y="443"/>
      <point x="486" y="492"/>
      <point x="398" y="492" type="curve" smooth="yes"/>
      <point x="302" y="492"/>
      <point x="231" y="436"/>
      <point x="165" y="374" type="curve"/>
      <point x="161" y="374" type="line"/>
      <point x="173" y="424" type="line"/>
      <point x="232" y="719" type="line"/>
      <point x="191" y="719" type="line"/>
    </contour>
    <contour>
      <point x="212" y="739" type="move" name="aboveUC"/>
    </contour>
    <contour>
      <point x="68" y="0" type="move" name="baseLC"/>
    </contour>
    <contour>
      <point x="257" y="-20" type="move" name="belowLC"/>
    </contour>
  </outline>
</glyph>
<glyph name="i" format="1">
  <advance width="600"/>
  <unicode hex="0069"/>
  <outline>
    <contour>
      <point x="376" y="0" type="move" name="ogonekLC"/>
    </contour>
    <contour>
      <point x="299" y="682" type="move" name="aboveLC"/>
    </contour>
    <contour>
      <point x="345" y="-22" type="move" name="belowLC"/>
    </contour>
    <component base="dotaccentcmb" xOffset="-18"/>
    <component base="dotlessi"/>
  </outline>
</glyph>
<glyph name="j" format="1">
  <advance width="600"/>
  <unicode hex="006A"/>
  <outline>
    <contour>
      <point x="308" y="682" type="move" name="aboveLC"/>
    </contour>
    <contour>
      <point x="173" y="-225" type="move" name="belowLC"/>
    </contour>
    <component base="dotlessj"/>
    <component base="dotaccentcmb" xOffset="53"/>
  </outline>
</glyph>
<glyph name="k" format="1">
  <advance width="600"/>
  <unicode hex="006B"/>
  <outline>
    <contour>
      <point x="66" y="0" type="line"/>
      <point x="107" y="0" type="line"/>
      <point x="134" y="134" type="line"/>
      <point x="324" y="280" type="line"/>
      <point x="571" y="480" type="line"/>
      <point x="517" y="480" type="line"/>
      <point x="150" y="190" type="line"/>
      <point x="146" y="190" type="line"/>
      <point x="251" y="719" type="line"/>
      <point x="209" y="719" type="line"/>
    </contour>
    <contour>
      <point x="304" y="274" type="line"/>
      <point x="455" y="0" type="line"/>
      <point x="499" y="0" type="line"/>
      <point x="335" y="299" type="line"/>
    </contour>
    <contour>
      <point x="228" y="738" type="move" name="aboveUC"/>
    </contour>
    <contour>
      <point x="283" y="-20" type="move" name="belowLC"/>
    </contour>
  </outline>
</glyph>
<glyph name="l" format="1">
  <advance width="600"/>
  <unicode hex="006C"/>
  <outline>
    <contour>
      <point x="324" y="-12" type="curve" smooth="yes"/>
      <point x="368" y="-12"/>
      <point x="410" y="0"/>
      <point x="449" y="20" type="curve"/>
      <point x="436" y="53" type="line"/>
      <point x="399" y="34"/>
      <point x="366" y="24"/>
      <point x="333" y="24" type="curve" smooth="yes"/>
      <point x="281" y="24"/>
      <point x="250" y="49"/>
      <point x="250" y="106" type="curve" smooth="yes"/>
      <point x="250" y="121"/>
      <point x="252" y="138"/>
      <point x="256" y="155" type="curve" smooth="yes"/>
      <point x="370" y="719" type="line"/>
      <point x="157" y="719" type="line"/>
      <point x="149" y="684" type="line"/>
      <point x="323" y="684" type="line"/>
      <point x="214" y="150" type="line" smooth="yes"/>
      <point x="209" y="131"/>
      <point x="207" y="116"/>
      <point x="207" y="102" type="curve" smooth="yes"/>
      <point x="207" y="25"/>
      <point x="257" y="-12"/>
    </contour>
    <contour>
      <point x="346" y="739" type="move" name="aboveUC"/>
    </contour>
    <contour>
      <point x="286" y="396" type="move" name="center"/>
    </contour>
    <contour>
      <point x="329" y="0" type="move" name="baseLC"/>
    </contour>
    <contour>
      <point x="328" y="-20" type="move" name="belowLC"/>
    </contour>
  </outline>
</glyph>
<glyph name="m" format="1">
	<unicode hex="006D"/>
	<advance width="600"/>
	<outline>
		<contour>
			<point x="12" y="0" type="line"/>
			<point x="53" y="0" type="line"/>
			<point x="124" y="359" type="line"/>
			<point x="171" y="423"/>
			<point x="208" y="455"/>
			<point x="254" y="455" type="curve" smooth="yes"/>
			<point x="285" y="455"/>
			<point x="301" y="439"/>
			<point x="301" y="398" type="curve" smooth="yes"/>
			<point x="301" y="384"/>
			<point x="300" y="370"/>
			<point x="296" y="351" type="curve" smooth="yes"/>
			<point x="225" y="0" type="line"/>
			<point x="266" y="0" type="line"/>
			<point x="338" y="359" type="line"/>
			<point x="382" y="423"/>
			<point x="423" y="455"/>
			<point x="468" y="455" type="curve" smooth="yes"/>
			<point x="498" y="455"/>
			<point x="514" y="439"/>
			<point x="514" y="398" type="curve" smooth="yes"/>
			<point x="514" y="384"/>
			<point x="512" y="370"/>
			<point x="509" y="351" type="curve" smooth="yes"/>
			<point x="439" y="0" type="line"/>
			<point x="480" y="0" type="line"/>
			<point x="550" y="352" type="line" smooth="yes"/>
			<point x="555" y="378"/>
			<point x="556" y="393"/>
			<point x="556" y="409" type="curve" smooth="yes"/>
			<point x="556" y="467"/>
			<point x="528" y="492"/>
			<point x="482" y="492" type="curve" smooth="yes"/>
			<point x="438" y="492"/>
			<point x="387" y="468"/>
			<point x="329" y="394" type="curve"/>
			<point x="341" y="407" type="line"/>
			<point x="341" y="468"/>
			<point x="313" y="492"/>
			<point x="268" y="492" type="curve" smooth="yes"/>
			<point x="222" y="492"/>
			<point x="179" y="467"/>
			<point x="135" y="413" type="curve"/>
			<point x="132" y="413" type="line"/>
			<point x="141" y="480" type="line"/>
			<point x="108" y="480" type="line"/>
		</contour>
		<contour>
			<point name="aboveLC" x="350" y="500" type="move"/>
		</contour>
		<contour>
			<point name="baseLC" x="457" y="0" type="move"/>
		</contour>
		<contour>
			<point name="belowLC" x="241" y="-20" type="move"/>
		</contour>
	</outline>
</glyph>
<glyph name="n" format="1">
  <advance width="600"/>
  <unicode hex="006E"/>
  <outline>
    <contour>
      <point x="48" y="0" type="line"/>
      <point x="89" y="0" type="line"/>
      <point x="154" y="321" type="line"/>
      <point x="232" y="404"/>
      <point x="308" y="455"/>
      <point x="387" y="455" type="curve" smooth="yes"/>
      <point x="447" y="455"/>
      <point x="480" y="423"/>
      <point x="480" y="367" type="curve" smooth="yes"/>
      <point x="480" y="340"/>
      <point x="476" y="317"/>
      <point x="470" y="288" type="curve" smooth="yes"/>
      <point x="412" y="0" type="line"/>
      <point x="453" y="0" type="line"/>
      <point x="511" y="292" type="line" smooth="yes"/>
      <point x="517" y="320"/>
      <point x="521" y="344"/>
      <point x="521" y="375" type="curve" smooth="yes"/>
      <point x="521" y="443"/>
      <point x="486" y="492"/>
      <point x="398" y="492" type="curve" smooth="yes"/>
      <point x="302" y="492"/>
      <point x="230" y="435"/>
      <point x="166" y="373" type="curve"/>
      <point x="162" y="373" type="line"/>
      <point x="178" y="480" type="line"/>
      <point x="144" y="480" type="line"/>
    </contour>
    <contour>
      <point x="350" y="502" type="move" name="aboveLC"/>
    </contour>
    <contour>
      <point x="431" y="0" type="move" name="baseLC"/>
    </contour>
    <contour>
      <point x="257" y="-20" type="move" name="belowLC"/>
    </contour>
  </outline>
</glyph>
<glyph name="o" format="1">
  <advance width="600"/>
  <unicode hex="006F"/>
  <outline>
    <contour>
      <point x="247" y="-12" type="curve" smooth="yes"/>
      <point x="395" y="-12"/>
      <point x="521" y="119"/>
      <point x="521" y="284" type="curve" smooth="yes"/>
      <point x="521" y="406"/>
      <point x="449" y="492"/>
      <point x="327" y="492" type="curve" smooth="yes"/>
      <point x="179" y="492"/>
      <point x="53" y="362"/>
      <point x="53" y="196" type="curve" smooth="yes"/>
      <point x="53" y="74"/>
      <point x="125" y="-12"/>
    </contour>
    <contour>
      <point x="250" y="24" type="curve" smooth="yes"/>
      <point x="152" y="24"/>
      <point x="95" y="94"/>
      <point x="95" y="202" type="curve" smooth="yes"/>
      <point x="95" y="339"/>
      <point x="203" y="456"/>
      <point x="324" y="456" type="curve" smooth="yes"/>
      <point x="423" y="456"/>
      <point x="480" y="386"/>
      <point x="480" y="279" type="curve" smooth="yes"/>
      <point x="480" y="141"/>
      <point x="371" y="24"/>
    </contour>
    <contour>
      <point x="350" y="480" type="move" name="hornLC"/>
    </contour>
    <contour>
      <point x="338" y="502" type="move" name="aboveLC"/>
    </contour>
    <contour>
      <point x="238" y="0" type="move" name="ogonekLC"/>
    </contour>
    <contour>
      <point x="238" y="0" type="move" name="baseLC"/>
    </contour>
    <contour>
      <point x="234" y="-20" type="move" name="belowLC"/>
    </contour>
  </outline>
</glyph>
<glyph name="q" format="1">
  <advance width="600"/>
  <unicode hex="0071"/>
  <outline>
    <contour>
      <point x="362" y="-217" type="line"/>
      <point x="403" y="-217" type="line"/>
      <point x="542" y="480" type="line"/>
      <point x="508" y="480" type="line"/>
      <point x="489" y="414" type="line"/>
      <point x="485" y="414" type="line"/>
      <point x="456" y="461"/>
      <point x="401" y="492"/>
      <point x="330" y="492" type="curve" smooth="yes"/>
      <point x="178" y="492"/>
      <point x="62" y="341"/>
      <point x="62" y="171" type="curve" smooth="yes"/>
      <point x="62" y="51"/>
      <point x="130" y="-12"/>
      <point x="231" y="-12" type="curve" smooth="yes"/>
      <point x="298" y="-12"/>
      <point x="365" y="25"/>
      <point x="418" y="77" type="curve"/>
      <point x="422" y="77" type="line"/>
      <point x="420" y="72"/>
      <point x="397" y="-40"/>
      <point x="397" y="-43" type="curve" smooth="yes"/>
    </contour>
    <contour>
      <point x="239" y="24" type="curve" smooth="yes"/>
      <point x="157" y="24"/>
      <point x="104" y="74"/>
      <point x="104" y="179" type="curve" smooth="yes"/>
      <point x="104" y="319"/>
      <point x="202" y="456"/>
      <point x="331" y="456" type="curve" smooth="yes"/>
      <point x="387" y="456"/>
      <point x="439" y="431"/>
      <point x="480" y="369" type="curve"/>
      <point x="430" y="129" type="line"/>
      <point x="369" y="62"/>
      <point x="300" y="24"/>
    </contour>
    <contour>
      <point x="357" y="502" type="move" name="aboveLC"/>
    </contour>
    <contour>
      <point x="378" y="-227" type="move" name="belowLC"/>
    </contour>
  </outline>
</glyph>
<glyph name="r" format="1">
  <advance width="600"/>
  <unicode hex="0072"/>
  <outline>
    <contour>
      <point x="375" y="502" type="move" name="aboveLC"/>
    </contour>
    <contour>
      <point x="132" y="-22" type="move" name="belowLC"/>
    </contour>
    <contour>
      <point x="111" y="0" type="line"/>
      <point x="152" y="0" type="line"/>
      <point x="207" y="273" type="line"/>
      <point x="279" y="378"/>
      <point x="359" y="453"/>
      <point x="440" y="453" type="curve" smooth="yes"/>
      <point x="475" y="453"/>
      <point x="499" y="447"/>
      <point x="524" y="430" type="curve"/>
      <point x="544" y="465" type="line"/>
      <point x="519" y="482"/>
      <point x="488" y="492"/>
      <point x="446" y="492" type="curve" smooth="yes"/>
      <point x="356" y="492"/>
      <point x="277" y="417"/>
      <point x="221" y="338" type="curve"/>
      <point x="217" y="338" type="line"/>
      <point x="242" y="480" type="line"/>
      <point x="207" y="480" type="line"/>
    </contour>
  </outline>
</glyph>
<glyph name="s" format="1">
  <advance width="600"/>
  <unicode hex="0073"/>
  <outline>
    <contour>
      <point x="272" y="-12" type="curve" smooth="yes"/>
      <point x="379" y="-12"/>
      <point x="466" y="26"/>
      <point x="466" y="125" type="curve" smooth="yes"/>
      <point x="466" y="204"/>
      <point x="400" y="233"/>
      <point x="308" y="264" type="curve" smooth="yes"/>
      <point x="229" y="291"/>
      <point x="178" y="315"/>
      <point x="178" y="371" type="curve" smooth="yes"/>
      <point x="178" y="424"/>
      <point x="224" y="457"/>
      <point x="301" y="457" type="curve" smooth="yes"/>
      <point x="382" y="457"/>
      <point x="439" y="422"/>
      <point x="479" y="387" type="curve"/>
      <point x="504" y="414" type="line"/>
      <point x="465" y="453"/>
      <point x="395" y="492"/>
      <point x="304" y="492" type="curve" smooth="yes"/>
      <point x="212" y="492"/>
      <point x="138" y="452"/>
      <point x="138" y="367" type="curve" smooth="yes"/>
      <point x="138" y="304"/>
      <point x="178" y="265"/>
      <point x="279" y="230" type="curve" smooth="yes"/>
      <point x="365" y="201"/>
      <point x="425" y="179"/>
      <point x="425" y="121" type="curve" smooth="yes"/>
      <point x="425" y="52"/>
      <point x="362" y="23"/>
      <point x="281" y="23" type="curve" smooth="yes"/>
      <point x="207" y="23"/>
      <point x="136" y="49"/>
      <point x="91" y="103" type="curve"/>
      <point x="64" y="76" type="line"/>
      <point x="108" y="22"/>
      <point x="193" y="-12"/>
    </contour>
    <contour>
      <point x="332" y="502" type="move" name="aboveLC"/>
    </contour>
    <contour>
      <point x="261" y="0" type="move" name="baseLC"/>
    </contour>
    <contour>
      <point x="259" y="-20" type="move" name="belowLC"/>
    </contour>
  </outline>
</glyph>
<glyph name="u" format="1">
  <advance width="600"/>
  <unicode hex="0075"/>
  <outline>
    <contour>
      <point x="338" y="502" type="move" name="aboveLC"/>
    </contour>
    <contour>
      <point x="250" y="-22" type="move" name="belowLC"/>
    </contour>
    <contour>
      <point x="190" y="-12" type="curve" smooth="yes"/>
      <point x="285" y="-12"/>
      <point x="357" y="45"/>
      <point x="421" y="107" type="curve"/>
      <point x="425" y="107" type="line"/>
      <point x="409" y="0" type="line"/>
      <point x="443" y="0" type="line"/>
      <point x="539" y="480" type="line"/>
      <point x="498" y="480" type="line"/>
      <point x="433" y="159" type="line"/>
      <point x="355" y="76"/>
      <point x="279" y="25"/>
      <point x="200" y="25" type="curve" smooth="yes"/>
      <point x="140" y="25"/>
      <point x="108" y="57"/>
      <point x="108" y="114" type="curve" smooth="yes"/>
      <point x="108" y="140"/>
      <point x="112" y="163"/>
      <point x="118" y="192" type="curve" smooth="yes"/>
      <point x="176" y="480" type="line"/>
      <point x="134" y="480" type="line"/>
      <point x="76" y="188" type="line" smooth="yes"/>
      <point x="70" y="161"/>
      <point x="66" y="136"/>
      <point x="66" y="105" type="curve" smooth="yes"/>
      <point x="66" y="37"/>
      <point x="102" y="-12"/>
    </contour>
  </outline>
</glyph>
<glyph name="w" format="1">
  <advance width="600"/>
  <unicode hex="0077"/>
  <outline>
    <contour>
      <point x="330" y="502" type="move" name="aboveLC"/>
    </contour>
    <contour>
      <point x="240" y="-22" type="move" name="belowLC"/>
    </contour>
    <contour>
      <point x="74" y="0" type="line"/>
      <point x="129" y="0" type="line"/>
      <point x="263" y="298" type="line" smooth="yes"/>
      <point x="282" y="342"/>
      <point x="302" y="388"/>
      <point x="322" y="435" type="curve"/>
      <point x="324" y="435" type="line"/>
      <point x="328" y="388"/>
      <point x="328" y="346"/>
      <point x="330" y="300" type="curve" smooth="yes"/>
      <point x="348" y="0" type="line"/>
      <point x="402" y="0" type="line"/>
      <point x="620" y="480" type="line"/>
      <point x="576" y="480" type="line"/>
      <point x="437" y="165" type="line" smooth="yes"/>
      <point x="418" y="121"/>
      <point x="400" y="80"/>
      <point x="382" y="37" type="curve"/>
      <point x="378" y="37" type="line"/>
      <point x="376" y="80"/>
      <point x="374" y="121"/>
      <point x="372" y="165" type="curve" smooth="yes"/>
      <point x="354" y="473" type="line"/>
      <point x="307" y="473" type="line"/>
      <point x="168" y="165" type="line" smooth="yes"/>
      <point x="148" y="121"/>
      <point x="130" y="79"/>
      <point x="112" y="37" type="curve"/>
      <point x="108" y="37" type="line"/>
      <point x="107" y="80"/>
      <point x="106" y="122"/>
      <point x="104" y="166" type="curve" smooth="yes"/>
      <point x="88" y="480" type="line"/>
      <point x="46" y="480" type="line"/>
    </contour>
  </outline>
</glyph>
<glyph name="x" format="1">
  <advance width="600"/>
  <unicode hex="0078"/>
  <outline>
    <contour>
      <point x="25" y="0" type="line"/>
      <point x="78" y="0" type="line"/>
      <point x="208" y="140" type="line" smooth="yes"/>
      <point x="210" y="142"/>
      <point x="277" y="217"/>
      <point x="279" y="220" type="curve"/>
      <point x="285" y="220" type="line"/>
      <point x="286" y="217"/>
      <point x="332" y="135"/>
      <point x="333" y="133" type="curve" smooth="yes"/>
      <point x="408" y="0" type="line"/>
      <point x="455" y="0" type="line"/>
      <point x="311" y="245" type="line"/>
      <point x="536" y="480" type="line"/>
      <point x="484" y="480" type="line"/>
      <point x="366" y="355" type="line" smooth="yes"/>
      <point x="364" y="354"/>
      <point x="295" y="275"/>
      <point x="294" y="272" type="curve"/>
      <point x="290" y="272" type="line"/>
      <point x="289" y="275"/>
      <point x="249" y="353"/>
      <point x="248" y="355" type="curve" smooth="yes"/>
      <point x="179" y="480" type="line"/>
      <point x="134" y="480" type="line"/>
      <point x="264" y="251" type="line"/>
    </contour>
    <contour>
      <point x="330" y="502" type="move" name="aboveLC"/>
    </contour>
    <contour>
      <point x="429" y="0" type="move" name="baseLC"/>
    </contour>
    <contour>
      <point x="241" y="-20" type="move" name="belowLC"/>
    </contour>
  </outline>
</glyph>
<glyph name="y" format="1">
  <advance width="600"/>
  <unicode hex="0079"/>
  <outline>
    <contour>
      <point x="26" y="-219" type="curve" smooth="yes"/>
      <point x="116" y="-219"/>
      <point x="159" y="-171"/>
      <point x="220" y="-74" type="curve" smooth="yes"/>
      <point x="571" y="480" type="line"/>
      <point x="526" y="480" type="line"/>
      <point x="336" y="175" type="line" smooth="yes"/>
      <point x="311" y="135"/>
      <point x="276" y="76"/>
      <point x="251" y="33" type="curve"/>
      <point x="247" y="33" type="line"/>
      <point x="237" y="76"/>
      <point x="224" y="135"/>
      <point x="214" y="175" type="curve" smooth="yes"/>
      <point x="137" y="480" type="line"/>
      <point x="96" y="480" type="line"/>
      <point x="223" y="-5" type="line"/>
      <point x="185" y="-63" type="line" smooth="yes"/>
      <point x="127" y="-153"/>
      <point x="94" y="-183"/>
      <point x="29" y="-183" type="curve" smooth="yes"/>
      <point x="7" y="-183"/>
      <point x="-10" y="-179"/>
      <point x="-26" y="-171" type="curve"/>
      <point x="-41" y="-203" type="line"/>
      <point x="-21" y="-214"/>
      <point x="-1" y="-219"/>
    </contour>
    <contour>
      <point x="161" y="-126" type="move" name="ogonekLC"/>
    </contour>
    <contour>
      <point x="330" y="502" type="move" name="aboveLC"/>
    </contour>
    <contour>
      <point x="187" y="-227" type="move" name="belowLC"/>
    </contour>
  </outline>
</glyph>
<glyph name="z" format="1">
  <advance width="600"/>
  <unicode hex="007A"/>
  <outline>
    <contour>
      <point x="41" y="0" type="line"/>
      <point x="459" y="0" type="line"/>
      <point x="467" y="36" type="line"/>
      <point x="106" y="36" type="line"/>
      <point x="522" y="455" type="line"/>
      <point x="526" y="480" type="line"/>
      <point x="129" y="480" type="line"/>
      <point x="121" y="445" type="line"/>
      <point x="461" y="445" type="line"/>
      <point x="45" y="26" type="line"/>
    </contour>
    <contour>
      <point x="331" y="502" type="move" name="aboveLC"/>
    </contour>
    <contour>
      <point x="260" y="-20" type="move" name="belowLC"/>
    </contour>
  </outline>
</glyph>
<glyph name="braceleft" format="1">
  <advance width="600"/>
  <unicode hex="007B"/>
  <outline>
    <contour>
      <point x="323" y="-152" type="curve" smooth="yes"/>
      <point x="413" y="-152" type="line"/>
      <point x="420" y="-124" type="line"/>
      <point x="336" y="-124" type="line" smooth="yes"/>
      <point x="273" y="-124"/>
      <point x="236" y="-102"/>
      <point x="236" y="-58" type="curve" smooth="yes"/>
      <point x="236" y="4"/>
      <point x="291" y="141"/>
      <point x="291" y="208" type="curve" smooth="yes"/>
      <point x="291" y="235"/>
      <point x="275" y="268"/>
      <point x="227" y="274" type="curve"/>
      <point x="227" y="278" type="line"/>
      <point x="289" y="286"/>
      <point x="317" y="325"/>
      <point x="330" y="384" type="curve" smooth="yes"/>
      <point x="342" y="447"/>
      <point x="349" y="515"/>
      <point x="361" y="574" type="curve" smooth="yes"/>
      <point x="376" y="644"/>
      <point x="428" y="680"/>
      <point x="493" y="680" type="curve" smooth="yes"/>
      <point x="580" y="680" type="line"/>
      <point x="585" y="708" type="line"/>
      <point x="493" y="708" type="line" smooth="yes"/>
      <point x="413" y="708"/>
      <point x="350" y="679"/>
      <point x="329" y="578" type="curve" smooth="yes"/>
      <point x="315" y="510"/>
      <point x="306" y="439"/>
      <point x="294" y="375" type="curve" smooth="yes"/>
      <point x="286" y="335"/>
      <point x="256" y="294"/>
      <point x="128" y="293" type="curve"/>
      <point x="121" y="263" type="line"/>
      <point x="239" y="262"/>
      <point x="259" y="229"/>
      <point x="259" y="198" type="curve" smooth="yes"/>
      <point x="259" y="138"/>
      <point x="201" y="0"/>
      <point x="201" y="-66" type="curve" smooth="yes"/>
      <point x="201" y="-128"/>
      <point x="250" y="-152"/>
    </contour>
  </outline>
</glyph>
<glyph name="braceright" format="1">
  <advance width="600"/>
  <unicode hex="007D"/>
  <outline>
    <contour>
      <point x="6" y="-152" type="line"/>
      <point x="98" y="-152" type="line" smooth="yes"/>
      <point x="178" y="-152"/>
      <point x="242" y="-123"/>
      <point x="263" y="-22" type="curve" smooth="yes"/>
      <point x="277" y="46"/>
      <point x="285" y="117"/>
      <point x="297" y="181" type="curve" smooth="yes"/>
      <point x="305" y="221"/>
      <point x="335" y="262"/>
      <point x="463" y="263" type="curve"/>
      <point x="471" y="293" type="line"/>
      <point x="352" y="294"/>
      <point x="333" y="327"/>
      <point x="333" y="358" type="curve" smooth="yes"/>
      <point x="333" y="418"/>
      <point x="390" y="556"/>
      <point x="390" y="622" type="curve" smooth="yes"/>
      <point x="390" y="684"/>
      <point x="341" y="708"/>
      <point x="268" y="708" type="curve" smooth="yes"/>
      <point x="178" y="708" type="line"/>
      <point x="171" y="680" type="line"/>
      <point x="256" y="680" type="line" smooth="yes"/>
      <point x="319" y="680"/>
      <point x="355" y="658"/>
      <point x="355" y="614" type="curve" smooth="yes"/>
      <point x="355" y="552"/>
      <point x="300" y="415"/>
      <point x="300" y="348" type="curve" smooth="yes"/>
      <point x="300" y="321"/>
      <point x="317" y="288"/>
      <point x="364" y="282" type="curve"/>
      <point x="364" y="278" type="line"/>
      <point x="303" y="270"/>
      <point x="274" y="231"/>
      <point x="262" y="172" type="curve" smooth="yes"/>
      <point x="250" y="109"/>
      <point x="242" y="41"/>
      <point x="230" y="-18" type="curve" smooth="yes"/>
      <point x="216" y="-88"/>
      <point x="163" y="-124"/>
      <point x="98" y="-124" type="curve" smooth="yes"/>
      <point x="11" y="-124" type="line"/>
    </contour>
  </outline>
</glyph>
<glyph name="asciitilde" format="1">
  <advance width="600"/>
  <unicode hex="007E"/>
  <outline>
    <contour>
      <point x="388" y="269" type="curve" smooth="yes"/>
      <point x="425" y="269"/>
      <point x="465" y="295"/>
      <point x="493" y="350" type="curve"/>
      <point x="465" y="366" type="line"/>
      <point x="442" y="321"/>
      <point x="418" y="303"/>
      <point x="388" y="303" type="curve" smooth="yes"/>
      <point x="334" y="303"/>
      <point x="288" y="393"/>
      <point x="215" y="393" type="curve" smooth="yes"/>
      <point x="178" y="393"/>
      <point x="138" y="367"/>
      <point x="110" y="312" type="curve"/>
      <point x="138" y="296" type="line"/>
      <point x="161" y="341"/>
      <point x="185" y="359"/>
      <point x="215" y="359" type="curve" smooth="yes"/>
      <point x="268" y="359"/>
      <point x="315" y="269"/>
    </contour>
  </outline>
</glyph>
<glyph name="cent" format="1">
  <advance width="600"/>
  <unicode hex="00A2"/>
  <outline>
    <contour>
      <point x="287" y="81" type="curve" smooth="yes"/>
      <point x="351" y="81"/>
      <point x="411" y="109"/>
      <point x="457" y="148" type="curve"/>
      <point x="438" y="175" type="line"/>
      <point x="398" y="143"/>
      <point x="348" y="118"/>
      <point x="293" y="118" type="curve" smooth="yes"/>
      <point x="204" y="118"/>
      <point x="152" y="177"/>
      <point x="152" y="272" type="curve" smooth="yes"/>
      <point x="152" y="408"/>
      <point x="249" y="506"/>
      <point x="376" y="506" type="curve" smooth="yes"/>
      <point x="427" y="506"/>
      <point x="454" y="487"/>
      <point x="482" y="456" type="curve"/>
      <point x="508" y="481" type="line"/>
      <point x="483" y="510"/>
      <point x="443" y="542"/>
      <point x="382" y="542" type="curve" smooth="yes"/>
      <point x="237" y="542"/>
      <point x="109" y="440"/>
      <point x="109" y="265" type="curve" smooth="yes"/>
      <point x="109" y="151"/>
      <point x="181" y="81"/>
    </contour>
    <contour>
      <point x="233" y="-29" type="line"/>
      <point x="266" y="-29" type="line"/>
      <point x="405" y="652" type="line"/>
      <point x="373" y="652" type="line"/>
    </contour>
  </outline>
</glyph>
<glyph name="sterling" format="1">
  <advance width="600"/>
  <unicode hex="00A3"/>
  <outline>
    <contour>
      <point x="26" y="0" type="line"/>
      <point x="455" y="0" type="line"/>
      <point x="464" y="36" type="line"/>
      <point x="115" y="36" type="line"/>
      <point x="115" y="41" type="line"/>
      <point x="198" y="90"/>
      <point x="242" y="159"/>
      <point x="241" y="259" type="curve" smooth="yes"/>
      <point x="240" y="320"/>
      <point x="227" y="393"/>
      <point x="227" y="449" type="curve" smooth="yes"/>
      <point x="227" y="560"/>
      <point x="290" y="617"/>
      <point x="386" y="617" type="curve" smooth="yes"/>
      <point x="449" y="617"/>
      <point x="487" y="586"/>
      <point x="515" y="541" type="curve"/>
      <point x="545" y="563" type="line"/>
      <point x="514" y="611"/>
      <point x="466" y="651"/>
      <point x="387" y="651" type="curve" smooth="yes"/>
      <point x="269" y="651"/>
      <point x="187" y="582"/>
      <point x="187" y="448" type="curve" smooth="yes"/>
      <point x="187" y="390"/>
      <point x="202" y="312"/>
      <point x="202" y="251" type="curve" smooth="yes"/>
      <point x="202" y="161"/>
      <point x="156" y="80"/>
      <point x="31" y="24" type="curve"/>
    </contour>
    <contour>
      <point x="80" y="297" type="line"/>
      <point x="431" y="297" type="line"/>
      <point x="438" y="327" type="line"/>
      <point x="200" y="327" type="line"/>
      <point x="87" y="324" type="line"/>
    </contour>
  </outline>
</glyph>
<glyph name="currency" format="1">
  <advance width="600"/>
  <unicode hex="00A4"/>
  <outline>
    <contour>
      <point x="59" y="94" type="line"/>
      <point x="158" y="179" type="line"/>
      <point x="185" y="150"/>
      <point x="224" y="137"/>
      <point x="264" y="137" type="curve" smooth="yes"/>
      <point x="312" y="137"/>
      <point x="357" y="153"/>
      <point x="393" y="180" type="curve"/>
      <point x="462" y="87" type="line"/>
      <point x="493" y="114" type="line"/>
      <point x="424" y="205" type="line"/>
      <point x="463" y="245"/>
      <point x="486" y="302"/>
      <point x="486" y="364" type="curve" smooth="yes"/>
      <point x="486" y="398"/>
      <point x="480" y="426"/>
      <point x="468" y="449" type="curve"/>
      <point x="572" y="536" type="line"/>
      <point x="549" y="566" type="line"/>
      <point x="445" y="478" type="line"/>
      <point x="418" y="508"/>
      <point x="380" y="521"/>
      <point x="341" y="521" type="curve" smooth="yes"/>
      <point x="294" y="521"/>
      <point x="250" y="505"/>
      <point x="213" y="479" type="curve"/>
      <point x="147" y="565" type="line"/>
      <point x="116" y="538" type="line"/>
      <point x="182" y="453" type="line"/>
      <point x="143" y="413"/>
      <point x="118" y="356"/>
      <point x="118" y="292" type="curve" smooth="yes"/>
      <point x="118" y="259"/>
      <point x="125" y="231"/>
      <point x="136" y="208" type="curve"/>
      <point x="34" y="122" type="line"/>
    </contour>
    <contour>
      <point x="270" y="173" type="curve" smooth="yes"/>
      <point x="197" y="173"/>
      <point x="160" y="223"/>
      <point x="160" y="298" type="curve" smooth="yes"/>
      <point x="160" y="405"/>
      <point x="247" y="486"/>
      <point x="335" y="486" type="curve" smooth="yes"/>
      <point x="403" y="486"/>
      <point x="445" y="437"/>
      <point x="445" y="359" type="curve" smooth="yes"/>
      <point x="445" y="251"/>
      <point x="359" y="173"/>
    </contour>
  </outline>
</glyph>
<glyph name="yen" format="1">
  <advance width="600"/>
  <unicode hex="00A5"/>
  <outline>
    <contour>
      <point x="220" y="0" type="line"/>
      <point x="260" y="0" type="line"/>
      <point x="314" y="277" type="line"/>
      <point x="598" y="640" type="line"/>
      <point x="551" y="640" type="line"/>
      <point x="402" y="443" type="line" smooth="yes"/>
      <point x="368" y="398"/>
      <point x="334" y="352"/>
      <point x="301" y="305" type="curve"/>
      <point x="298" y="305" type="line"/>
      <point x="282" y="354"/>
      <point x="265" y="399"/>
      <point x="249" y="443" type="curve" smooth="yes"/>
      <point x="178" y="640" type="line"/>
      <point x="136" y="640" type="line"/>
      <point x="274" y="279" type="line"/>
    </contour>
    <contour>
      <point x="62" y="169" type="line"/>
      <point x="484" y="169" type="line"/>
      <point x="491" y="196" type="line"/>
      <point x="68" y="196" type="line"/>
    </contour>
    <contour>
      <point x="82" y="274" type="line"/>
      <point x="505" y="274" type="line"/>
      <point x="511" y="301" type="line"/>
      <point x="89" y="301" type="line"/>
    </contour>
  </outline>
</glyph>
<glyph name="brokenbar" format="1">
  <advance width="600"/>
  <unicode hex="00A6"/>
  <outline>
    <contour>
      <point x="280" y="-250" type="line"/>
      <point x="320" y="-250" type="line"/>
      <point x="320" y="220" type="line"/>
      <point x="280" y="220" type="line"/>
    </contour>
    <contour>
      <point x="280" y="277" type="line"/>
      <point x="320" y="277" type="line"/>
      <point x="320" y="750" type="line"/>
      <point x="280" y="750" type="line"/>
    </contour>
  </outline>
</glyph>
<glyph name="section" format="1">
  <advance width="600"/>
  <unicode hex="00A7"/>
  <outline>
    <contour>
      <point x="237" y="-48" type="curve" smooth="yes"/>
      <point x="321" y="-48"/>
      <point x="387" y="3"/>
      <point x="387" y="85" type="curve" smooth="yes"/>
      <point x="387" y="159"/>
      <point x="334" y="193"/>
      <point x="261" y="234" type="curve" smooth="yes"/>
      <point x="192" y="271"/>
      <point x="163" y="300"/>
      <point x="163" y="355" type="curve" smooth="yes"/>
      <point x="163" y="418"/>
      <point x="212" y="448"/>
      <point x="272" y="472" type="curve"/>
      <point x="258" y="498" type="line"/>
      <point x="187" y="473"/>
      <point x="124" y="429"/>
      <point x="124" y="347" type="curve" smooth="yes"/>
      <point x="124" y="278"/>
      <point x="172" y="238"/>
      <point x="239" y="201" type="curve" smooth="yes"/>
      <point x="298" y="168"/>
      <point x="348" y="141"/>
      <point x="348" y="80" type="curve" smooth="yes"/>
      <point x="348" y="24"/>
      <point x="297" y="-13"/>
      <point x="239" y="-13" type="curve" smooth="yes"/>
      <point x="191" y="-13"/>
      <point x="145" y="14"/>
      <point x="109" y="55" type="curve"/>
      <point x="83" y="26" type="line"/>
      <point x="127" y="-20"/>
      <point x="179" y="-48"/>
    </contour>
    <contour>
      <point x="348" y="140" type="line"/>
      <point x="428" y="169"/>
      <point x="480" y="202"/>
      <point x="480" y="289" type="curve" smooth="yes"/>
      <point x="480" y="368"/>
      <point x="417" y="409"/>
      <point x="359" y="444" type="curve" smooth="yes"/>
      <point x="303" y="478"/>
      <point x="259" y="505"/>
      <point x="259" y="561" type="curve" smooth="yes"/>
      <point x="259" y="616"/>
      <point x="302" y="646"/>
      <point x="354" y="646" type="curve" smooth="yes"/>
      <point x="401" y="646"/>
      <point x="435" y="620"/>
      <point x="464" y="583" type="curve"/>
      <point x="493" y="608" type="line"/>
      <point x="458" y="647"/>
      <point x="415" y="681"/>
      <point x="356" y="681" type="curve" smooth="yes"/>
      <point x="280" y="681"/>
      <point x="219" y="634"/>
      <point x="219" y="560" type="curve" smooth="yes"/>
      <point x="219" y="481"/>
      <point x="271" y="452"/>
      <point x="338" y="411" type="curve" smooth="yes"/>
      <point x="393" y="378"/>
      <point x="441" y="346"/>
      <point x="441" y="283" type="curve" smooth="yes"/>
      <point x="441" y="214"/>
      <point x="396" y="188"/>
      <point x="331" y="167" type="curve"/>
    </contour>
  </outline>
</glyph>
<glyph name="copyright" format="1">
  <advance width="600"/>
  <unicode hex="00A9"/>
  <outline>
    <contour>
      <point x="236" y="-12" type="curve" smooth="yes"/>
      <point x="430" y="-12"/>
      <point x="575" y="164"/>
      <point x="575" y="401" type="curve" smooth="yes"/>
      <point x="575" y="554"/>
      <point x="497" y="652"/>
      <point x="369" y="652" type="curve" smooth="yes"/>
      <point x="177" y="653"/>
      <point x="31" y="481"/>
      <point x="31" y="242" type="curve" smooth="yes"/>
      <point x="31" y="88"/>
      <point x="109" y="-12"/>
    </contour>
    <contour>
      <point x="242" y="19" type="curve" smooth="yes"/>
      <point x="129" y="19"/>
      <point x="65" y="109"/>
      <point x="65" y="246" type="curve" smooth="yes"/>
      <point x="65" y="461"/>
      <point x="197" y="622"/>
      <point x="363" y="622" type="curve" smooth="yes"/>
      <point x="476" y="622"/>
      <point x="541" y="534"/>
      <point x="541" y="397" type="curve" smooth="yes"/>
      <point x="541" y="184"/>
      <point x="408" y="19"/>
    </contour>
    <contour>
      <point x="280" y="130" type="curve" smooth="yes"/>
      <point x="328" y="130"/>
      <point x="372" y="152"/>
      <point x="405" y="182" type="curve"/>
      <point x="386" y="208" type="line"/>
      <point x="357" y="182"/>
      <point x="328" y="164"/>
      <point x="286" y="164" type="curve" smooth="yes"/>
      <point x="229" y="165"/>
      <point x="198" y="210"/>
      <point x="198" y="282" type="curve" smooth="yes"/>
      <point x="198" y="399"/>
      <point x="278" y="481"/>
      <point x="351" y="481" type="curve" smooth="yes"/>
      <point x="386" y="481"/>
      <point x="404" y="469"/>
      <point x="426" y="439" type="curve"/>
      <point x="451" y="461" type="line"/>
      <point x="430" y="491"/>
      <point x="401" y="513"/>
      <point x="356" y="513" type="curve" smooth="yes"/>
      <point x="258" y="513"/>
      <point x="159" y="425"/>
      <point x="159" y="280" type="curve" smooth="yes"/>
      <point x="159" y="185"/>
      <point x="208" y="130"/>
    </contour>
  </outline>
</glyph>
<glyph name="logicalnot" format="1">
  <advance width="600"/>
  <unicode hex="00AC"/>
  <outline>
    <contour>
      <point x="464" y="108" type="line"/>
      <point x="500" y="108" type="line"/>
      <point x="500" y="348" type="line"/>
      <point x="106" y="348" type="line"/>
      <point x="106" y="314" type="line"/>
      <point x="464" y="314" type="line"/>
    </contour>
  </outline>
</glyph>
<glyph name="registered" format="1">
  <advance width="600"/>
  <unicode hex="00AE"/>
  <outline>
    <contour>
      <point x="312" y="324" type="curve" smooth="yes"/>
      <point x="443" y="324"/>
      <point x="536" y="419"/>
      <point x="536" y="554" type="curve" smooth="yes"/>
      <point x="536" y="649"/>
      <point x="474" y="712"/>
      <point x="389" y="712" type="curve" smooth="yes"/>
      <point x="262" y="712"/>
      <point x="164" y="616"/>
      <point x="164" y="482" type="curve" smooth="yes"/>
      <point x="164" y="388"/>
      <point x="226" y="324"/>
    </contour>
    <contour>
      <point x="318" y="352" type="curve" smooth="yes"/>
      <point x="244" y="352"/>
      <point x="193" y="403"/>
      <point x="193" y="486" type="curve" smooth="yes"/>
      <point x="193" y="598"/>
      <point x="279" y="686"/>
      <point x="383" y="686" type="curve" smooth="yes"/>
      <point x="456" y="686"/>
      <point x="507" y="635"/>
      <point x="507" y="549" type="curve" smooth="yes"/>
      <point x="507" y="437"/>
      <point x="426" y="352"/>
    </contour>
    <contour>
      <point x="263" y="418" type="line"/>
      <point x="293" y="418" type="line"/>
      <point x="330" y="606" type="line"/>
      <point x="323" y="600" type="line"/>
      <point x="363" y="600" type="line" smooth="yes"/>
      <point x="394" y="600"/>
      <point x="404" y="587"/>
      <point x="404" y="567" type="curve" smooth="yes"/>
      <point x="404" y="534"/>
      <point x="381" y="518"/>
      <point x="343" y="518" type="curve" smooth="yes"/>
      <point x="303" y="518" type="line"/>
      <point x="295" y="494" type="line"/>
      <point x="345" y="494" type="line" smooth="yes"/>
      <point x="401" y="494"/>
      <point x="436" y="524"/>
      <point x="436" y="568" type="curve" smooth="yes"/>
      <point x="436" y="612"/>
      <point x="405" y="625"/>
      <point x="372" y="625" type="curve" smooth="yes"/>
      <point x="304" y="625" type="line"/>
    </contour>
    <contour>
      <point x="351" y="498" type="line"/>
      <point x="383" y="418" type="line"/>
      <point x="417" y="418" type="line"/>
      <point x="379" y="504" type="line"/>
    </contour>
  </outline>
</glyph>
<glyph name="degree" format="1">
  <advance width="600"/>
  <unicode hex="00B0"/>
  <outline>
    <contour>
      <point x="326" y="449" type="curve" smooth="yes"/>
      <point x="401" y="449"/>
      <point x="465" y="502"/>
      <point x="465" y="588" type="curve" smooth="yes"/>
      <point x="465" y="650"/>
      <point x="424" y="684"/>
      <point x="373" y="684" type="curve" smooth="yes"/>
      <point x="300" y="684"/>
      <point x="234" y="631"/>
      <point x="234" y="545" type="curve" smooth="yes"/>
      <point x="234" y="484"/>
      <point x="276" y="449"/>
    </contour>
    <contour>
      <point x="332" y="479" type="curve" smooth="yes"/>
      <point x="290" y="479"/>
      <point x="267" y="509"/>
      <point x="267" y="549" type="curve" smooth="yes"/>
      <point x="267" y="607"/>
      <point x="311" y="655"/>
      <point x="367" y="655" type="curve" smooth="yes"/>
      <point x="409" y="655"/>
      <point x="432" y="625"/>
      <point x="432" y="584" type="curve" smooth="yes"/>
      <point x="432" y="526"/>
      <point x="387" y="479"/>
    </contour>
  </outline>
</glyph>
<glyph name="plusminus" format="1">
  <advance width="600"/>
  <unicode hex="00B1"/>
  <outline>
    <contour>
      <point x="284" y="115" type="line"/>
      <point x="321" y="115" type="line"/>
      <point x="321" y="317" type="line"/>
      <point x="500" y="317" type="line"/>
      <point x="500" y="352" type="line"/>
      <point x="321" y="352" type="line"/>
      <point x="321" y="548" type="line"/>
      <point x="284" y="548" type="line"/>
      <point x="284" y="352" type="line"/>
      <point x="105" y="352" type="line"/>
      <point x="105" y="317" type="line"/>
      <point x="284" y="317" type="line"/>
    </contour>
    <contour>
      <point x="105" y="0" type="line"/>
      <point x="500" y="0" type="line"/>
      <point x="500" y="35" type="line"/>
      <point x="105" y="35" type="line"/>
    </contour>
  </outline>
</glyph>
<glyph name="Eth" format="1">
  <advance width="600"/>
  <unicode hex="00D0"/>
  <outline>
    <contour>
      <point x="316" y="334" type="line"/>
      <point x="323" y="365" type="line"/>
      <point x="116" y="365" type="line"/>
      <point x="45" y="363" type="line"/>
      <point x="39" y="334" type="line"/>
    </contour>
    <component base="D" xOffset="15"/>
  </outline>
</glyph>
<glyph name="multiply" format="1">
  <advance width="600"/>
  <unicode hex="00D7"/>
  <outline>
    <contour>
      <point x="149" y="145" type="line"/>
      <point x="304" y="308" type="line"/>
      <point x="460" y="145" type="line"/>
      <point x="484" y="169" type="line"/>
      <point x="328" y="332" type="line"/>
      <point x="484" y="493" type="line"/>
      <point x="460" y="517" type="line"/>
      <point x="304" y="356" type="line"/>
      <point x="149" y="517" type="line"/>
      <point x="125" y="493" type="line"/>
      <point x="280" y="332" type="line"/>
      <point x="125" y="169" type="line"/>
    </contour>
  </outline>
</glyph>
<glyph name="Oslash" format="1">
  <advance width="600"/>
  <unicode hex="00D8"/>
  <outline>
    <contour>
      <point x="252" y="-12" type="curve" smooth="yes"/>
      <point x="448" y="-12"/>
      <point x="563" y="218"/>
      <point x="559" y="424" type="curve" smooth="yes"/>
      <point x="557" y="574"/>
      <point x="482" y="671"/>
      <point x="356" y="671" type="curve" smooth="yes"/>
      <point x="177" y="671"/>
      <point x="46" y="473"/>
      <point x="49" y="235" type="curve" smooth="yes"/>
      <point x="50" y="84"/>
      <point x="127" y="-12"/>
    </contour>
    <contour>
      <point x="254" y="25" type="curve" smooth="yes"/>
      <point x="152" y="25"/>
      <point x="93" y="110"/>
      <point x="91" y="234" type="curve" smooth="yes"/>
      <point x="89" y="461"/>
      <point x="209" y="634"/>
      <point x="352" y="634" type="curve" smooth="yes"/>
      <point x="454" y="634"/>
      <point x="514" y="554"/>
      <point x="516" y="424" type="curve" smooth="yes"/>
      <point x="520" y="233"/>
      <point x="418" y="25"/>
    </contour>
    <contour>
      <point x="14" y="-23" type="line"/>
      <point x="610" y="661" type="line"/>
      <point x="585" y="683" type="line"/>
      <point x="-11" y="-1" type="line"/>
    </contour>
    <contour>
      <point x="370" y="679" type="move" name="aboveUC"/>
    </contour>
    <contour>
      <point x="238" y="0" type="move" name="baseLC"/>
    </contour>
  </outline>
</glyph>
<glyph name="germandbls" format="1">
  <advance width="600"/>
  <unicode hex="00DF"/>
  <outline>
    <contour>
      <point x="353" y="-12" type="curve" smooth="yes"/>
      <point x="455" y="-12"/>
      <point x="526" y="49"/>
      <point x="526" y="129" type="curve" smooth="yes"/>
      <point x="526" y="261"/>
      <point x="348" y="278"/>
      <point x="348" y="362" type="curve" smooth="yes"/>
      <point x="348" y="452"/>
      <point x="503" y="478"/>
      <point x="503" y="610" type="curve" smooth="yes"/>
      <point x="503" y="689"/>
      <point x="447" y="731"/>
      <point x="366" y="731" type="curve" smooth="yes"/>
      <point x="257" y="731"/>
      <point x="178" y="654"/>
      <point x="153" y="527" type="curve"/>
      <point x="47" y="0" type="line"/>
      <point x="89" y="0" type="line"/>
      <point x="191" y="515" type="line"/>
      <point x="214" y="631"/>
      <point x="280" y="695"/>
      <point x="364" y="695" type="curve" smooth="yes"/>
      <point x="434" y="695"/>
      <point x="462" y="658"/>
      <point x="462" y="607" type="curve" smooth="yes"/>
      <point x="462" y="490"/>
      <point x="307" y="467"/>
      <point x="307" y="357" type="curve" smooth="yes"/>
      <point x="307" y="252"/>
      <point x="485" y="238"/>
      <point x="485" y="124" type="curve" smooth="yes"/>
      <point x="485" y="66"/>
      <point x="424" y="23"/>
      <point x="354" y="23" type="curve" smooth="yes"/>
      <point x="306" y="23"/>
      <point x="269" y="40"/>
      <point x="231" y="72" type="curve"/>
      <point x="210" y="41" type="line"/>
      <point x="252" y="4"/>
      <point x="304" y="-12"/>
    </contour>
  </outline>
</glyph>
<glyph name="ae" format="1">
  <advance width="600"/>
  <unicode hex="00E6"/>
  <outline>
    <contour>
      <point x="80" y="-12" type="curve" smooth="yes"/>
      <point x="136" y="-12"/>
      <point x="209" y="19"/>
      <point x="275" y="94" type="curve"/>
      <point x="263" y="124" type="line"/>
      <point x="210" y="60"/>
      <point x="137" y="24"/>
      <point x="88" y="24" type="curve" smooth="yes"/>
      <point x="46" y="24"/>
      <point x="17" y="49"/>
      <point x="17" y="99" type="curve" smooth="yes"/>
      <point x="17" y="199"/>
      <point x="117" y="241"/>
      <point x="287" y="271" type="curve"/>
      <point x="289" y="303" type="line"/>
      <point x="90" y="273"/>
      <point x="-24" y="215"/>
      <point x="-24" y="93" type="curve" smooth="yes"/>
      <point x="-24" y="24"/>
      <point x="18" y="-12"/>
    </contour>
    <contour>
      <point x="293" y="235" type="line"/>
      <point x="583" y="235" type="line"/>
      <point x="590" y="256"/>
      <point x="601" y="292"/>
      <point x="601" y="345" type="curve" smooth="yes"/>
      <point x="601" y="426"/>
      <point x="568" y="492"/>
      <point x="490" y="492" type="curve" smooth="yes"/>
      <point x="424" y="492"/>
      <point x="358" y="452"/>
      <point x="316" y="373" type="curve"/>
      <point x="322" y="374" type="line"/>
      <point x="321" y="445"/>
      <point x="278" y="492"/>
      <point x="207" y="492" type="curve" smooth="yes"/>
      <point x="143" y="492"/>
      <point x="88" y="461"/>
      <point x="54" y="436" type="curve"/>
      <point x="72" y="407" type="line"/>
      <point x="102" y="429"/>
      <point x="150" y="457"/>
      <point x="199" y="457" type="curve" smooth="yes"/>
      <point x="277" y="457"/>
      <point x="302" y="392"/>
      <point x="278" y="300" type="curve" smooth="yes"/>
      <point x="256" y="219"/>
      <point x="258" y="186"/>
      <point x="258" y="147" type="curve" smooth="yes"/>
      <point x="258" y="79"/>
      <point x="293" y="-12"/>
      <point x="397" y="-12" type="curve" smooth="yes"/>
      <point x="452" y="-12"/>
      <point x="505" y="11"/>
      <point x="537" y="35" type="curve"/>
      <point x="521" y="64" type="line"/>
      <point x="485" y="40"/>
      <point x="448" y="23"/>
      <point x="404" y="23" type="curve" smooth="yes"/>
      <point x="329" y="23"/>
      <point x="295" y="82"/>
      <point x="295" y="163" type="curve" smooth="yes"/>
      <point x="295" y="314"/>
      <point x="378" y="457"/>
      <point x="483" y="457" type="curve" smooth="yes"/>
      <point x="539" y="457"/>
      <point x="563" y="414"/>
      <point x="563" y="344" type="curve" smooth="yes"/>
      <point x="563" y="319"/>
      <point x="559" y="291"/>
      <point x="553" y="263" type="curve"/>
      <point x="565" y="266" type="line"/>
      <point x="300" y="266" type="line"/>
    </contour>
  </outline>
</glyph>
<glyph name="eth" format="1">
  <advance width="600"/>
  <unicode hex="00F0"/>
  <outline>
    <contour>
      <point x="238" y="-12" type="curve" smooth="yes"/>
      <point x="420" y="-12"/>
      <point x="529" y="128"/>
      <point x="529" y="339" type="curve" smooth="yes"/>
      <point x="529" y="531"/>
      <point x="429" y="655"/>
      <point x="290" y="725" type="curve"/>
      <point x="270" y="693" type="line"/>
      <point x="391" y="632"/>
      <point x="488" y="524"/>
      <point x="488" y="341" type="curve" smooth="yes"/>
      <point x="488" y="170"/>
      <point x="406" y="24"/>
      <point x="244" y="24" type="curve" smooth="yes"/>
      <point x="153" y="24"/>
      <point x="89" y="88"/>
      <point x="89" y="185" type="curve" smooth="yes"/>
      <point x="89" y="294"/>
      <point x="171" y="407"/>
      <point x="323" y="407" type="curve" smooth="yes"/>
      <point x="387" y="407"/>
      <point x="460" y="375"/>
      <point x="499" y="297" type="curve"/>
      <point x="505" y="340" type="line"/>
      <point x="475" y="394"/>
      <point x="404" y="442"/>
      <point x="322" y="442" type="curve" smooth="yes"/>
      <point x="164" y="442"/>
      <point x="46" y="332"/>
      <point x="46" y="178" type="curve" smooth="yes"/>
      <point x="46" y="59"/>
      <point x="133" y="-12"/>
    </contour>
    <contour>
      <point x="242" y="517" type="line"/>
      <point x="579" y="676" type="line"/>
      <point x="569" y="702" type="line"/>
      <point x="231" y="543" type="line"/>
    </contour>
    <contour>
      <point x="434" y="739" type="move" name="aboveUC"/>
    </contour>
    <contour>
      <point x="237" y="-20" type="move" name="belowLC"/>
    </contour>
  </outline>
</glyph>
<glyph name="divide" format="1">
  <advance width="600"/>
  <unicode hex="00F7"/>
  <outline>
    <contour>
      <point x="303" y="473" type="curve" smooth="yes"/>
      <point x="324" y="473"/>
      <point x="339" y="491"/>
      <point x="339" y="512" type="curve" smooth="yes"/>
      <point x="339" y="533"/>
      <point x="324" y="549"/>
      <point x="303" y="549" type="curve" smooth="yes"/>
      <point x="282" y="549"/>
      <point x="268" y="533"/>
      <point x="268" y="512" type="curve" smooth="yes"/>
      <point x="268" y="491"/>
      <point x="282" y="473"/>
    </contour>
    <contour>
      <point x="303" y="109" type="curve" smooth="yes"/>
      <point x="324" y="109"/>
      <point x="339" y="127"/>
      <point x="339" y="148" type="curve" smooth="yes"/>
      <point x="339" y="169"/>
      <point x="324" y="185"/>
      <point x="303" y="185" type="curve" smooth="yes"/>
      <point x="282" y="185"/>
      <point x="268" y="169"/>
      <point x="268" y="148" type="curve" smooth="yes"/>
      <point x="268" y="127"/>
      <point x="282" y="109"/>
    </contour>
    <contour>
      <point x="106" y="314" type="line"/>
      <point x="501" y="314" type="line"/>
      <point x="501" y="348" type="line"/>
      <point x="106" y="348" type="line"/>
    </contour>
  </outline>
</glyph>
<glyph name="oslash" format="1">
  <advance width="600"/>
  <unicode hex="00F8"/>
  <outline>
    <contour>
      <point x="338" y="502" type="move" name="aboveLC"/>
    </contour>
    <contour>
      <point x="246" y="-12" type="curve" smooth="yes"/>
      <point x="396" y="-12"/>
      <point x="521" y="116"/>
      <point x="521" y="285" type="curve" smooth="yes"/>
      <point x="521" y="407"/>
      <point x="449" y="492"/>
      <point x="329" y="492" type="curve" smooth="yes"/>
      <point x="180" y="492"/>
      <point x="53" y="362"/>
      <point x="53" y="195" type="curve" smooth="yes"/>
      <point x="53" y="73"/>
      <point x="126" y="-12"/>
    </contour>
    <contour>
      <point x="250" y="24" type="curve" smooth="yes"/>
      <point x="152" y="24"/>
      <point x="94" y="94"/>
      <point x="94" y="201" type="curve" smooth="yes"/>
      <point x="94" y="337"/>
      <point x="202" y="456"/>
      <point x="325" y="456" type="curve" smooth="yes"/>
      <point x="424" y="456"/>
      <point x="480" y="386"/>
      <point x="480" y="279" type="curve" smooth="yes"/>
      <point x="480" y="141"/>
      <point x="374" y="24"/>
    </contour>
    <contour>
      <point x="28" y="-22" type="line"/>
      <point x="565" y="480" type="line"/>
      <point x="544" y="501" type="line"/>
      <point x="8" y="-2" type="line"/>
    </contour>
  </outline>
</glyph>
<glyph name="Aogonek" format="1">
  <advance width="600"/>
  <unicode hex="0104"/>
  <outline>
    <contour>
      <point x="427" y="-224" type="curve" smooth="yes"/>
      <point x="460" y="-224"/>
      <point x="486" y="-212"/>
      <point x="506" y="-196" type="curve"/>
      <point x="492" y="-172" type="line"/>
      <point x="476" y="-183"/>
      <point x="459" y="-191"/>
      <point x="438" y="-191" type="curve" smooth="yes"/>
      <point x="404" y="-191"/>
      <point x="377" y="-175"/>
      <point x="377" y="-139" type="curve" smooth="yes"/>
      <point x="377" y="-90"/>
      <point x="432" y="-36"/>
      <point x="492" y="0" type="curve"/>
      <point x="403" y="659" type="line"/>
      <point x="357" y="659" type="line"/>
      <point x="-12" y="0" type="line"/>
      <point x="34" y="0" type="line"/>
      <point x="250" y="394" type="line" smooth="yes"/>
      <point x="291" y="471"/>
      <point x="327" y="540"/>
      <point x="369" y="617" type="curve"/>
      <point x="374" y="617" type="line"/>
      <point x="383" y="544"/>
      <point x="391" y="465"/>
      <point x="401" y="391" type="curve" smooth="yes"/>
      <point x="448" y="0" type="line"/>
      <point x="454" y="0" type="line"/>
      <point x="398" y="-33"/>
      <point x="339" y="-86"/>
      <point x="339" y="-151" type="curve" smooth="yes"/>
      <point x="339" y="-203"/>
      <point x="382" y="-224"/>
    </contour>
    <contour>
      <point x="146" y="229" type="line"/>
      <point x="435" y="229" type="line"/>
      <point x="439" y="264" type="line"/>
      <point x="156" y="264" type="line"/>
    </contour>
    <contour>
      <point x="374" y="679" type="move" name="aboveUC"/>
    </contour>
  </outline>
</glyph>
<glyph name="aogonek" format="1">
  <advance width="600"/>
  <unicode hex="0105"/>
  <outline>
    <contour>
      <point x="372" y="-224" type="curve" smooth="yes"/>
      <point x="405" y="-224"/>
      <point x="431" y="-212"/>
      <point x="451" y="-195" type="curve"/>
      <point x="437" y="-173" type="line"/>
      <point x="421" y="-184"/>
      <point x="404" y="-192"/>
      <point x="383" y="-192" type="curve" smooth="yes"/>
      <point x="348" y="-192"/>
      <point x="321" y="-176"/>
      <point x="321" y="-139" type="curve" smooth="yes"/>
      <point x="321" y="-91"/>
      <point x="367" y="-47"/>
      <point x="444" y="-7" type="curve"/>
      <point x="542" y="480" type="line"/>
      <point x="508" y="480" type="line"/>
      <point x="489" y="414" type="line"/>
      <point x="485" y="414" type="line"/>
      <point x="456" y="461"/>
      <point x="401" y="492"/>
      <point x="330" y="492" type="curve" smooth="yes"/>
      <point x="178" y="492"/>
      <point x="62" y="341"/>
      <point x="62" y="171" type="curve" smooth="yes"/>
      <point x="62" y="51"/>
      <point x="130" y="-12"/>
      <point x="231" y="-12" type="curve" smooth="yes"/>
      <point x="298" y="-12"/>
      <point x="365" y="25"/>
      <point x="418" y="77" type="curve"/>
      <point x="422" y="77" type="line"/>
      <point x="411" y="0" type="line"/>
      <point x="343" y="-36"/>
      <point x="284" y="-83"/>
      <point x="284" y="-151" type="curve" smooth="yes"/>
      <point x="284" y="-203"/>
      <point x="327" y="-224"/>
    </contour>
    <contour>
      <point x="239" y="24" type="curve" smooth="yes"/>
      <point x="157" y="24"/>
      <point x="104" y="74"/>
      <point x="104" y="179" type="curve" smooth="yes"/>
      <point x="104" y="319"/>
      <point x="202" y="456"/>
      <point x="331" y="456" type="curve" smooth="yes"/>
      <point x="387" y="456"/>
      <point x="439" y="431"/>
      <point x="480" y="369" type="curve"/>
      <point x="430" y="129" type="line"/>
      <point x="369" y="62"/>
      <point x="300" y="24"/>
    </contour>
    <contour>
      <point x="357" y="502" type="move" name="aboveLC"/>
    </contour>
  </outline>
</glyph>
<glyph name="dcaron" format="1">
  <advance width="600"/>
  <unicode hex="010F"/>
  <outline>
    <contour>
      <point x="224" y="-12" type="curve" smooth="yes"/>
      <point x="290" y="-12"/>
      <point x="356" y="24"/>
      <point x="409" y="75" type="curve"/>
      <point x="413" y="75" type="line"/>
      <point x="402" y="0" type="line"/>
      <point x="437" y="0" type="line"/>
      <point x="582" y="719" type="line"/>
      <point x="541" y="719" type="line"/>
      <point x="499" y="511" type="line"/>
      <point x="480" y="416" type="line"/>
      <point x="476" y="416" type="line"/>
      <point x="447" y="462"/>
      <point x="394" y="492"/>
      <point x="325" y="492" type="curve" smooth="yes"/>
      <point x="173" y="492"/>
      <point x="59" y="341"/>
      <point x="59" y="171" type="curve" smooth="yes"/>
      <point x="59" y="51"/>
      <point x="125" y="-12"/>
    </contour>
    <contour>
      <point x="234" y="24" type="curve" smooth="yes"/>
      <point x="153" y="24"/>
      <point x="101" y="74"/>
      <point x="101" y="179" type="curve" smooth="yes"/>
      <point x="101" y="319"/>
      <point x="198" y="456"/>
      <point x="326" y="456" type="curve" smooth="yes"/>
      <point x="381" y="456"/>
      <point x="431" y="431"/>
      <point x="471" y="370" type="curve"/>
      <point x="421" y="127" type="line"/>
      <point x="361" y="61"/>
      <point x="294" y="24"/>
    </contour>
    <component base="caron.alt" xOffset="314"/>
  </outline>
</glyph>
<glyph name="Dcroat" format="1">
  <advance width="600"/>
  <unicode hex="0110"/>
  <outline>
    <component base="Eth"/>
    <contour>
      <point x="300" y="679" type="move" name="aboveUC"/>
    </contour>
    <contour>
      <point x="300" y="-20" type="move" name="belowLC"/>
    </contour>
  </outline>
</glyph>
<glyph name="dcroat" format="1">
  <advance width="600"/>
  <unicode hex="0111"/>
  <outline>
    <contour>
      <point x="230" y="-12" type="curve" smooth="yes"/>
      <point x="297" y="-12"/>
      <point x="364" y="25"/>
      <point x="417" y="77" type="curve"/>
      <point x="421" y="77" type="line"/>
      <point x="410" y="0" type="line"/>
      <point x="445" y="0" type="line"/>
      <point x="590" y="719" type="line"/>
      <point x="549" y="719" type="line"/>
      <point x="502" y="490" type="line"/>
      <point x="483" y="395" type="line"/>
      <point x="480" y="395" type="line"/>
      <point x="450" y="441"/>
      <point x="400" y="472"/>
      <point x="328" y="472" type="curve" smooth="yes"/>
      <point x="177" y="472"/>
      <point x="61" y="331"/>
      <point x="61" y="171" type="curve" smooth="yes"/>
      <point x="61" y="51"/>
      <point x="128" y="-12"/>
    </contour>
    <contour>
      <point x="238" y="24" type="curve" smooth="yes"/>
      <point x="155" y="24"/>
      <point x="103" y="74"/>
      <point x="103" y="179" type="curve" smooth="yes"/>
      <point x="103" y="309"/>
      <point x="201" y="436"/>
      <point x="330" y="436" type="curve" smooth="yes"/>
      <point x="386" y="436"/>
      <point x="434" y="411"/>
      <point x="475" y="349" type="curve"/>
      <point x="429" y="129" type="line"/>
      <point x="368" y="62"/>
      <point x="299" y="24"/>
    </contour>
    <contour>
      <point x="335" y="582" type="line"/>
      <point x="559" y="582" type="line"/>
      <point x="637" y="587" type="line"/>
      <point x="642" y="614" type="line"/>
      <point x="342" y="614" type="line"/>
    </contour>
    <contour>
      <point x="567" y="739" type="move" name="aboveUC"/>
    </contour>
    <contour>
      <point x="248" y="-20" type="move" name="belowLC"/>
    </contour>
  </outline>
</glyph>
<glyph name="eogonek" format="1">
  <advance width="600"/>
  <unicode hex="0119"/>
  <outline>
    <contour>
      <point x="340" y="-224" type="curve" smooth="yes"/>
      <point x="374" y="-224"/>
      <point x="400" y="-212"/>
      <point x="419" y="-195" type="curve"/>
      <point x="406" y="-173" type="line"/>
      <point x="390" y="-184"/>
      <point x="373" y="-192"/>
      <point x="352" y="-192" type="curve" smooth="yes"/>
      <point x="317" y="-192"/>
      <point x="289" y="-176"/>
      <point x="289" y="-139" type="curve" smooth="yes"/>
      <point x="289" y="-81"/>
      <point x="365" y="-12"/>
      <point x="473" y="63" type="curve"/>
      <point x="453" y="93" type="line"/>
      <point x="408" y="54"/>
      <point x="345" y="24"/>
      <point x="277" y="24" type="curve" smooth="yes"/>
      <point x="174" y="24"/>
      <point x="114" y="92"/>
      <point x="114" y="195" type="curve" smooth="yes"/>
      <point x="114" y="345"/>
      <point x="227" y="457"/>
      <point x="339" y="457" type="curve" smooth="yes"/>
      <point x="426" y="457"/>
      <point x="479" y="400"/>
      <point x="479" y="313" type="curve" smooth="yes"/>
      <point x="479" y="297"/>
      <point x="477" y="279"/>
      <point x="473" y="264" type="curve"/>
      <point x="500" y="272" type="line"/>
      <point x="113" y="272" type="line"/>
      <point x="106" y="238" type="line"/>
      <point x="508" y="238" type="line"/>
      <point x="512" y="249"/>
      <point x="518" y="279"/>
      <point x="518" y="310" type="curve" smooth="yes"/>
      <point x="518" y="414"/>
      <point x="457" y="492"/>
      <point x="343" y="492" type="curve" smooth="yes"/>
      <point x="200" y="492"/>
      <point x="72" y="365"/>
      <point x="72" y="192" type="curve" smooth="yes"/>
      <point x="72" y="64"/>
      <point x="147" y="-12"/>
      <point x="271" y="-12" type="curve" smooth="yes"/>
      <point x="304" y="-12"/>
      <point x="332" y="-5"/>
      <point x="355" y="2" type="curve"/>
      <point x="301" y="-43"/>
      <point x="253" y="-91"/>
      <point x="253" y="-151" type="curve" smooth="yes"/>
      <point x="253" y="-203"/>
      <point x="296" y="-224"/>
    </contour>
    <contour>
      <point x="349" y="502" type="move" name="aboveLC"/>
    </contour>
  </outline>
</glyph>
<glyph name="Hbar" format="1">
  <advance width="600"/>
  <unicode hex="0126"/>
  <outline>
    <contour>
      <point x="51" y="498" type="line"/>
      <point x="621" y="498" type="line"/>
      <point x="628" y="527" type="line"/>
      <point x="132" y="527" type="line"/>
      <point x="56" y="523" type="line"/>
    </contour>
    <component base="H"/>
  </outline>
</glyph>
<glyph name="hbar" format="1">
  <advance width="600"/>
  <unicode hex="0127"/>
  <outline>
    <contour>
      <point x="48" y="0" type="line"/>
      <point x="89" y="0" type="line"/>
      <point x="150" y="301" type="line"/>
      <point x="228" y="384"/>
      <point x="305" y="435"/>
      <point x="383" y="435" type="curve" smooth="yes"/>
      <point x="444" y="435"/>
      <point x="476" y="403"/>
      <point x="476" y="346" type="curve" smooth="yes"/>
      <point x="476" y="320"/>
      <point x="472" y="297"/>
      <point x="466" y="268" type="curve" smooth="yes"/>
      <point x="412" y="0" type="line"/>
      <point x="453" y="0" type="line"/>
      <point x="508" y="272" type="line" smooth="yes"/>
      <point x="514" y="299"/>
      <point x="517" y="324"/>
      <point x="517" y="355" type="curve" smooth="yes"/>
      <point x="517" y="423"/>
      <point x="482" y="472"/>
      <point x="395" y="472" type="curve" smooth="yes"/>
      <point x="299" y="472"/>
      <point x="227" y="416"/>
      <point x="161" y="353" type="curve"/>
      <point x="157" y="353" type="line"/>
      <point x="169" y="404" type="line"/>
      <point x="233" y="719" type="line"/>
      <point x="191" y="719" type="line"/>
    </contour>
    <contour>
      <point x="87" y="585" type="line"/>
      <point x="436" y="585" type="line"/>
      <point x="443" y="614" type="line"/>
      <point x="171" y="614" type="line"/>
      <point x="92" y="609" type="line"/>
    </contour>
  </outline>
</glyph>
<glyph name="Iogonek" format="1">
  <advance width="600"/>
  <unicode hex="012E"/>
  <outline>
    <contour>
      <point x="212" y="-224" type="curve" smooth="yes"/>
      <point x="245" y="-224"/>
      <point x="272" y="-212"/>
      <point x="291" y="-196" type="curve"/>
      <point x="277" y="-172" type="line"/>
      <point x="262" y="-183"/>
      <point x="245" y="-191"/>
      <point x="224" y="-191" type="curve" smooth="yes"/>
      <point x="189" y="-191"/>
      <point x="162" y="-175"/>
      <point x="162" y="-139" type="curve" smooth="yes"/>
      <point x="162" y="-93"/>
      <point x="203" y="-38"/>
      <point x="262" y="0" type="curve"/>
      <point x="428" y="0" type="line"/>
      <point x="436" y="37" type="line"/>
      <point x="265" y="37" type="line"/>
      <point x="382" y="622" type="line"/>
      <point x="554" y="622" type="line"/>
      <point x="562" y="659" type="line"/>
      <point x="178" y="659" type="line"/>
      <point x="170" y="622" type="line"/>
      <point x="339" y="622" type="line"/>
      <point x="222" y="37" type="line"/>
      <point x="54" y="37" type="line"/>
      <point x="46" y="0" type="line"/>
      <point x="220" y="0" type="line"/>
      <point x="176" y="-33"/>
      <point x="125" y="-89"/>
      <point x="125" y="-151" type="curve" smooth="yes"/>
      <point x="125" y="-203"/>
      <point x="168" y="-224"/>
    </contour>
    <contour>
      <point x="374" y="679" type="move" name="aboveUC"/>
    </contour>
  </outline>
</glyph>
<glyph name="dotlessi" format="1">
  <advance width="600"/>
  <unicode hex="0131"/>
  <outline>
    <contour>
      <point x="350" y="-12" type="curve" smooth="yes"/>
      <point x="399" y="-12"/>
      <point x="434" y="2"/>
      <point x="474" y="21" type="curve"/>
      <point x="462" y="53" type="line"/>
      <point x="425" y="36"/>
      <point x="394" y="24"/>
      <point x="359" y="24" type="curve" smooth="yes"/>
      <point x="311" y="24"/>
      <point x="277" y="48"/>
      <point x="277" y="105" type="curve" smooth="yes"/>
      <point x="277" y="115"/>
      <point x="278" y="127"/>
      <point x="281" y="140" type="curve" smooth="yes"/>
      <point x="353" y="480" type="line"/>
      <point x="127" y="480" type="line"/>
      <point x="119" y="444" type="line"/>
      <point x="305" y="444" type="line"/>
      <point x="241" y="148" type="line" smooth="yes"/>
      <point x="237" y="129"/>
      <point x="235" y="113"/>
      <point x="235" y="98" type="curve" smooth="yes"/>
      <point x="235" y="23"/>
      <point x="283" y="-12"/>
    </contour>
    <contour>
      <point x="376" y="0" type="move" name="ogonekLC"/>
    </contour>
    <contour>
      <point x="320" y="502" type="move" name="aboveLC"/>
    </contour>
    <contour>
      <point x="358" y="0" type="move" name="baseLC"/>
    </contour>
    <contour>
      <point x="345" y="-20" type="move" name="belowLC"/>
    </contour>
  </outline>
</glyph>
<glyph name="ij" format="1">
  <advance width="600"/>
  <unicode hex="0133"/>
  <outline>
    <contour>
      <point x="92" y="0" type="line"/>
      <point x="133" y="0" type="line"/>
      <point x="230" y="480" type="line"/>
      <point x="189" y="480" type="line"/>
    </contour>
    <contour>
      <point x="235" y="596" type="curve" smooth="yes"/>
      <point x="261" y="596"/>
      <point x="285" y="618"/>
      <point x="285" y="647" type="curve" smooth="yes"/>
      <point x="285" y="673"/>
      <point x="268" y="689"/>
      <point x="245" y="689" type="curve" smooth="yes"/>
      <point x="220" y="689"/>
      <point x="195" y="667"/>
      <point x="195" y="636" type="curve" smooth="yes"/>
      <point x="195" y="613"/>
      <point x="213" y="596"/>
    </contour>
    <contour>
      <point x="236" y="-229" type="curve" smooth="yes"/>
      <point x="302" y="-229"/>
      <point x="338" y="-176"/>
      <point x="357" y="-88" type="curve" smooth="yes"/>
      <point x="471" y="480" type="line"/>
      <point x="430" y="480" type="line"/>
      <point x="314" y="-93" type="line" smooth="yes"/>
      <point x="300" y="-154"/>
      <point x="276" y="-193"/>
      <point x="236" y="-193" type="curve" smooth="yes"/>
      <point x="212" y="-193"/>
      <point x="201" y="-188"/>
      <point x="189" y="-180" type="curve"/>
      <point x="173" y="-213" type="line"/>
      <point x="190" y="-222"/>
      <point x="207" y="-229"/>
    </contour>
    <contour>
      <point x="477" y="596" type="curve" smooth="yes"/>
      <point x="502" y="596"/>
      <point x="527" y="618"/>
      <point x="527" y="647" type="curve" smooth="yes"/>
      <point x="527" y="673"/>
      <point x="509" y="689"/>
      <point x="486" y="689" type="curve" smooth="yes"/>
      <point x="461" y="689"/>
      <point x="436" y="667"/>
      <point x="436" y="636" type="curve" smooth="yes"/>
      <point x="436" y="613"/>
      <point x="454" y="596"/>
    </contour>
  </outline>
</glyph>
<glyph name="kgreenlandic" format="1">
  <advance width="600"/>
  <unicode hex="0138"/>
  <outline>
    <contour>
      <point x="66" y="0" type="line"/>
      <point x="107" y="0" type="line"/>
      <point x="134" y="134" type="line"/>
      <point x="324" y="280" type="line"/>
      <point x="571" y="480" type="line"/>
      <point x="517" y="480" type="line"/>
      <point x="150" y="190" type="line"/>
      <point x="146" y="190" type="line"/>
      <point x="203" y="480" type="line"/>
      <point x="162" y="480" type="line"/>
    </contour>
    <contour>
      <point x="304" y="274" type="line"/>
      <point x="455" y="0" type="line"/>
      <point x="499" y="0" type="line"/>
      <point x="335" y="299" type="line"/>
    </contour>
  </outline>
</glyph>
<glyph name="Lslash" format="1">
  <advance width="600"/>
  <unicode hex="0141"/>
  <outline>
    <contour>
      <point x="75" y="213" type="line"/>
      <point x="181" y="262" type="line"/>
      <point x="204" y="271" type="line"/>
      <point x="475" y="398" type="line"/>
      <point x="462" y="430" type="line"/>
      <point x="212" y="311" type="line"/>
      <point x="189" y="302" type="line"/>
      <point x="63" y="244" type="line"/>
    </contour>
    <component base="L"/>
    <contour>
      <point x="279" y="679" type="move" name="aboveUC"/>
    </contour>
    <contour>
      <point x="316" y="-20" type="move" name="belowLC"/>
    </contour>
  </outline>
</glyph>
<glyph name="lslash" format="1">
  <advance width="600"/>
  <unicode hex="0142"/>
  <outline>
    <contour>
      <point x="345" y="738" type="move" name="aboveUC"/>
    </contour>
    <contour>
      <point x="328" y="-22" type="move" name="belowLC"/>
    </contour>
    <contour>
      <point x="125" y="298" type="line"/>
      <point x="267" y="371" type="line"/>
      <point x="293" y="382" type="line"/>
      <point x="502" y="492" type="line"/>
      <point x="490" y="521" type="line"/>
      <point x="302" y="424" type="line"/>
      <point x="275" y="412" type="line"/>
      <point x="113" y="327" type="line"/>
    </contour>
    <component base="l"/>
  </outline>
</glyph>
<glyph name="napostrophe" format="1">
  <advance width="600"/>
  <unicode hex="0149"/>
  <outline>
    <contour>
      <point x="126" y="0" type="line"/>
      <point x="166" y="0" type="line"/>
      <point x="236" y="352" type="line"/>
      <point x="317" y="415"/>
      <point x="369" y="455"/>
      <point x="439" y="455" type="curve" smooth="yes"/>
      <point x="514" y="455"/>
      <point x="551" y="405"/>
      <point x="530" y="302" type="curve" smooth="yes"/>
      <point x="470" y="0" type="line"/>
      <point x="510" y="0" type="line"/>
      <point x="571" y="308" type="line" smooth="yes"/>
      <point x="596" y="432"/>
      <point x="549" y="492"/>
      <point x="446" y="492" type="curve" smooth="yes"/>
      <point x="373" y="492"/>
      <point x="311" y="450"/>
      <point x="248" y="393" type="curve"/>
      <point x="244" y="393" type="line"/>
      <point x="256" y="480" type="line"/>
      <point x="221" y="480" type="line"/>
    </contour>
    <contour>
      <point x="35" y="410" type="line"/>
      <point x="138" y="455"/>
      <point x="206" y="527"/>
      <point x="206" y="626" type="curve" smooth="yes"/>
      <point x="206" y="677"/>
      <point x="184" y="700"/>
      <point x="152" y="700" type="curve" smooth="yes"/>
      <point x="111" y="700"/>
      <point x="79" y="667"/>
      <point x="79" y="627" type="curve" smooth="yes"/>
      <point x="79" y="599"/>
      <point x="97" y="581"/>
      <point x="122" y="581" type="curve" smooth="yes"/>
      <point x="147" y="581"/>
      <point x="166" y="595"/>
      <point x="186" y="615" type="curve"/>
      <point x="142" y="670" type="line"/>
      <point x="157" y="604" type="line"/>
      <point x="145" y="514"/>
      <point x="97" y="473"/>
      <point x="22" y="437" type="curve"/>
    </contour>
  </outline>
</glyph>
<glyph name="Eng" format="1">
  <advance width="600"/>
  <unicode hex="014A"/>
  <outline>
    <contour>
      <point x="322" y="-12" type="curve" smooth="yes"/>
      <point x="456" y="-12"/>
      <point x="552" y="213"/>
      <point x="552" y="453" type="curve" smooth="yes"/>
      <point x="552" y="608"/>
      <point x="481" y="671"/>
      <point x="377" y="671" type="curve" smooth="yes"/>
      <point x="321" y="671"/>
      <point x="238" y="631"/>
      <point x="187" y="581" type="curve"/>
      <point x="202" y="659" type="line"/>
      <point x="160" y="659" type="line"/>
      <point x="28" y="0" type="line"/>
      <point x="71" y="0" type="line"/>
      <point x="178" y="534" type="line"/>
      <point x="241" y="599"/>
      <point x="320" y="634"/>
      <point x="368" y="634" type="curve" smooth="yes"/>
      <point x="452" y="634"/>
      <point x="509" y="587"/>
      <point x="509" y="447" type="curve" smooth="yes"/>
      <point x="509" y="240"/>
      <point x="422" y="25"/>
      <point x="322" y="25" type="curve" smooth="yes"/>
      <point x="299" y="25"/>
      <point x="284" y="31"/>
      <point x="268" y="40" type="curve"/>
      <point x="248" y="6" type="line"/>
      <point x="267" y="-4"/>
      <point x="298" y="-12"/>
    </contour>
    <contour>
      <point x="380" y="679" type="move" name="aboveUC"/>
    </contour>
    <contour>
      <point x="237" y="-20" type="move" name="belowLC"/>
    </contour>
  </outline>
</glyph>
<glyph name="eng" format="1">
  <advance width="600"/>
  <unicode hex="014B"/>
  <outline>
    <contour>
      <point x="323" y="-181" type="curve" smooth="yes"/>
      <point x="392" y="-181"/>
      <point x="426" y="-133"/>
      <point x="444" y="-43" type="curve"/>
      <point x="511" y="292" type="line" smooth="yes"/>
      <point x="517" y="320"/>
      <point x="521" y="344"/>
      <point x="521" y="375" type="curve" smooth="yes"/>
      <point x="521" y="443"/>
      <point x="486" y="492"/>
      <point x="398" y="492" type="curve" smooth="yes"/>
      <point x="302" y="492"/>
      <point x="230" y="435"/>
      <point x="166" y="373" type="curve"/>
      <point x="162" y="373" type="line"/>
      <point x="178" y="480" type="line"/>
      <point x="144" y="480" type="line"/>
      <point x="48" y="0" type="line"/>
      <point x="89" y="0" type="line"/>
      <point x="154" y="321" type="line"/>
      <point x="232" y="404"/>
      <point x="308" y="455"/>
      <point x="387" y="455" type="curve" smooth="yes"/>
      <point x="447" y="455"/>
      <point x="480" y="423"/>
      <point x="480" y="367" type="curve" smooth="yes"/>
      <point x="480" y="340"/>
      <point x="476" y="317"/>
      <point x="470" y="288" type="curve" smooth="yes"/>
      <point x="403" y="-44" type="line"/>
      <point x="389" y="-111"/>
      <point x="366" y="-145"/>
      <point x="324" y="-145" type="curve" smooth="yes"/>
      <point x="299" y="-145"/>
      <point x="288" y="-139"/>
      <point x="276" y="-131" type="curve"/>
      <point x="261" y="-164" type="line"/>
      <point x="277" y="-173"/>
      <point x="294" y="-181"/>
    </contour>
    <contour>
      <point x="350" y="502" type="move" name="aboveLC"/>
    </contour>
  </outline>
</glyph>
<glyph name="OE" format="1">
  <advance width="600"/>
  <unicode hex="0152"/>
  <outline>
    <contour>
      <point x="263" y="0" type="curve" smooth="yes"/>
      <point x="526" y="0" type="line"/>
      <point x="534" y="37" type="line"/>
      <point x="308" y="37" type="line"/>
      <point x="369" y="331" type="line"/>
      <point x="532" y="331" type="line"/>
      <point x="540" y="368" type="line"/>
      <point x="375" y="368" type="line"/>
      <point x="426" y="622" type="line"/>
      <point x="642" y="622" type="line"/>
      <point x="650" y="659" type="line"/>
      <point x="386" y="659" type="line" smooth="yes"/>
      <point x="169" y="659"/>
      <point x="35" y="479"/>
      <point x="35" y="246" type="curve" smooth="yes"/>
      <point x="35" y="98"/>
      <point x="93" y="0"/>
    </contour>
    <contour>
      <point x="265" y="36" type="line" smooth="yes"/>
      <point x="122" y="36"/>
      <point x="79" y="122"/>
      <point x="79" y="249" type="curve" smooth="yes"/>
      <point x="79" y="450"/>
      <point x="189" y="623"/>
      <point x="382" y="623" type="curve" smooth="yes"/>
      <point x="387" y="623" type="line"/>
      <point x="269" y="36" type="line"/>
    </contour>
    <contour>
      <point x="429" y="679" type="move" name="aboveUC"/>
    </contour>
    <contour>
      <point x="360" y="0" type="move" name="baseLC"/>
    </contour>
  </outline>
</glyph>
<glyph name="oe" format="1">
  <advance width="600"/>
  <unicode hex="0153"/>
  <outline>
    <contour>
      <point x="261" y="502" type="move" name="aboveLC"/>
    </contour>
    <contour>
      <point x="120" y="-12" type="curve" smooth="yes"/>
      <point x="188" y="-12"/>
      <point x="249" y="31"/>
      <point x="291" y="119" type="curve"/>
      <point x="286" y="127" type="line"/>
      <point x="290" y="35"/>
      <point x="340" y="-12"/>
      <point x="411" y="-12" type="curve" smooth="yes"/>
      <point x="462" y="-12"/>
      <point x="515" y="9"/>
      <point x="545" y="31" type="curve"/>
      <point x="529" y="60" type="line"/>
      <point x="502" y="40"/>
      <point x="461" y="23"/>
      <point x="419" y="23" type="curve" smooth="yes"/>
      <point x="352" y="23"/>
      <point x="320" y="70"/>
      <point x="320" y="155" type="curve" smooth="yes"/>
      <point x="320" y="300"/>
      <point x="398" y="457"/>
      <point x="488" y="457" type="curve" smooth="yes"/>
      <point x="545" y="457"/>
      <point x="562" y="407"/>
      <point x="562" y="343" type="curve" smooth="yes"/>
      <point x="562" y="317"/>
      <point x="557" y="284"/>
      <point x="550" y="259" type="curve"/>
      <point x="561" y="267" type="line"/>
      <point x="319" y="267" type="line"/>
      <point x="318" y="235" type="line"/>
      <point x="584" y="235" type="line"/>
      <point x="590" y="256"/>
      <point x="600" y="303"/>
      <point x="600" y="345" type="curve" smooth="yes"/>
      <point x="600" y="439"/>
      <point x="565" y="492"/>
      <point x="496" y="492" type="curve" smooth="yes"/>
      <point x="425" y="492"/>
      <point x="366" y="438"/>
      <point x="326" y="346" type="curve"/>
      <point x="329" y="344" type="line"/>
      <point x="322" y="438"/>
      <point x="283" y="492"/>
      <point x="212" y="492" type="curve" smooth="yes"/>
      <point x="95" y="492"/>
      <point x="-10" y="360"/>
      <point x="-10" y="169" type="curve" smooth="yes"/>
      <point x="-10" y="56"/>
      <point x="34" y="-12"/>
    </contour>
    <contour>
      <point x="31" y="171" type="curve" smooth="yes"/>
      <point x="31" y="317"/>
      <point x="108" y="457"/>
      <point x="210" y="457" type="curve" smooth="yes"/>
      <point x="267" y="457"/>
      <point x="297" y="399"/>
      <point x="297" y="306" type="curve" smooth="yes"/>
      <point x="297" y="154"/>
      <point x="218" y="23"/>
      <point x="126" y="23" type="curve" smooth="yes"/>
      <point x="63" y="23"/>
      <point x="31" y="83"/>
    </contour>
  </outline>
</glyph>
<glyph name="Tbar" format="1">
  <advance width="600"/>
  <unicode hex="0166"/>
  <outline>
    <contour>
      <point x="150" y="354" type="line"/>
      <point x="462" y="354" type="line"/>
      <point x="468" y="383" type="line"/>
      <point x="232" y="383" type="line"/>
      <point x="155" y="379" type="line"/>
    </contour>
    <component base="T"/>
  </outline>
</glyph>
<glyph name="tbar" format="1">
  <advance width="600"/>
  <unicode hex="0167"/>
  <outline>
    <contour>
      <point x="50" y="260" type="line"/>
      <point x="473" y="260" type="line"/>
      <point x="479" y="289" type="line"/>
      <point x="202" y="289" type="line"/>
      <point x="55" y="285" type="line"/>
    </contour>
    <component base="t"/>
  </outline>
</glyph>
<glyph name="Uogonek" format="1">
  <advance width="600"/>
  <unicode hex="0172"/>
  <outline>
    <contour>
      <point x="374" y="682" type="move" name="aboveUC"/>
    </contour>
    <contour>
      <point x="234" y="-224" type="curve" smooth="yes"/>
      <point x="267" y="-224"/>
      <point x="293" y="-212"/>
      <point x="313" y="-196" type="curve"/>
      <point x="299" y="-172" type="line"/>
      <point x="283" y="-183"/>
      <point x="266" y="-191"/>
      <point x="245" y="-191" type="curve" smooth="yes"/>
      <point x="211" y="-191"/>
      <point x="184" y="-175"/>
      <point x="184" y="-139" type="curve" smooth="yes"/>
      <point x="184" y="-98"/>
      <point x="232" y="-27"/>
      <point x="312" y="-6" type="curve" smooth="yes"/>
      <point x="399" y="17"/>
      <point x="466" y="83"/>
      <point x="496" y="234" type="curve" smooth="yes"/>
      <point x="581" y="659" type="line"/>
      <point x="539" y="659" type="line"/>
      <point x="456" y="242" type="line" smooth="yes"/>
      <point x="425" y="84"/>
      <point x="347" y="25"/>
      <point x="264" y="25" type="curve" smooth="yes"/>
      <point x="164" y="25"/>
      <point x="114" y="86"/>
      <point x="114" y="191" type="curve" smooth="yes"/>
      <point x="114" y="215"/>
      <point x="116" y="240"/>
      <point x="124" y="272" type="curve" smooth="yes"/>
      <point x="201" y="659" type="line"/>
      <point x="158" y="659" type="line"/>
      <point x="79" y="267" type="line" smooth="yes"/>
      <point x="73" y="234"/>
      <point x="71" y="209"/>
      <point x="71" y="183" type="curve" smooth="yes"/>
      <point x="71" y="60"/>
      <point x="138" y="-5"/>
      <point x="242" y="-12" type="curve"/>
      <point x="193" y="-41"/>
      <point x="146" y="-95"/>
      <point x="146" y="-151" type="curve" smooth="yes"/>
      <point x="146" y="-203"/>
      <point x="189" y="-224"/>
    </contour>
  </outline>
</glyph>
<glyph name="uogonek" format="1">
  <advance width="600"/>
  <unicode hex="0173"/>
  <outline>
    <contour>
      <point x="369" y="-224" type="curve" smooth="yes"/>
      <point x="403" y="-224"/>
      <point x="429" y="-212"/>
      <point x="448" y="-195" type="curve"/>
      <point x="435" y="-173" type="line"/>
      <point x="419" y="-184"/>
      <point x="402" y="-192"/>
      <point x="380" y="-192" type="curve" smooth="yes"/>
      <point x="346" y="-192"/>
      <point x="318" y="-176"/>
      <point x="318" y="-139" type="curve" smooth="yes"/>
      <point x="318" y="-91"/>
      <point x="364" y="-47"/>
      <point x="441" y="-7" type="curve"/>
      <point x="539" y="480" type="line"/>
      <point x="498" y="480" type="line"/>
      <point x="433" y="159" type="line"/>
      <point x="355" y="76"/>
      <point x="279" y="25"/>
      <point x="200" y="25" type="curve" smooth="yes"/>
      <point x="140" y="25"/>
      <point x="108" y="57"/>
      <point x="108" y="114" type="curve" smooth="yes"/>
      <point x="108" y="140"/>
      <point x="112" y="163"/>
      <point x="118" y="192" type="curve" smooth="yes"/>
      <point x="176" y="480" type="line"/>
      <point x="134" y="480" type="line"/>
      <point x="76" y="188" type="line" smooth="yes"/>
      <point x="70" y="161"/>
      <point x="66" y="136"/>
      <point x="66" y="105" type="curve" smooth="yes"/>
      <point x="66" y="37"/>
      <point x="102" y="-12"/>
      <point x="190" y="-12" type="curve" smooth="yes"/>
      <point x="285" y="-12"/>
      <point x="357" y="45"/>
      <point x="421" y="107" type="curve"/>
      <point x="425" y="107" type="line"/>
      <point x="409" y="0" type="line"/>
      <point x="340" y="-36"/>
      <point x="282" y="-83"/>
      <point x="282" y="-151" type="curve" smooth="yes"/>
      <point x="282" y="-203"/>
      <point x="325" y="-224"/>
    </contour>
    <contour>
      <point x="338" y="502" type="move" name="aboveLC"/>
    </contour>
  </outline>
</glyph>
<glyph name="Dhook" format="1">
  <advance width="600"/>
  <unicode hex="018A"/>
  <outline>
    <contour>
      <point x="160" y="0" type="line"/>
      <point x="209" y="0" type="line" smooth="yes"/>
      <point x="449" y="0"/>
      <point x="575" y="178"/>
      <point x="575" y="407" type="curve" smooth="yes"/>
      <point x="575" y="569"/>
      <point x="492" y="671"/>
      <point x="326" y="671" type="curve" smooth="yes"/>
      <point x="157" y="671"/>
      <point x="54" y="533"/>
      <point x="54" y="403" type="curve" smooth="yes"/>
      <point x="54" y="337"/>
      <point x="84" y="291"/>
      <point x="130" y="268" type="curve"/>
      <point x="152" y="300" type="line"/>
      <point x="111" y="323"/>
      <point x="91" y="359"/>
      <point x="91" y="407" type="curve" smooth="yes"/>
      <point x="91" y="516"/>
      <point x="182" y="635"/>
      <point x="313" y="635" type="curve" smooth="yes"/>
      <point x="322" y="635" type="line" smooth="yes"/>
      <point x="465" y="635"/>
      <point x="532" y="544"/>
      <point x="532" y="404" type="curve" smooth="yes"/>
      <point x="532" y="195"/>
      <point x="416" y="36"/>
      <point x="216" y="36" type="curve" smooth="yes"/>
      <point x="207" y="36" type="line"/>
      <point x="328" y="641" type="line"/>
      <point x="288" y="641" type="line"/>
    </contour>
    <contour>
      <point x="381" y="679" type="move" name="aboveUC"/>
    </contour>
    <contour>
      <point x="279" y="-20" type="move" name="belowLC"/>
    </contour>
  </outline>
</glyph>
<glyph name="florin" format="1">
  <advance width="600"/>
  <unicode hex="0192"/>
  <outline>
    <contour>
      <point x="69" y="-98" type="curve" smooth="yes"/>
      <point x="136" y="-98"/>
      <point x="195" y="-73"/>
      <point x="233" y="52" type="curve" smooth="yes"/>
      <point x="376" y="503" type="line" smooth="yes"/>
      <point x="400" y="583"/>
      <point x="438" y="639"/>
      <point x="508" y="639" type="curve" smooth="yes"/>
      <point x="544" y="639"/>
      <point x="567" y="624"/>
      <point x="582" y="611" type="curve"/>
      <point x="603" y="637" type="line"/>
      <point x="584" y="654"/>
      <point x="552" y="671"/>
      <point x="513" y="671" type="curve" smooth="yes"/>
      <point x="423" y="671"/>
      <point x="374" y="622"/>
      <point x="338" y="508" type="curve" smooth="yes"/>
      <point x="196" y="57" type="line" smooth="yes"/>
      <point x="170" y="-26"/>
      <point x="131" y="-63"/>
      <point x="77" y="-63" type="curve" smooth="yes"/>
      <point x="42" y="-64"/>
      <point x="14" y="-52"/>
      <point x="-4" y="-39" type="curve"/>
      <point x="-22" y="-71" type="line"/>
      <point x="-5" y="-82"/>
      <point x="30" y="-98"/>
    </contour>
    <contour>
      <point x="180" y="373" type="line"/>
      <point x="498" y="373" type="line"/>
      <point x="504" y="405" type="line"/>
      <point x="254" y="405" type="line"/>
      <point x="186" y="401" type="line"/>
    </contour>
  </outline>
</glyph>
<glyph name="Ohorn" format="1">
  <advance width="600"/>
  <unicode hex="01A0"/>
  <outline>
    <contour>
      <point x="374" y="681" type="move" name="aboveUC"/>
    </contour>
    <contour>
      <point x="239" y="-22" type="move" name="belowLC"/>
    </contour>
    <contour>
      <point x="485" y="616" type="line"/>
      <point x="553" y="627"/>
      <point x="612" y="668"/>
      <point x="612" y="746" type="curve" smooth="yes"/>
      <point x="612" y="761"/>
      <point x="610" y="776"/>
      <point x="603" y="794" type="curve"/>
      <point x="565" y="778" type="line"/>
      <point x="571" y="764"/>
      <point x="571" y="752"/>
      <point x="571" y="740" type="curve" smooth="yes"/>
      <point x="571" y="683"/>
      <point x="527" y="646"/>
      <point x="455" y="643" type="curve"/>
    </contour>
    <component base="O"/>
  </outline>
</glyph>
<glyph name="ohorn" format="1">
  <advance width="600"/>
  <unicode hex="01A1"/>
  <outline>
    <contour>
      <point x="338" y="502" type="move" name="aboveLC"/>
    </contour>
    <contour>
      <point x="234" y="-22" type="move" name="belowLC"/>
    </contour>
    <contour>
      <point x="442" y="441" type="line"/>
      <point x="502" y="453"/>
      <point x="574" y="489"/>
      <point x="574" y="572" type="curve" smooth="yes"/>
      <point x="574" y="589"/>
      <point x="571" y="608"/>
      <point x="565" y="626" type="curve"/>
      <point x="528" y="610" type="line"/>
      <point x="533" y="596"/>
      <point x="535" y="580"/>
      <point x="534" y="568" type="curve" smooth="yes"/>
      <point x="531" y="505"/>
      <point x="485" y="472"/>
      <point x="412" y="467" type="curve"/>
    </contour>
    <component base="o"/>
  </outline>
</glyph>
<glyph name="Uhorn" format="1">
  <advance width="600"/>
  <unicode hex="01AF"/>
  <outline>
    <contour>
      <point x="374" y="682" type="move" name="aboveUC"/>
    </contour>
    <contour>
      <point x="234" y="-22" type="move" name="belowLC"/>
    </contour>
    <contour>
      <point x="574" y="632" type="line"/>
      <point x="642" y="643"/>
      <point x="703" y="683"/>
      <point x="703" y="761" type="curve" smooth="yes"/>
      <point x="703" y="776"/>
      <point x="701" y="790"/>
      <point x="694" y="808" type="curve"/>
      <point x="655" y="793" type="line"/>
      <point x="661" y="778"/>
      <point x="662" y="766"/>
      <point x="662" y="754" type="curve" smooth="yes"/>
      <point x="662" y="697"/>
      <point x="618" y="662"/>
      <point x="547" y="659" type="curve"/>
    </contour>
    <component base="U"/>
  </outline>
</glyph>
<glyph name="uhorn" format="1">
  <advance width="600"/>
  <unicode hex="01B0"/>
  <outline>
    <contour>
      <point x="339" y="502" type="move" name="aboveLC"/>
    </contour>
    <contour>
      <point x="251" y="-22" type="move" name="belowLC"/>
    </contour>
    <contour>
      <point x="533" y="455" type="line"/>
      <point x="574" y="464"/>
      <point x="646" y="503"/>
      <point x="646" y="586" type="curve" smooth="yes"/>
      <point x="646" y="603"/>
      <point x="644" y="622"/>
      <point x="637" y="641" type="curve"/>
      <point x="600" y="625" type="line"/>
      <point x="605" y="610"/>
      <point x="608" y="594"/>
      <point x="607" y="582" type="curve" smooth="yes"/>
      <point x="603" y="518"/>
      <point x="556" y="484"/>
      <point x="506" y="480" type="curve"/>
    </contour>
    <component base="u"/>
  </outline>
</glyph>
<glyph name="aringacute" format="1">
  <advance width="600"/>
  <unicode hex="01FB"/>
  <outline>
    <contour>
      <point x="364" y="706" type="line"/>
      <point x="503" y="790" type="line"/>
      <point x="481" y="820" type="line"/>
      <point x="348" y="725" type="line"/>
    </contour>
    <component base="aring"/>
  </outline>
</glyph>
<glyph name="schwahookrhotic" format="1">
  <advance width="600"/>
  <unicode hex="025A"/>
  <outline>
    <contour>
      <point x="174" y="-12" type="curve" smooth="yes"/>
      <point x="292" y="-12"/>
      <point x="386" y="102"/>
      <point x="412" y="239" type="curve" smooth="yes"/>
      <point x="445" y="403"/>
      <point x="371" y="492"/>
      <point x="255" y="492" type="curve" smooth="yes"/>
      <point x="183" y="492"/>
      <point x="135" y="469"/>
      <point x="91" y="442" type="curve"/>
      <point x="102" y="408" type="line"/>
      <point x="146" y="435"/>
      <point x="186" y="454"/>
      <point x="245" y="454" type="curve" smooth="yes"/>
      <point x="336" y="454"/>
      <point x="396" y="383"/>
      <point x="368" y="237" type="curve" smooth="yes"/>
      <point x="346" y="123"/>
      <point x="273" y="26"/>
      <point x="181" y="26" type="curve" smooth="yes"/>
      <point x="98" y="26"/>
      <point x="47" y="78"/>
      <point x="48" y="166" type="curve"/>
      <point x="488" y="327" type="line"/>
      <point x="484" y="258"/>
      <point x="517" y="233"/>
      <point x="550" y="233" type="curve" smooth="yes"/>
      <point x="577" y="233"/>
      <point x="599" y="246"/>
      <point x="615" y="257" type="curve"/>
      <point x="603" y="285" type="line"/>
      <point x="592" y="276"/>
      <point x="576" y="268"/>
      <point x="562" y="268" type="curve" smooth="yes"/>
      <point x="535" y="268"/>
      <point x="520" y="279"/>
      <point x="526" y="355" type="curve"/>
      <point x="499" y="367" type="line"/>
      <point x="9" y="186" type="line"/>
      <point x="-1" y="77"/>
      <point x="55" y="-12"/>
    </contour>
    <contour>
      <point x="259" y="502" type="move" name="aboveLC"/>
    </contour>
    <contour>
      <point x="168" y="-20" type="move" name="belowLC"/>
    </contour>
  </outline>
</glyph>
<glyph name="gscript" format="1">
	<unicode hex="0261"/>
	<advance width="600"/>
	<outline>
		<component base="g"/>
		<contour>
			<point name="aboveLC" x="357" y="502" type="move"/>
		</contour>
		<contour>
			<point name="belowLC" x="220" y="-227" type="move"/>
		</contour>
	</outline>
</glyph>
<glyph name="hturned" format="1">
	<unicode hex="0265"/>
	<advance width="600"/>
	<outline>
		<contour>
			<point x="359" y="-217" type="line"/>
			<point x="400" y="-217" type="line"/>
			<point x="540" y="480" type="line"/>
			<point x="499" y="480" type="line"/>
			<point x="433" y="159" type="line"/>
			<point x="356" y="76"/>
			<point x="279" y="25"/>
			<point x="200" y="25" type="curve" smooth="yes"/>
			<point x="140" y="25"/>
			<point x="108" y="57"/>
			<point x="108" y="114" type="curve" smooth="yes"/>
			<point x="108" y="140"/>
			<point x="112" y="163"/>
			<point x="118" y="192" type="curve" smooth="yes"/>
			<point x="176" y="480" type="line"/>
			<point x="134" y="480" type="line"/>
			<point x="76" y="188" type="line" smooth="yes"/>
			<point x="70" y="161"/>
			<point x="66" y="136"/>
			<point x="66" y="105" type="curve" smooth="yes"/>
			<point x="66" y="37"/>
			<point x="102" y="-12"/>
			<point x="189" y="-12" type="curve" smooth="yes"/>
			<point x="285" y="-12"/>
			<point x="356" y="44"/>
			<point x="422" y="107" type="curve"/>
			<point x="426" y="107" type="line"/>
			<point x="415" y="56" type="line"/>
		</contour>
		<contour>
			<point name="aboveLC" x="338" y="502" type="move"/>
		</contour>
		<contour>
			<point name="belowLC" x="239" y="-20" type="move"/>
		</contour>
	</outline>
</glyph>
<glyph name="hhook" format="1">
  <advance width="600"/>
  <unicode hex="0266"/>
  <outline>
    <contour>
      <point x="48" y="0" type="line"/>
      <point x="89" y="0" type="line"/>
      <point x="154" y="319" type="line"/>
      <point x="231" y="402"/>
      <point x="308" y="453"/>
      <point x="387" y="453" type="curve" smooth="yes"/>
      <point x="447" y="453"/>
      <point x="479" y="421"/>
      <point x="479" y="365" type="curve" smooth="yes"/>
      <point x="479" y="338"/>
      <point x="475" y="315"/>
      <point x="469" y="286" type="curve" smooth="yes"/>
      <point x="412" y="0" type="line"/>
      <point x="453" y="0" type="line"/>
      <point x="511" y="290" type="line" smooth="yes"/>
      <point x="517" y="318"/>
      <point x="521" y="342"/>
      <point x="521" y="373" type="curve" smooth="yes"/>
      <point x="521" y="441"/>
      <point x="485" y="490"/>
      <point x="398" y="490" type="curve" smooth="yes"/>
      <point x="302" y="490"/>
      <point x="231" y="434"/>
      <point x="165" y="372" type="curve"/>
      <point x="161" y="372" type="line"/>
      <point x="199" y="548" type="line"/>
      <point x="221" y="653"/>
      <point x="269" y="695"/>
      <point x="339" y="695" type="curve" smooth="yes"/>
      <point x="365" y="695"/>
      <point x="390" y="687"/>
      <point x="409" y="673" type="curve"/>
      <point x="427" y="706" type="line"/>
      <point x="404" y="721"/>
      <point x="372" y="731"/>
      <point x="341" y="731" type="curve" smooth="yes"/>
      <point x="247" y="731"/>
      <point x="184" y="678"/>
      <point x="158" y="551" type="curve" smooth="yes"/>
    </contour>
    <contour>
      <point x="305" y="739" type="move" name="aboveUC"/>
    </contour>
    <contour>
      <point x="265" y="-20" type="move" name="belowLC"/>
    </contour>
  </outline>
</glyph>
<glyph name="lmiddletilde" format="1">
	<unicode hex="026B"/>
	<advance width="600"/>
	<outline>
		<component base="l"/>
		<component base="tildeoverlaycmb" yOffset="155"/>
		<contour>
			<point name="aboveUC" x="346" y="739" type="move"/>
		</contour>
		<contour>
			<point name="belowLC" x="328" y="-20" type="move"/>
		</contour>
	</outline>
</glyph>
<glyph name="lretroflex" format="1">
	<unicode hex="026D"/>
	<advance width="600"/>
	<outline>
		<contour>
			<point x="290" y="-181" type="curve" smooth="yes"/>
			<point x="333" y="-181"/>
			<point x="376" y="-169"/>
			<point x="415" y="-149" type="curve"/>
			<point x="402" y="-115" type="line"/>
			<point x="364" y="-135"/>
			<point x="332" y="-144"/>
			<point x="298" y="-144" type="curve" smooth="yes"/>
			<point x="247" y="-144"/>
			<point x="216" y="-120"/>
			<point x="216" y="-62" type="curve" smooth="yes"/>
			<point x="216" y="-48"/>
			<point x="218" y="-31"/>
			<point x="222" y="-14" type="curve" smooth="yes"/>
			<point x="370" y="719" type="line"/>
			<point x="157" y="719" type="line"/>
			<point x="149" y="684" type="line"/>
			<point x="323" y="684" type="line"/>
			<point x="179" y="-19" type="line" smooth="yes"/>
			<point x="175" y="-38"/>
			<point x="173" y="-52"/>
			<point x="173" y="-67" type="curve" smooth="yes"/>
			<point x="173" y="-144"/>
			<point x="223" y="-181"/>
		</contour>
		<contour>
			<point name="aboveUC" x="346" y="739" type="move"/>
		</contour>
		<contour>
			<point name="belowLC" x="279" y="-182" type="move"/>
		</contour>
	</outline>
</glyph>
<glyph name="mhook" format="1">
  <advance width="600"/>
  <unicode hex="0271"/>
  <outline>
    <contour>
      <point x="363" y="-181" type="curve" smooth="yes"/>
      <point x="426" y="-181"/>
      <point x="454" y="-133"/>
      <point x="473" y="-39" type="curve" smooth="yes"/>
      <point x="550" y="352" type="line" smooth="yes"/>
      <point x="555" y="378"/>
      <point x="556" y="393"/>
      <point x="556" y="409" type="curve" smooth="yes"/>
      <point x="556" y="467"/>
      <point x="528" y="492"/>
      <point x="482" y="492" type="curve" smooth="yes"/>
      <point x="438" y="492"/>
      <point x="387" y="468"/>
      <point x="329" y="394" type="curve"/>
      <point x="341" y="407" type="line"/>
      <point x="341" y="468"/>
      <point x="313" y="492"/>
      <point x="268" y="492" type="curve" smooth="yes"/>
      <point x="222" y="492"/>
      <point x="180" y="468"/>
      <point x="135" y="413" type="curve"/>
      <point x="133" y="413" type="line"/>
      <point x="141" y="480" type="line"/>
      <point x="108" y="480" type="line"/>
      <point x="12" y="0" type="line"/>
      <point x="53" y="0" type="line"/>
      <point x="124" y="359" type="line"/>
      <point x="171" y="423"/>
      <point x="208" y="455"/>
      <point x="254" y="455" type="curve" smooth="yes"/>
      <point x="285" y="455"/>
      <point x="301" y="439"/>
      <point x="301" y="398" type="curve" smooth="yes"/>
      <point x="301" y="384"/>
      <point x="300" y="370"/>
      <point x="296" y="351" type="curve" smooth="yes"/>
      <point x="225" y="0" type="line"/>
      <point x="266" y="0" type="line"/>
      <point x="338" y="359" type="line"/>
      <point x="382" y="423"/>
      <point x="423" y="455"/>
      <point x="468" y="455" type="curve" smooth="yes"/>
      <point x="498" y="455"/>
      <point x="514" y="439"/>
      <point x="514" y="398" type="curve" smooth="yes"/>
      <point x="514" y="384"/>
      <point x="512" y="370"/>
      <point x="509" y="351" type="curve" smooth="yes"/>
      <point x="430" y="-43" type="line" smooth="yes"/>
      <point x="416" y="-110"/>
      <point x="397" y="-145"/>
      <point x="363" y="-145" type="curve" smooth="yes"/>
      <point x="339" y="-145"/>
      <point x="329" y="-139"/>
      <point x="317" y="-131" type="curve"/>
      <point x="301" y="-164" type="line"/>
      <point x="317" y="-173"/>
      <point x="334" y="-181"/>
    </contour>
    <contour>
      <point x="350" y="500" type="move" name="aboveLC"/>
    </contour>
  </outline>
</glyph>
<glyph name="rtail" format="1">
	<unicode hex="027D"/>
	<advance width="600"/>
	<outline>
		<contour>
			<point x="233" y="-181" type="curve" smooth="yes"/>
			<point x="284" y="-181"/>
			<point x="328" y="-163"/>
			<point x="363" y="-141" type="curve"/>
			<point x="347" y="-110" type="line"/>
			<point x="315" y="-127"/>
			<point x="281" y="-144"/>
			<point x="239" y="-144" type="curve" smooth="yes"/>
			<point x="182" y="-144"/>
			<point x="147" y="-110"/>
			<point x="147" y="-41" type="curve" smooth="yes"/>
			<point x="147" y="-26"/>
			<point x="149" y="-10"/>
			<point x="153" y="8" type="curve" smooth="yes"/>
			<point x="207" y="273" type="line"/>
			<point x="279" y="378"/>
			<point x="359" y="453"/>
			<point x="440" y="453" type="curve" smooth="yes"/>
			<point x="475" y="453"/>
			<point x="497" y="447"/>
			<point x="523" y="430" type="curve"/>
			<point x="544" y="465" type="line"/>
			<point x="521" y="481"/>
			<point x="488" y="492"/>
			<point x="446" y="492" type="curve" smooth="yes"/>
			<point x="356" y="492"/>
			<point x="277" y="417"/>
			<point x="221" y="338" type="curve"/>
			<point x="217" y="338" type="line"/>
			<point x="242" y="480" type="line"/>
			<point x="207" y="480" type="line"/>
			<point x="113" y="14" type="line" smooth="yes"/>
			<point x="109" y="-7"/>
			<point x="105" y="-27"/>
			<point x="105" y="-48" type="curve" smooth="yes"/>
			<point x="105" y="-126"/>
			<point x="146" y="-181"/>
		</contour>
		<contour>
			<point name="aboveLC" x="378" y="502" type="move"/>
		</contour>
		<contour>
			<point name="belowLC" x="215" y="-182" type="move"/>
		</contour>
	</outline>
</glyph>
<glyph name="tturned" format="1">
  <advance width="600"/>
  <unicode hex="0287"/>
  <outline>
    <component base="t" xScale="-1.0" yScale="-1.0" xOffset="580" yOffset="480"/>
    <contour>
      <point x="300" y="502" type="move" name="aboveLC"/>
    </contour>
    <contour>
      <point x="287" y="-159" type="move" name="belowLC"/>
    </contour>
  </outline>
</glyph>
<glyph name="zcurl" format="1">
  <advance width="600"/>
  <unicode hex="0291"/>
  <outline>
    <contour>
      <point x="274" y="-121" type="line"/>
      <point x="346" y="77"/>
      <point x="417" y="154"/>
      <point x="478" y="154" type="curve" smooth="yes"/>
      <point x="506" y="154"/>
      <point x="520" y="139"/>
      <point x="520" y="118" type="curve" smooth="yes"/>
      <point x="520" y="77"/>
      <point x="482" y="35"/>
      <point x="383" y="35" type="curve" smooth="yes"/>
      <point x="295" y="35"/>
      <point x="196" y="35"/>
      <point x="105" y="36" type="curve"/>
      <point x="520" y="455" type="line"/>
      <point x="523" y="480" type="line"/>
      <point x="129" y="480" type="line"/>
      <point x="121" y="445" type="line"/>
      <point x="459" y="445" type="line"/>
      <point x="45" y="26" type="line"/>
      <point x="41" y="0" type="line"/>
      <point x="374" y="0" type="line" smooth="yes"/>
      <point x="506" y="0"/>
      <point x="555" y="60"/>
      <point x="555" y="126" type="curve" smooth="yes"/>
      <point x="555" y="160"/>
      <point x="529" y="188"/>
      <point x="483" y="188" type="curve" smooth="yes"/>
      <point x="400" y="188"/>
      <point x="322" y="96"/>
      <point x="242" y="-112" type="curve"/>
    </contour>
    <contour>
      <point x="330" y="502" type="move" name="aboveLC"/>
    </contour>
  </outline>
</glyph>
<glyph name="hsmall" format="1">
  <advance width="600"/>
  <unicode hex="029C"/>
  <outline>
    <contour>
      <point x="46" y="0" type="line"/>
      <point x="87" y="0" type="line"/>
      <point x="134" y="233" type="line"/>
      <point x="440" y="233" type="line"/>
      <point x="393" y="0" type="line"/>
      <point x="434" y="0" type="line"/>
      <point x="530" y="480" type="line"/>
      <point x="489" y="480" type="line"/>
      <point x="448" y="270" type="line"/>
      <point x="142" y="270" type="line"/>
      <point x="183" y="480" type="line"/>
      <point x="142" y="480" type="line"/>
    </contour>
    <contour>
      <point x="339" y="502" type="move" name="aboveLC"/>
    </contour>
    <contour>
      <point x="234" y="-20" type="move" name="belowLC"/>
    </contour>
  </outline>
</glyph>
<glyph name="ts" format="1">
  <advance width="600"/>
  <unicode hex="02A6"/>
  <outline>
    <contour>
      <point x="261" y="-12" type="curve" smooth="yes"/>
      <point x="449" y="-12"/>
      <point x="517" y="55"/>
      <point x="517" y="149" type="curve" smooth="yes"/>
      <point x="517" y="284"/>
      <point x="359" y="278"/>
      <point x="359" y="378" type="curve" smooth="yes"/>
      <point x="359" y="420"/>
      <point x="396" y="457"/>
      <point x="448" y="457" type="curve" smooth="yes"/>
      <point x="488" y="457"/>
      <point x="513" y="438"/>
      <point x="537" y="415" type="curve"/>
      <point x="561" y="441" type="line"/>
      <point x="532" y="472"/>
      <point x="496" y="492"/>
      <point x="450" y="492" type="curve" smooth="yes"/>
      <point x="380" y="492"/>
      <point x="319" y="445"/>
      <point x="319" y="371" type="curve" smooth="yes"/>
      <point x="319" y="251"/>
      <point x="477" y="263"/>
      <point x="477" y="142" type="curve" smooth="yes"/>
      <point x="477" y="81"/>
      <point x="422" y="23"/>
      <point x="267" y="23" type="curve" smooth="yes"/>
      <point x="156" y="23"/>
      <point x="118" y="60"/>
      <point x="118" y="122" type="curve" smooth="yes"/>
      <point x="118" y="142"/>
      <point x="121" y="154"/>
      <point x="124" y="169" type="curve" smooth="yes"/>
      <point x="181" y="444" type="line"/>
      <point x="396" y="444" type="line"/>
      <point x="404" y="480" type="line"/>
      <point x="189" y="480" type="line"/>
      <point x="221" y="639" type="line"/>
      <point x="186" y="639" type="line"/>
      <point x="148" y="480" type="line"/>
      <point x="71" y="476" type="line"/>
      <point x="65" y="444" type="line"/>
      <point x="140" y="444" type="line"/>
      <point x="83" y="171" type="line" smooth="yes"/>
      <point x="80" y="159"/>
      <point x="76" y="136"/>
      <point x="76" y="114" type="curve" smooth="yes"/>
      <point x="76" y="38"/>
      <point x="125" y="-12"/>
    </contour>
    <contour>
      <point x="346" y="631" type="move" name="aboveLC"/>
    </contour>
    <contour>
      <point x="279" y="-20" type="move" name="belowLC"/>
    </contour>
  </outline>
</glyph>
<glyph name="ringhalfleftmod" format="1">
  <advance width="600"/>
  <unicode hex="02BF"/>
  <outline>
    <contour>
      <point x="443" y="538" type="curve"/>
      <point x="450" y="568" type="line"/>
      <point x="383" y="568"/>
      <point x="340" y="595"/>
      <point x="340" y="664" type="curve" smooth="yes"/>
      <point x="340" y="741"/>
      <point x="405" y="791"/>
      <point x="493" y="793" type="curve"/>
      <point x="500" y="823" type="line"/>
      <point x="389" y="825"/>
      <point x="301" y="763"/>
      <point x="301" y="662" type="curve" smooth="yes"/>
      <point x="301" y="576"/>
      <point x="358" y="534"/>
    </contour>
  </outline>
</glyph>
<glyph name="verticallinelowmod" format="1">
  <advance width="600"/>
  <unicode hex="02CC"/>
  <outline>
    <contour>
      <point x="156" y="-245" type="line"/>
      <point x="226" y="-245" type="line"/>
      <point x="266" y="45" type="line"/>
      <point x="232" y="45" type="line"/>
    </contour>
  </outline>
</glyph>
<glyph name="overlinecmb" format="1">
  <advance width="600"/>
  <unicode hex="0305"/>
  <outline>
    <component base="macroncmb"/>
    <contour>
      <point x="338" y="502" type="move" name="_aboveLC"/>
    </contour>
    <contour>
      <point x="352" y="592" type="move" name="aboveLC"/>
    </contour>
  </outline>
</glyph>
<glyph name="hoicmb" format="1">
	<unicode hex="0309"/>
	<advance width="600"/>
	<outline>
		<contour>
			<point x="331" y="575" type="line"/>
			<point x="380" y="588"/>
			<point x="431" y="611"/>
			<point x="441" y="663" type="curve" smooth="yes"/>
			<point x="450" y="716"/>
			<point x="400" y="739"/>
			<point x="333" y="741" type="curve"/>
			<point x="325" y="707" type="line"/>
			<point x="377" y="705"/>
			<point x="406" y="689"/>
			<point x="400" y="658" type="curve" smooth="yes"/>
			<point x="396" y="629"/>
			<point x="365" y="614"/>
			<point x="327" y="603" type="curve"/>
		</contour>
		<contour>
			<point name="_aboveLC" x="338" y="502" type="move"/>
		</contour>
		<contour>
			<point name="aboveLC" x="310" y="532" type="move"/>
		</contour>
	</outline>
</glyph>
<glyph name="candrabinducmb" format="1">
	<unicode hex="0310"/>
	<advance width="600"/>
	<outline>
		<contour>
			<point x="354" y="570" type="curve" smooth="yes"/>
			<point x="459" y="570"/>
			<point x="515" y="652"/>
			<point x="533" y="718" type="curve"/>
			<point x="501" y="723" type="line"/>
			<point x="482" y="666"/>
			<point x="434" y="603"/>
			<point x="361" y="603" type="curve" smooth="yes"/>
			<point x="287" y="603"/>
			<point x="261" y="666"/>
			<point x="265" y="723" type="curve"/>
			<point x="232" y="718" type="line"/>
			<point x="229" y="652"/>
			<point x="253" y="570"/>
		</contour>
		<contour>
			<point x="380" y="700" type="curve" smooth="yes"/>
			<point x="405" y="700"/>
			<point x="430" y="724"/>
			<point x="430" y="753" type="curve" smooth="yes"/>
			<point x="430" y="776"/>
			<point x="415" y="790"/>
			<point x="392" y="790" type="curve" smooth="yes"/>
			<point x="367" y="790"/>
			<point x="343" y="766"/>
			<point x="343" y="737" type="curve" smooth="yes"/>
			<point x="343" y="715"/>
			<point x="357" y="700"/>
		</contour>
		<contour>
			<point name="_aboveLC" x="338" y="502" type="move"/>
		</contour>
	</outline>
</glyph>
<glyph name="breveinvertedcmb" format="1">
  <advance width="600"/>
  <unicode hex="0311"/>
  <outline>
    <contour>
      <point x="236" y="569" type="line"/>
      <point x="254" y="626"/>
      <point x="302" y="688"/>
      <point x="374" y="688" type="curve" smooth="yes"/>
      <point x="446" y="688"/>
      <point x="469" y="626"/>
      <point x="467" y="569" type="curve"/>
      <point x="500" y="575" type="line"/>
      <point x="506" y="640"/>
      <point x="483" y="722"/>
      <point x="381" y="722" type="curve" smooth="yes"/>
      <point x="278" y="722"/>
      <point x="224" y="640"/>
      <point x="204" y="575" type="curve"/>
    </contour>
    <contour>
      <point x="338" y="502" type="move" name="_aboveLC"/>
    </contour>
  </outline>
</glyph>
<glyph name="ringhalfleftbelowcmb" format="1">
	<unicode hex="031C"/>
	<advance width="600"/>
	<outline>
		<contour>
			<point x="229" y="-263" type="curve"/>
			<point x="234" y="-238" type="line"/>
			<point x="196" y="-238"/>
			<point x="170" y="-221"/>
			<point x="170" y="-181" type="curve" smooth="yes"/>
			<point x="170" y="-136"/>
			<point x="208" y="-107"/>
			<point x="260" y="-105" type="curve"/>
			<point x="265" y="-79" type="line"/>
			<point x="194" y="-79"/>
			<point x="138" y="-118"/>
			<point x="138" y="-184" type="curve" smooth="yes"/>
			<point x="138" y="-239"/>
			<point x="183" y="-266"/>
		</contour>
		<contour>
			<point name="_belowLC" x="234" y="-20" type="move"/>
		</contour>
	</outline>
</glyph>
<glyph name="dieresisbelowcmb" format="1">
	<unicode hex="0324"/>
	<advance width="600"/>
	<outline>
		<component base="dieresiscmb" xOffset="-157" yOffset="-792"/>
		<contour>
			<point name="_belowLC" x="234" y="-20" type="move"/>
		</contour>
	</outline>
</glyph>
<glyph name="xabovecmb" format="1">
  <advance width="600"/>
  <unicode hex="033D"/>
  <outline>
    <contour>
      <point x="299" y="564" type="line"/>
      <point x="360" y="615" type="line"/>
      <point x="401" y="564" type="line"/>
      <point x="429" y="587" type="line"/>
      <point x="388" y="638" type="line"/>
      <point x="449" y="689" type="line"/>
      <point x="430" y="713" type="line"/>
      <point x="369" y="662" type="line"/>
      <point x="328" y="713" type="line"/>
      <point x="300" y="689" type="line"/>
      <point x="341" y="638" type="line"/>
      <point x="280" y="587" type="line"/>
    </contour>
    <contour>
      <point x="338" y="502" type="move" name="_aboveLC"/>
    </contour>
  </outline>
</glyph>
<glyph name="macrondoublebelowcmb" format="1">
  <advance width="600"/>
  <unicode hex="035F"/>
  <outline>
    <contour>
      <point x="-276" y="-183" type="line"/>
      <point x="683" y="-183" type="line"/>
      <point x="688" y="-150" type="line"/>
      <point x="-270" y="-150" type="line"/>
    </contour>
  </outline>
</glyph>
<glyph name="pi" format="1">
  <advance width="600"/>
  <unicode hex="03C0"/>
  <outline>
    <contour>
      <point x="115" y="-3" type="line"/>
      <point x="155" y="146"/>
      <point x="190" y="302"/>
      <point x="219" y="450" type="curve"/>
      <point x="181" y="451" type="line"/>
      <point x="152" y="306"/>
      <point x="118" y="148"/>
      <point x="74" y="0" type="curve"/>
    </contour>
    <contour>
      <point x="86" y="445" type="line"/>
      <point x="573" y="445" type="line"/>
      <point x="581" y="480" type="line"/>
      <point x="159" y="480" type="line"/>
      <point x="91" y="476" type="line"/>
    </contour>
    <contour>
      <point x="423" y="-12" type="curve" smooth="yes"/>
      <point x="444" y="-12"/>
      <point x="463" y="-6"/>
      <point x="476" y="-1" type="curve"/>
      <point x="467" y="31" type="line"/>
      <point x="456" y="26"/>
      <point x="445" y="22"/>
      <point x="431" y="22" type="curve" smooth="yes"/>
      <point x="411" y="22"/>
      <point x="400" y="34"/>
      <point x="400" y="55" type="curve" smooth="yes"/>
      <point x="400" y="88"/>
      <point x="446" y="297"/>
      <point x="484" y="450" type="curve"/>
      <point x="446" y="450" type="line"/>
      <point x="412" y="304"/>
      <point x="362" y="93"/>
      <point x="362" y="51" type="curve" smooth="yes"/>
      <point x="362" y="8"/>
      <point x="386" y="-12"/>
    </contour>
  </outline>
</glyph>
<glyph name="endash" format="1">
  <advance width="600"/>
  <unicode hex="2013"/>
  <outline>
    <contour>
      <point x="64" y="228" type="line"/>
      <point x="504" y="228" type="line"/>
      <point x="514" y="273" type="line"/>
      <point x="74" y="273" type="line"/>
    </contour>
  </outline>
</glyph>
<glyph name="emdash" format="1">
  <advance width="600"/>
  <unicode hex="2014"/>
  <outline>
    <contour>
      <point x="4" y="228" type="line"/>
      <point x="564" y="228" type="line"/>
      <point x="574" y="273" type="line"/>
      <point x="14" y="273" type="line"/>
    </contour>
  </outline>
</glyph>
<glyph name="underscoredbl" format="1">
  <advance width="600"/>
  <unicode hex="2017"/>
  <outline>
    <contour>
      <point x="-26" y="-122" type="line"/>
      <point x="455" y="-122" type="line"/>
      <point x="463" y="-80" type="line"/>
      <point x="-17" y="-80" type="line"/>
    </contour>
    <contour>
      <point x="-47" y="-226" type="line"/>
      <point x="433" y="-226" type="line"/>
      <point x="441" y="-184" type="line"/>
      <point x="-39" y="-184" type="line"/>
    </contour>
  </outline>
</glyph>
<glyph name="quoteleft" format="1">
  <advance width="600"/>
  <unicode hex="2018"/>
  <outline>
    <contour>
      <point x="339" y="408" type="curve" smooth="yes"/>
      <point x="377" y="408"/>
      <point x="410" y="441"/>
      <point x="410" y="480" type="curve" smooth="yes"/>
      <point x="410" y="509"/>
      <point x="393" y="531"/>
      <point x="364" y="531" type="curve" smooth="yes"/>
      <point x="339" y="531"/>
      <point x="324" y="521"/>
      <point x="304" y="501" type="curve"/>
      <point x="345" y="437" type="line"/>
      <point x="334" y="506" type="line"/>
      <point x="342" y="586"/>
      <point x="398" y="643"/>
      <point x="483" y="672" type="curve"/>
      <point x="474" y="701" type="line"/>
      <point x="352" y="663"/>
      <point x="280" y="578"/>
      <point x="280" y="481" type="curve" smooth="yes"/>
      <point x="280" y="429"/>
      <point x="308" y="408"/>
    </contour>
  </outline>
</glyph>
<glyph name="quoteright" format="1">
  <advance width="600"/>
  <unicode hex="2019"/>
  <outline>
    <contour>
      <point x="243" y="406" type="line"/>
      <point x="365" y="443"/>
      <point x="435" y="530"/>
      <point x="435" y="627" type="curve" smooth="yes"/>
      <point x="435" y="679"/>
      <point x="408" y="700"/>
      <point x="376" y="700" type="curve" smooth="yes"/>
      <point x="338" y="700"/>
      <point x="305" y="667"/>
      <point x="305" y="628" type="curve" smooth="yes"/>
      <point x="305" y="598"/>
      <point x="323" y="577"/>
      <point x="352" y="577" type="curve" smooth="yes"/>
      <point x="376" y="577"/>
      <point x="392" y="587"/>
      <point x="411" y="607" type="curve"/>
      <point x="370" y="671" type="line"/>
      <point x="382" y="602" type="line"/>
      <point x="374" y="521"/>
      <point x="319" y="465"/>
      <point x="234" y="437" type="curve"/>
    </contour>
  </outline>
</glyph>
<glyph name="quotereversed" format="1">
  <advance width="600"/>
  <unicode hex="201B"/>
  <outline>
    <contour>
      <point x="368" y="406" type="curve"/>
      <point x="387" y="433" type="line"/>
      <point x="328" y="466"/>
      <point x="296" y="509"/>
      <point x="296" y="562" type="curve"/>
      <point x="296" y="576"/>
      <point x="298" y="593"/>
      <point x="303" y="609" type="curve"/>
      <point x="340" y="669" type="line"/>
      <point x="276" y="617" type="line"/>
      <point x="281" y="592"/>
      <point x="294" y="576"/>
      <point x="322" y="576" type="curve" smooth="yes"/>
      <point x="362" y="576"/>
      <point x="392" y="612"/>
      <point x="392" y="650" type="curve" smooth="yes"/>
      <point x="392" y="678"/>
      <point x="369" y="700"/>
      <point x="341" y="700" type="curve" smooth="yes"/>
      <point x="292" y="700"/>
      <point x="246" y="648"/>
      <point x="246" y="576" type="curve" smooth="yes"/>
      <point x="246" y="510"/>
      <point x="290" y="446"/>
    </contour>
  </outline>
</glyph>
<glyph name="dagger" format="1">
	<unicode hex="2020"/>
	<advance width="600"/>
	<outline>
		<contour>
			<point x="201" y="-80" type="line"/>
			<point x="241" y="-80" type="line"/>
			<point x="360" y="525" type="line"/>
			<point x="486" y="522" type="line"/>
			<point x="493" y="562" type="line"/>
			<point x="367" y="559" type="line"/>
			<point x="399" y="712" type="line"/>
			<point x="359" y="712" type="line"/>
			<point x="331" y="559" type="line"/>
			<point x="206" y="562" type="line"/>
			<point x="198" y="522" type="line"/>
			<point x="326" y="525" type="line"/>
		</contour>
	</outline>
</glyph>
<glyph name="daggerdbl" format="1">
  <advance width="600"/>
  <unicode hex="2021"/>
  <outline>
    <contour>
      <point x="204" y="-80" type="line"/>
      <point x="244" y="-80" type="line"/>
      <point x="272" y="72" type="line"/>
      <point x="397" y="70" type="line"/>
      <point x="405" y="109" type="line"/>
      <point x="278" y="106" type="line"/>
      <point x="322" y="316" type="line"/>
      <point x="361" y="526" type="line"/>
      <point x="487" y="522" type="line"/>
      <point x="495" y="562" type="line"/>
      <point x="369" y="559" type="line"/>
      <point x="400" y="712" type="line"/>
      <point x="361" y="712" type="line"/>
      <point x="333" y="559" type="line"/>
      <point x="207" y="562" type="line"/>
      <point x="199" y="522" type="line"/>
      <point x="327" y="526" type="line"/>
      <point x="282" y="316" type="line"/>
      <point x="243" y="106" type="line"/>
      <point x="118" y="109" type="line"/>
      <point x="110" y="70" type="line"/>
      <point x="236" y="72" type="line"/>
    </contour>
  </outline>
</glyph>
<glyph name="bullet" format="1">
  <advance width="600"/>
  <unicode hex="2022"/>
  <outline>
    <contour>
      <point x="264" y="124" type="curve" smooth="yes"/>
      <point x="351" y="124"/>
      <point x="432" y="188"/>
      <point x="432" y="286" type="curve" smooth="yes"/>
      <point x="432" y="356"/>
      <point x="380" y="400"/>
      <point x="318" y="400" type="curve" smooth="yes"/>
      <point x="231" y="400"/>
      <point x="150" y="337"/>
      <point x="150" y="239" type="curve" smooth="yes"/>
      <point x="150" y="168"/>
      <point x="203" y="124"/>
    </contour>
  </outline>
</glyph>
<glyph name="ellipsis" format="1">
  <advance width="600"/>
  <unicode hex="2026"/>
  <outline>
    <contour>
      <point x="47" y="-12" type="curve" smooth="yes"/>
      <point x="85" y="-12"/>
      <point x="116" y="17"/>
      <point x="116" y="62" type="curve" smooth="yes"/>
      <point x="116" y="95"/>
      <point x="96" y="111"/>
      <point x="73" y="111" type="curve" smooth="yes"/>
      <point x="39" y="111"/>
      <point x="2" y="83"/>
      <point x="2" y="37" type="curve" smooth="yes"/>
      <point x="2" y="8"/>
      <point x="19" y="-12"/>
    </contour>
    <contour>
      <point x="239" y="-12" type="curve" smooth="yes"/>
      <point x="276" y="-12"/>
      <point x="307" y="17"/>
      <point x="307" y="62" type="curve" smooth="yes"/>
      <point x="307" y="95"/>
      <point x="289" y="111"/>
      <point x="265" y="111" type="curve" smooth="yes"/>
      <point x="231" y="111"/>
      <point x="195" y="83"/>
      <point x="195" y="37" type="curve" smooth="yes"/>
      <point x="195" y="8"/>
      <point x="211" y="-12"/>
    </contour>
    <contour>
      <point x="430" y="-12" type="curve" smooth="yes"/>
      <point x="468" y="-12"/>
      <point x="499" y="17"/>
      <point x="499" y="62" type="curve" smooth="yes"/>
      <point x="499" y="95"/>
      <point x="480" y="111"/>
      <point x="456" y="111" type="curve" smooth="yes"/>
      <point x="422" y="111"/>
      <point x="386" y="83"/>
      <point x="386" y="37" type="curve" smooth="yes"/>
      <point x="386" y="8"/>
      <point x="403" y="-12"/>
    </contour>
  </outline>
</glyph>
<glyph name="perthousand" format="1">
  <advance width="600"/>
  <unicode hex="2030"/>
  <outline>
    <contour>
      <point x="181" y="390" type="curve" smooth="yes"/>
      <point x="263" y="390"/>
      <point x="321" y="457"/>
      <point x="321" y="554" type="curve" smooth="yes"/>
      <point x="321" y="613"/>
      <point x="289" y="652"/>
      <point x="234" y="652" type="curve" smooth="yes"/>
      <point x="152" y="652"/>
      <point x="93" y="584"/>
      <point x="93" y="488" type="curve" smooth="yes"/>
      <point x="93" y="430"/>
      <point x="126" y="390"/>
    </contour>
    <contour>
      <point x="187" y="420" type="curve" smooth="yes"/>
      <point x="150" y="420"/>
      <point x="128" y="446"/>
      <point x="128" y="493" type="curve" smooth="yes"/>
      <point x="128" y="571"/>
      <point x="174" y="622"/>
      <point x="230" y="622" type="curve" smooth="yes"/>
      <point x="266" y="622"/>
      <point x="286" y="595"/>
      <point x="286" y="548" type="curve" smooth="yes"/>
      <point x="286" y="469"/>
      <point x="241" y="420"/>
    </contour>
    <contour>
      <point x="108" y="281" type="line"/>
      <point x="595" y="454" type="line"/>
      <point x="583" y="489" type="line"/>
      <point x="100" y="303" type="line"/>
    </contour>
    <contour>
      <point x="100" y="-12" type="curve" smooth="yes"/>
      <point x="182" y="-12"/>
      <point x="240" y="55"/>
      <point x="240" y="152" type="curve" smooth="yes"/>
      <point x="240" y="212"/>
      <point x="208" y="250"/>
      <point x="153" y="250" type="curve" smooth="yes"/>
      <point x="71" y="250"/>
      <point x="12" y="183"/>
      <point x="12" y="86" type="curve" smooth="yes"/>
      <point x="12" y="28"/>
      <point x="45" y="-12"/>
    </contour>
    <contour>
      <point x="106" y="18" type="curve" smooth="yes"/>
      <point x="69" y="18"/>
      <point x="47" y="44"/>
      <point x="47" y="91" type="curve" smooth="yes"/>
      <point x="47" y="169"/>
      <point x="93" y="221"/>
      <point x="149" y="221" type="curve" smooth="yes"/>
      <point x="185" y="221"/>
      <point x="205" y="193"/>
      <point x="205" y="146" type="curve" smooth="yes"/>
      <point x="205" y="67"/>
      <point x="160" y="18"/>
    </contour>
    <contour>
      <point x="363" y="-12" type="curve" smooth="yes"/>
      <point x="445" y="-12"/>
      <point x="503" y="55"/>
      <point x="503" y="152" type="curve" smooth="yes"/>
      <point x="503" y="212"/>
      <point x="471" y="250"/>
      <point x="416" y="250" type="curve" smooth="yes"/>
      <point x="334" y="250"/>
      <point x="275" y="183"/>
      <point x="275" y="86" type="curve" smooth="yes"/>
      <point x="275" y="28"/>
      <point x="308" y="-12"/>
    </contour>
    <contour>
      <point x="369" y="18" type="curve" smooth="yes"/>
      <point x="332" y="18"/>
      <point x="310" y="44"/>
      <point x="310" y="91" type="curve" smooth="yes"/>
      <point x="310" y="169"/>
      <point x="356" y="221"/>
      <point x="411" y="221" type="curve" smooth="yes"/>
      <point x="448" y="221"/>
      <point x="468" y="193"/>
      <point x="468" y="146" type="curve" smooth="yes"/>
      <point x="468" y="67"/>
      <point x="423" y="18"/>
    </contour>
  </outline>
</glyph>
<glyph name="guilsinglleft" format="1">
  <advance width="600"/>
  <unicode hex="2039"/>
  <outline>
    <contour>
      <point x="303" y="66" type="line"/>
      <point x="330" y="84" type="line"/>
      <point x="239" y="249" type="line"/>
      <point x="393" y="413" type="line"/>
      <point x="373" y="435" type="line"/>
      <point x="200" y="271" type="line"/>
      <point x="193" y="234" type="line"/>
    </contour>
  </outline>
</glyph>
<glyph name="guilsinglright" format="1">
  <advance width="600"/>
  <unicode hex="203A"/>
  <outline>
    <contour>
      <point x="180" y="67" type="line"/>
      <point x="353" y="231" type="line"/>
      <point x="360" y="267" type="line"/>
      <point x="250" y="435" type="line"/>
      <point x="223" y="418" type="line"/>
      <point x="320" y="242" type="line"/>
      <point x="321" y="261" type="line"/>
      <point x="160" y="88" type="line"/>
    </contour>
  </outline>
</glyph>
<glyph name="fraction" format="1">
  <advance width="600"/>
  <unicode hex="2044"/>
  <outline>
    <contour>
      <point x="9" y="33" type="line"/>
      <point x="222" y="240" type="line"/>
      <point x="205" y="259" type="line"/>
      <point x="-15" y="61" type="line"/>
    </contour>
    <contour>
      <point x="400" y="399" type="line"/>
      <point x="619" y="596" type="line"/>
      <point x="594" y="623" type="line"/>
      <point x="383" y="418" type="line"/>
    </contour>
  </outline>
</glyph>
<glyph name="questionexclam" format="1">
  <advance width="600"/>
  <unicode hex="2048"/>
  <outline>
    <contour>
      <point x="93" y="219" type="curve"/>
      <point x="130" y="219" type="line"/>
      <point x="131" y="371"/>
      <point x="328" y="401"/>
      <point x="328" y="569" type="curve" smooth="yes"/>
      <point x="328" y="635"/>
      <point x="275" y="682"/>
      <point x="206" y="682" type="curve" smooth="yes"/>
      <point x="152" y="682"/>
      <point x="107" y="655"/>
      <point x="72" y="614" type="curve"/>
      <point x="95" y="590" type="line"/>
      <point x="124" y="625"/>
      <point x="156" y="646"/>
      <point x="201" y="646" type="curve" smooth="yes"/>
      <point x="253" y="646"/>
      <point x="286" y="607"/>
      <point x="286" y="560" type="curve" smooth="yes"/>
      <point x="286" y="417"/>
      <point x="94" y="385"/>
    </contour>
    <contour>
      <point x="78" y="-12" type="curve" smooth="yes"/>
      <point x="114" y="-12"/>
      <point x="145" y="24"/>
      <point x="145" y="61" type="curve" smooth="yes"/>
      <point x="145" y="92"/>
      <point x="127" y="112"/>
      <point x="99" y="112" type="curve" smooth="yes"/>
      <point x="63" y="112"/>
      <point x="31" y="76"/>
      <point x="31" y="38" type="curve" smooth="yes"/>
      <point x="31" y="8"/>
      <point x="49" y="-12"/>
    </contour>
    <component base="exclam" xOffset="140"/>
  </outline>
</glyph>
<glyph name="colonmonetary" format="1">
  <advance width="600"/>
  <unicode hex="20A1"/>
  <outline>
    <contour>
      <point x="283" y="-12" type="curve"/>
      <point x="370" y="-12"/>
      <point x="435" y="30"/>
      <point x="491" y="89" type="curve"/>
      <point x="465" y="116" type="line"/>
      <point x="413" y="58"/>
      <point x="356" y="25"/>
      <point x="292" y="25" type="curve" smooth="yes"/>
      <point x="193" y="25"/>
      <point x="138" y="109"/>
      <point x="138" y="235" type="curve" smooth="yes"/>
      <point x="138" y="452"/>
      <point x="264" y="616"/>
      <point x="417" y="616" type="curve" smooth="yes"/>
      <point x="480" y="616"/>
      <point x="511" y="586"/>
      <point x="545" y="533" type="curve"/>
      <point x="575" y="553" type="line"/>
      <point x="543" y="606"/>
      <point x="499" y="652"/>
      <point x="419" y="652" type="curve" smooth="yes"/>
      <point x="242" y="652"/>
      <point x="95" y="480"/>
      <point x="95" y="235" type="curve" smooth="yes"/>
      <point x="95" y="85"/>
      <point x="165" y="-12"/>
    </contour>
    <contour>
      <point x="132" y="-110" type="line"/>
      <point x="162" y="-110" type="line"/>
      <point x="436" y="750" type="line"/>
      <point x="405" y="750" type="line"/>
    </contour>
    <contour>
      <point x="231" y="-110" type="line"/>
      <point x="261" y="-110" type="line"/>
      <point x="535" y="750" type="line"/>
      <point x="504" y="750" type="line"/>
    </contour>
  </outline>
</glyph>
<glyph name="franc" format="1">
	<unicode hex="20A3"/>
	<advance width="600"/>
	<outline>
		<contour>
			<point x="94" y="0" type="line"/>
			<point x="137" y="0" type="line"/>
			<point x="201" y="319" type="line"/>
			<point x="473" y="319" type="line"/>
			<point x="481" y="356" type="line"/>
			<point x="208" y="356" type="line"/>
			<point x="256" y="603" type="line"/>
			<point x="583" y="603" type="line"/>
			<point x="591" y="639" type="line"/>
			<point x="222" y="639" type="line"/>
		</contour>
		<contour>
			<point x="41" y="144" type="line"/>
			<point x="335" y="144" type="line"/>
			<point x="343" y="175" type="line"/>
			<point x="132" y="175" type="line"/>
			<point x="47" y="171" type="line"/>
		</contour>
	</outline>
</glyph>
